<?xml version="1.0" encoding="UTF-8"?>
<svg id="Layer_2" data-name="Layer 2" xmlns="http://www.w3.org/2000/svg" viewBox="0 0 81.53 81.53">
  <defs>
    <style>
      .cls-1 {
        stroke-width: 0px;
      }
    </style>
  </defs>
  <g id="Layer_2-2" data-name="Layer 2">
    <path class="cls-1" d="m40.76,12.23c-15.76,0-28.53,12.78-28.53,28.53s12.78,28.53,28.53,28.53,28.53-12.78,28.53-28.53c-.02-15.75-12.78-28.52-28.53-28.53Zm0,11.89c5.25,0,9.51,4.26,9.51,9.51s-4.26,9.51-9.51,9.51-9.51-4.26-9.51-9.51,4.26-9.51,9.51-9.51Zm0,35.67c-5.81.01-11.31-2.64-14.91-7.21,8.96-6.24,20.85-6.25,29.82-.02-3.59,4.57-9.09,7.24-14.91,7.23Z"/>
  </g>
</svg>