<?xml version="1.0" encoding="UTF-8"?>
<svg id="Layer_2" data-name="Layer 2" xmlns="http://www.w3.org/2000/svg" viewBox="0 0 67.94 67.94">
  <defs>
    <style>
      .cls-1 {
        stroke-width: 0px;
      }
    </style>
  </defs>
  <g id="Layer_2-2" data-name="Layer 2">
    <path class="cls-1" d="m33.97,10.19c-13.13,0-23.78,10.65-23.78,23.78s10.65,23.78,23.78,23.78,23.78-10.65,23.78-23.78c-.01-13.13-10.65-23.76-23.78-23.78Zm0,38.64c-1.64,0-2.97-1.33-2.97-2.97s1.33-2.97,2.97-2.97,2.97,1.33,2.97,2.97-1.33,2.97-2.97,2.97Zm2.38-10.41v2.68h-4.76v-7.13h2.38c2.63,0,4.76-2.13,4.76-4.76s-2.13-4.76-4.76-4.76-4.76,2.13-4.76,4.76h-4.76c0-5.25,4.26-9.51,9.51-9.51,5.25,0,9.51,4.26,9.51,9.51,0,4.34-2.94,8.12-7.13,9.21Z"/>
  </g>
</svg>