<?xml version="1.0" encoding="UTF-8"?>
<svg id="Layer_2" data-name="Layer 2" xmlns="http://www.w3.org/2000/svg" viewBox="0 0 79.97 79.9">
  <defs>
    <style>
      .cls-1 {
        fill-rule: evenodd;
        stroke-width: 0px;
      }
    </style>
  </defs>
  <g id="Layer_2-2" data-name="Layer 2">
    <path class="cls-1" d="m12,39.97c0-15.52,12.47-27.99,27.99-27.99s27.99,12.47,27.99,27.99v4.42c0,5.19-2.7,9.88-7.03,12.49v-9.93c0-1.16-.47-2.33-1.4-3.26-.7-.7-6.29-6.05-19.56-6.05s-18.86,5.36-19.56,6.05c-.93.93-1.4,2.1-1.4,3.26v9.93c-4.33-2.61-7.03-7.3-7.03-12.49v-4.42Zm27.99,2.33c11.64,0,16.3,4.66,16.3,4.66v11.64c0,5.12-4.19,9.31-9.31,9.31h-13.97c-5.12,0-9.31-4.19-9.31-9.31v-11.64s4.66-4.66,16.3-4.66Zm-2.33,12.81c0,1.93-1.56,3.49-3.49,3.49s-3.49-1.56-3.49-3.49,1.56-3.49,3.49-3.49,3.49,1.56,3.49,3.49Zm8.15,3.49c1.93,0,3.49-1.56,3.49-3.49s-1.56-3.49-3.49-3.49-3.49,1.56-3.49,3.49,1.56,3.49,3.49,3.49Zm-8.15-31.43c0,4.5-3.65,8.15-8.15,8.15s-8.15-3.65-8.15-8.15,3.65-8.15,8.15-8.15,8.15,3.65,8.15,8.15Zm8.15-1.16c3.21,0,5.82-2.61,5.82-5.82s-2.61-5.82-5.82-5.82-5.82,2.61-5.82,5.82,2.61,5.82,5.82,5.82Zm12.81,6.99c0,2.57-2.08,4.66-4.66,4.66s-4.66-2.08-4.66-4.66,2.08-4.66,4.66-4.66,4.66,2.08,4.66,4.66Z"/>
  </g>
</svg>