<?xml version="1.0" encoding="UTF-8"?>
<svg id="Layer_1" data-name="Layer 1" xmlns="http://www.w3.org/2000/svg" viewBox="0 0 1200 1200">
  <defs>
    <style>
      .cls-1, .cls-2 {
        stroke-width: 0px;
      }

      .cls-2 {
        fill: #fff;
      }
    </style>
  </defs>
  <rect class="cls-1" x="-10.44" y="-10.44" width="1220.88" height="1220.88"/>
  <g>
    <path class="cls-2" d="m969.98,637.5c0-.82-.65-1.46-1.47-1.48-16.76-.46-32.34-8.87-41.93-22.69l-143.39-206.65c-10.46-15.07-27.64-24.06-45.99-24.06h0c-18.37,0-35.57,9.01-46.02,24.11l-90.05,130.08c-4.98,7.19-15.59,7.24-20.63.09l-31.86-45.17c-7.26-10.3-17.55-18.26-29.59-21.97-24.3-7.48-49.49,1.88-63.22,21.63l-84.8,121.97c-9.88,14.21-26.08,22.68-43.38,22.68h-96.12c-.83,0-1.51.67-1.51,1.51,0,.72,0,1.59,0,2.31,0,.81.65,1.46,1.46,1.48,15.16.46,29.25,8.09,37.92,20.6l27.08,39.07c7.77,11.21,19.13,19.69,32.35,23.05,23.03,5.84,46.42-3.41,59.38-22.09l26.8-38.62c5-7.21,15.67-7.21,20.68,0l26.87,38.73c10.31,14.85,27.24,23.71,45.32,23.71h0c18.08,0,35.01-8.86,45.32-23.71l26.87-38.73c5-7.21,15.67-7.21,20.67,0l89.93,129.61c10.62,15.31,28.08,24.44,46.71,24.44h0c18.64,0,36.09-9.13,46.71-24.44l90.9-131c8.93-12.86,23.58-20.56,39.24-20.6l12.51-.04h41.72c.83,0,1.51-.68,1.51-1.51v-2.3Z"/>
    <g>
      <g>
        <path class="cls-2" d="m308.13,220.03l-10.5,6.99-24.96-37.49,9.37-6.24,4.92,5.27c.25-6.44,3.18-12.29,8.72-15.98,7.43-4.94,16.05-4.84,23.44-.24-1.42-8.47,1.46-16.34,8.35-20.93,10.8-7.19,24.26-3.71,32.6,8.81l11.63,17.47-10.5,6.99-11.63-17.47c-4.49-6.75-12.06-8.53-18.36-4.33-6.3,4.19-7.43,11.76-2.94,18.51l11.63,17.47-10.49,6.99-11.63-17.47c-4.5-6.75-12.07-8.53-18.36-4.33-6.3,4.19-7.43,11.76-2.94,18.51l11.64,17.47Z"/>
        <path class="cls-2" d="m431.21,152.71l-3.43-5.02c-2.5,6-7.55,10.99-14.63,13.91-13.82,5.69-28.11.56-33.28-12.01-5.24-12.74,1.21-26.4,15.12-32.12,7-2.88,14.15-3,20.18-.42l-1.1-5.97,10.33-4.25,17.13,41.63-10.33,4.25Zm-19.8-2.46c8.83-3.63,12.79-10.81,9.94-17.72-2.88-6.99-10.89-9.44-19.64-5.84-8.74,3.6-13.02,11.2-10.18,18.11,2.78,6.74,11.13,9.05,19.87,5.45Z"/>
        <path class="cls-2" d="m501.6,125.46c-3.5,5.25-9.34,9.18-16.63,10.86-14.57,3.36-27.71-3.5-30.69-16.4-3.04-13.17,5.66-25.16,20.31-28.54,7.46-1.72,14.44-.74,19.93,2.61l-.05-5.81,10.89-2.51,9.85,42.66c3.1,13.43-5.97,25.79-21.42,29.36-14.13,3.26-26.39-1.77-31.61-11.56l12.29-2.84c3.82,3.74,9.92,5.29,16.49,3.77,8.78-2.03,13.68-8.43,11.96-15.89l-1.32-5.7Zm-16.49-.54c9.31-2.15,14.44-8.33,12.86-15.17-1.6-6.94-9.04-10.3-18.25-8.18-9.22,2.13-14.77,8.5-13.18,15.43,1.54,6.67,9.35,10.05,18.56,7.92Z"/>
        <path class="cls-2" d="m537.46,62.31c3.4-.37,5.99,1.8,6.35,5.11.39,3.58-1.7,6.07-5.1,6.44-3.58.39-6.15-1.6-6.54-5.18-.36-3.31,1.71-5.98,5.29-6.37Zm.65,64.69l-4.83-44.77,12.53-1.36,4.83,44.77-12.53,1.35Z"/>
        <path class="cls-2" d="m598,113.44c6.84.11,11.93-2.51,14.08-7.16l13.06.22c-2.53,11.4-13.37,18.7-27.33,18.48-15.77-.26-27.4-10.63-27.18-24.24.22-13.78,12.1-23.77,27.96-23.51,13.87.23,24.38,7.7,26.63,19.27l-13.06-.22c-2-4.63-7-7.5-13.75-7.61-8.65-.14-15.04,4.98-15.16,12.28-.12,7.21,6.2,12.36,14.76,12.5Z"/>
        <path class="cls-2" d="m659.44,81.69l6.06,29.57,16.09-25.54,13.2,2.4,6.05,29.66,16.11-25.63,13.47,2.45-25.87,41.07-13.38-2.43-5.96-29.64-16.02,25.65-13.47-2.45-9.66-47.53,13.38,2.43Z"/>
        <path class="cls-2" d="m774.98,109.32c15.04,5.57,22.58,18.65,17.6,32.08-4.89,13.18-19.17,18.26-34.2,12.69-14.79-5.48-22.31-19.13-17.58-31.88,4.79-12.92,19.31-18.4,34.17-12.88Zm-12.53,33.79c8.45,3.13,15.86.5,18.3-6.09,2.51-6.76-1.37-13.67-9.82-16.8-8.11-3.01-15.81-.39-18.31,6.37-2.45,6.59,1.8,13.54,9.82,16.52Z"/>
        <path class="cls-2" d="m847.53,157.79c-11.86-6.28-22.37-3.19-28.27,7.95l-5.99,11.3-11.14-5.91,21.09-39.79,9.95,5.27-4.29,10.98c7.42-5.14,16.38-6.1,24.9-1.59l-6.24,11.78Z"/>
        <path class="cls-2" d="m858.16,203.71l-10.29-7.29,36.43-51.45,10.29,7.29-20.14,28.44,4.56,3.23,22.37-4.79,13.53,9.57-29.85,6.46,5.29,31.33-13.97-9.89-4.07-23.4-4.48-3.17-9.68,13.67Z"/>
      </g>
      <g>
        <path class="cls-2" d="m285.84,1029.18l-10.69-6.69,23.91-38.18,9.54,5.97-2.78,6.66c5.98-2.42,12.51-2.16,18.16,1.38,7.56,4.73,11.01,12.63,9.86,21.26,7.13-4.78,15.49-5.39,22.52-1,10.99,6.89,13.36,20.59,5.38,33.34l-11.14,17.79-10.69-6.69,11.14-17.79c4.3-6.87,2.81-14.5-3.61-18.52-6.41-4.01-13.78-1.93-18.08,4.94l-11.14,17.79-10.69-6.69,11.14-17.79c4.3-6.87,2.81-14.51-3.61-18.52-6.41-4.02-13.78-1.93-18.08,4.94l-11.14,17.79Z"/>
        <path class="cls-2" d="m416.99,1089.93c-4.46,3.3-12.26,3.47-20.66.22-12.18-4.72-17.03-11.42-14.07-19.07,2.96-7.64,13.34-9.51,27.96-3.86l13.44,5.2c2.28-5.88-.9-11.17-7.62-13.77-5.97-2.31-11.31-1.48-14.51,2.3l-11.76-4.55c6.33-10.11,17.9-13.06,30.42-8.22,13.61,5.27,19.93,16.89,15.31,28.82l-9.04,23.35-10.59-4.1,1.1-6.33Zm-14.39-6.25c8.32,3.22,16.11,1.31,18.32-4.4l.36-.93-12.35-4.78c-7.48-2.89-12.02-2.63-13.45,1.07-1.3,3.36,1.41,6.83,7.13,9.04Z"/>
        <path class="cls-2" d="m497.89,1111.1c-5.41,3.25-12.37,4.33-19.68,2.74-14.61-3.17-23.58-14.97-20.78-27.91,2.86-13.21,15.84-20.36,30.54-17.17,7.49,1.62,13.38,5.48,16.92,10.85l2.43-5.28,10.92,2.36-9.27,42.8c-2.92,13.47-16.39,20.79-31.89,17.43-14.18-3.07-23.13-12.84-23.68-23.93l12.33,2.67c1.86,5.01,6.71,9.01,13.32,10.44,8.81,1.91,15.97-1.8,17.59-9.28l1.24-5.72Zm-14.69-7.51c9.34,2.02,16.62-1.38,18.1-8.25,1.51-6.96-3.78-13.17-13.03-15.17-9.25-2-16.99,1.39-18.49,8.35-1.45,6.69,4.17,13.07,13.42,15.08Z"/>
        <path class="cls-2" d="m538.05,1124l4.29-44.81,12.55,1.2-4.28,44.81-12.55-1.2Zm12.4-63.48c3.41.33,5.51,2.97,5.19,6.28-.34,3.59-2.88,5.6-6.29,5.28-3.58-.34-5.7-2.81-5.36-6.39.32-3.32,2.88-5.51,6.46-5.17Z"/>
        <path class="cls-2" d="m603.99,1116.74c6.84-.11,11.85-2.9,13.84-7.62l13.06-.21c-2.16,11.48-12.75,19.13-26.72,19.36-15.76.26-27.73-9.73-27.96-23.33-.22-13.78,11.32-24.15,27.18-24.41,13.87-.23,24.62,6.89,27.24,18.39l-13.06.21c-2.15-4.56-7.24-7.27-14-7.16-8.65.14-14.87,5.47-14.75,12.77.12,7.21,6.6,12.15,15.16,12.01Z"/>
        <path class="cls-2" d="m658.55,1078.82l16.3,25.4,5.81-29.61,13.18-2.51,16.31,25.48,5.79-29.7,13.44-2.56-9.34,47.6-13.35,2.55-16.22-25.5-5.71,29.68-13.44,2.56-26.12-40.84,13.35-2.55Z"/>
        <path class="cls-2" d="m767.06,1049.44c15-5.66,29.28-.74,34.33,12.66,4.95,13.15-2.49,26.35-17.49,32.01-14.75,5.56-29.38.2-34.18-12.53-4.86-12.89,2.5-26.55,17.33-32.14Zm12.72,33.71c8.42-3.18,12.29-10.03,9.82-16.6-2.54-6.74-10-9.42-18.43-6.24-8.09,3.05-12.18,10.08-9.64,16.82,2.48,6.57,10.25,9.04,18.25,6.02Z"/>
        <path class="cls-2" d="m847.38,1026.18c-11.83,6.34-15.12,16.79-9.16,27.91l6.04,11.27-11.12,5.96-21.28-39.7,9.92-5.32,6.73,9.68c-.14-9.03,4.07-17,12.57-21.56l6.3,11.75Z"/>
        <path class="cls-2" d="m895.17,1034.78l-10.28,7.31-36.56-51.39,10.28-7.31,20.21,28.41,4.56-3.24,2.86-22.71,13.51-9.61-3.76,30.31,31.34,5.35-13.95,9.92-23.45-3.89-4.47,3.19,9.71,13.65Z"/>
      </g>
    </g>
    <g>
      <path class="cls-2" d="m972.08,933.63l-4.19-3.76c81.4-90.72,126.23-207.87,126.23-329.88s-44.83-239.15-126.23-329.88l4.19-3.76c82.33,91.76,127.67,210.24,127.67,333.64s-45.34,241.88-127.67,333.63Z"/>
      <path class="cls-2" d="m227.92,933.64c-82.33-91.76-127.67-210.25-127.67-333.64s45.34-241.88,127.67-333.63l4.19,3.76c-81.4,90.72-126.23,207.87-126.23,329.87s44.83,239.15,126.23,329.88l-4.19,3.76Z"/>
    </g>
  </g>
</svg>