<?xml version="1.0" encoding="UTF-8"?>
<svg id="Layer_1" data-name="Layer 1" xmlns="http://www.w3.org/2000/svg" viewBox="0 0 1200 1200">
  <defs>
    <style>
      .cls-1 {
        stroke-width: 0px;
      }
    </style>
  </defs>
  <path class="cls-1" d="m1170.41,657.81c0-1.26-1.01-2.25-2.27-2.29-25.84-.72-49.86-13.67-64.65-34.98l-221.08-318.61c-16.12-23.24-42.61-37.1-70.9-37.1h0c-28.32,0-54.83,13.89-70.95,37.18l-138.84,200.56c-7.67,11.08-24.03,11.16-31.8.14l-49.12-69.65c-11.2-15.88-27.06-28.16-45.63-33.87-37.47-11.53-76.3,2.9-97.47,33.34l-130.74,188.06c-15.23,21.9-40.21,34.96-66.88,34.96H31.9c-1.28,0-2.32,1.04-2.32,2.32,0,1.12,0,2.45,0,3.56,0,1.26,1,2.24,2.26,2.28,23.38.71,45.09,12.47,58.46,31.76l41.75,60.24c11.98,17.29,29.49,30.36,49.88,35.53,35.5,9,71.57-5.25,91.55-34.06l41.31-59.54c7.72-11.12,24.16-11.12,31.88,0l41.43,59.71c15.89,22.9,42,36.56,69.87,36.56h0c27.87,0,53.98-13.66,69.87-36.56l41.43-59.72c7.72-11.12,24.16-11.12,31.88,0l138.66,199.83c16.38,23.61,43.29,37.69,72.02,37.69h0c28.73,0,55.64-14.08,72.02-37.69l140.15-201.98c13.76-19.83,36.35-31.7,60.49-31.76l19.28-.05h64.33c1.29,0,2.33-1.04,2.32-2.33v-3.54Z"/>
</svg>