<?xml version="1.0" encoding="UTF-8"?>
<svg id="Layer_1" data-name="Layer 1" xmlns="http://www.w3.org/2000/svg" viewBox="0 0 1200 340">
  <defs>
    <style>
      .cls-1 {
        stroke-width: 0px;
      }
    </style>
  </defs>
  <path class="cls-1" d="m454.26,191.52c0-.47-.38-.84-.84-.85-9.62-.27-18.56-5.09-24.07-13.02l-82.3-118.6c-6-8.65-15.86-13.81-26.39-13.81h0c-10.54,0-20.41,5.17-26.41,13.84l-51.68,74.66c-2.86,4.13-8.95,4.15-11.84.05l-18.29-25.93c-4.17-5.91-10.07-10.48-16.98-12.61-13.95-4.29-28.4,1.08-36.28,12.41l-48.67,70c-5.67,8.15-14.97,13.01-24.9,13.02H30.44c-.48,0-.87.39-.87.86,0,.42,0,.91,0,1.32,0,.47.37.84.84.85,8.7.27,16.79,4.64,21.76,11.82l15.54,22.42c4.46,6.44,10.98,11.3,18.57,13.23,13.22,3.35,26.64-1.96,34.08-12.68l15.38-22.17c2.87-4.14,8.99-4.14,11.87,0l15.42,22.23c5.92,8.53,15.63,13.61,26.01,13.61h0c10.38,0,20.09-5.09,26.01-13.61l15.42-22.23c2.87-4.14,8.99-4.14,11.87,0l51.62,74.39c6.1,8.79,16.11,14.03,26.81,14.03h0c10.7,0,20.71-5.24,26.81-14.03l52.17-75.19c5.12-7.38,13.53-11.8,22.52-11.82l7.18-.02h23.95c.48,0,.87-.39.87-.87v-1.32Z"/>
  <g>
    <path class="cls-1" d="m547.96,193.93h-14.41v-51.47h12.87l1.34,8.13c4.32-5.97,10.81-9.68,18.43-9.68,10.19,0,18.32,5.56,22.44,14.62,4.01-8.96,11.74-14.62,21.21-14.62,14.82,0,25.43,11.84,25.43,29.03v23.99h-14.41v-23.99c0-9.27-6.08-15.75-14.72-15.75s-14.52,6.49-14.52,15.75v23.99h-14.41v-23.99c0-9.27-6.08-15.75-14.72-15.75s-14.52,6.49-14.52,15.75v23.99Z"/>
    <path class="cls-1" d="m697.96,193.93l-1.44-6.79c-5.25,5.25-12.76,8.34-21.51,8.34-17.09,0-29.96-11.63-29.96-27.18s12.77-27.38,29.96-27.38c8.65,0,16.26,2.99,21.51,8.34l1.44-6.79h12.77v51.47h-12.77Zm-19.87-11.22c10.91,0,18.22-5.87,18.22-14.41s-7.41-14.72-18.22-14.72-18.63,6.18-18.63,14.72,7.83,14.41,18.63,14.41Z"/>
    <path class="cls-1" d="m771.99,185.8c-5.25,4.94-12.77,7.82-21.31,7.82-17.09,0-29.96-11.01-29.96-26.15s12.77-26.56,29.96-26.56c8.75,0,16.26,2.88,21.51,8.03l1.44-6.49h12.77v50.03c0,15.75-13.28,27.18-31.4,27.18-16.57,0-28.93-8.75-32.22-21h14.41c3.29,5.15,9.68,8.44,17.4,8.44,10.29,0,17.4-5.87,17.4-14.62v-6.69Zm-18.22-4.84c10.91,0,18.22-5.56,18.22-13.59s-7.41-13.79-18.22-13.79-18.63,5.66-18.63,13.79,7.83,13.59,18.63,13.59Z"/>
    <path class="cls-1" d="m800.21,193.93v-51.47h14.41v51.47h-14.41Zm7.2-73.6c3.91,0,6.59,2.78,6.59,6.59,0,4.12-2.68,6.69-6.59,6.69-4.12,0-6.79-2.58-6.79-6.69,0-3.81,2.68-6.59,6.79-6.59Z"/>
    <path class="cls-1" d="m856.31,182.3c7.82,0,13.59-3.09,15.95-8.44h14.93c-2.68,13.08-14.93,21.62-30.88,21.62-18.02,0-31.5-11.63-31.5-27.18s13.38-27.38,31.5-27.38c15.85,0,28,8.34,30.78,21.52h-14.93c-2.37-5.25-8.13-8.44-15.85-8.44-9.88,0-17.09,5.97-17.09,14.31s7.31,14,17.09,14Z"/>
    <path class="cls-1" d="m906.14,142.46l12.87,32.02,12.87-32.02h15.34l12.87,32.12,12.87-32.12h15.65l-20.69,51.47h-15.54l-12.76-32.12-12.77,32.12h-15.65l-20.59-51.47h15.54Z"/>
    <path class="cls-1" d="m1021.66,140.92c18.32,0,31.6,11.02,31.6,27.38s-13.28,27.18-31.6,27.18-31.5-11.63-31.5-27.18,13.38-27.38,31.5-27.38Zm0,41.18c10.29,0,17.19-5.76,17.19-13.79s-6.89-14.1-17.19-14.1-17.09,5.87-17.09,14.1,7.31,13.79,17.09,13.79Z"/>
    <path class="cls-1" d="m1101.96,156.15c-15.34,0-24.3,8.75-24.3,23.16v14.62h-14.41v-51.47h12.87l1.54,13.38c4.73-9.16,13.28-14.93,24.3-14.93v15.24Z"/>
    <path class="cls-1" d="m1125.33,193.93h-14.41v-72.06h14.41v39.84h6.38l17.71-19.25h18.94l-23.57,25.74,25.63,25.74h-19.56l-19.25-19.15h-6.28v19.15Z"/>
  </g>
</svg>