<?xml version="1.0" encoding="UTF-8"?>
<svg id="Layer_1" data-name="Layer 1" xmlns="http://www.w3.org/2000/svg" viewBox="0 0 1200 1200">
  <defs>
    <style>
      .cls-1 {
        stroke-width: 0px;
      }
    </style>
  </defs>
  <path class="cls-1" d="m1143.09,485.62c0-1.2-.96-2.15-2.16-2.18-24.6-.68-47.48-13.02-61.55-33.31l-210.49-303.35c-15.35-22.13-40.57-35.32-67.5-35.32h0c-26.96,0-52.21,13.23-67.55,35.4l-132.19,190.95c-7.31,10.55-22.88,10.62-30.28.13l-46.77-66.31c-10.66-15.12-25.76-26.81-43.44-32.25-35.68-10.98-72.65,2.76-92.8,31.74l-124.48,179.05c-14.5,20.85-38.28,33.29-63.68,33.29H59.12c-1.22,0-2.21.99-2.21,2.21,0,1.06,0,2.33,0,3.39,0,1.2.95,2.14,2.15,2.17,22.26.68,42.93,11.87,55.66,30.24l39.75,57.35c11.41,16.46,28.07,28.91,47.49,33.83,33.8,8.57,68.14-5,87.16-32.42l39.34-56.69c7.35-10.59,23-10.59,30.35,0l39.45,56.85c15.13,21.8,39.98,34.81,66.52,34.81h0c26.54,0,51.39-13.01,66.52-34.81l39.45-56.85c7.35-10.59,23-10.59,30.35,0l132.01,190.25c15.6,22.48,41.22,35.88,68.57,35.88h0c27.36,0,52.98-13.41,68.57-35.88l133.43-192.3c13.1-18.88,34.61-30.18,57.6-30.24l18.36-.05h61.25c1.22,0,2.22-.99,2.21-2.22v-3.37Z"/>
  <g>
    <path class="cls-1" d="m81.48,1044.64h-24.58v-87.79h21.95l2.28,13.87c7.38-10.18,18.44-16.51,31.43-16.51,17.39,0,31.25,9.48,38.27,24.93,6.85-15.27,20.01-24.93,36.17-24.93,25.28,0,43.37,20.19,43.37,49.51v40.91h-24.58v-40.91c0-15.8-10.36-26.86-25.11-26.86s-24.76,11.06-24.76,26.86v40.91h-24.58v-40.91c0-15.8-10.36-26.86-25.11-26.86s-24.76,11.06-24.76,26.86v40.91Z"/>
    <path class="cls-1" d="m337.31,1044.64l-2.46-11.59c-8.95,8.95-21.77,14.22-36.69,14.22-29.14,0-51.1-19.84-51.1-46.35s21.77-46.7,51.1-46.7c14.75,0,27.74,5.09,36.69,14.22l2.46-11.59h21.77v87.79h-21.77Zm-33.89-19.14c18.61,0,31.08-10.01,31.08-24.58s-12.64-25.11-31.08-25.11-31.78,10.54-31.78,25.11,13.35,24.58,31.78,24.58Z"/>
    <path class="cls-1" d="m463.56,1030.77c-8.96,8.43-21.77,13.34-36.34,13.34-29.14,0-51.1-18.79-51.1-44.59s21.77-45.3,51.1-45.3c14.92,0,27.74,4.92,36.69,13.7l2.46-11.06h21.77v85.33c0,26.86-22.65,46.35-53.55,46.35-28.26,0-49.34-14.92-54.95-35.82h24.58c5.62,8.78,16.51,14.4,29.67,14.4,17.56,0,29.67-10.01,29.67-24.93v-11.41Zm-31.08-8.25c18.61,0,31.08-9.48,31.08-23.18s-12.64-23.53-31.08-23.53-31.78,9.66-31.78,23.53,13.35,23.18,31.78,23.18Z"/>
    <path class="cls-1" d="m511.69,1044.64v-87.79h24.58v87.79h-24.58Zm12.29-125.53c6.67,0,11.24,4.74,11.24,11.24,0,7.02-4.57,11.41-11.24,11.41-7.02,0-11.59-4.39-11.59-11.41,0-6.5,4.57-11.24,11.59-11.24Z"/>
    <path class="cls-1" d="m607.38,1024.8c13.34,0,23.17-5.27,27.21-14.4h25.46c-4.57,22.3-25.46,36.87-52.67,36.87-30.73,0-53.73-19.84-53.73-46.35s22.83-46.7,53.73-46.7c27.03,0,47.75,14.22,52.49,36.7h-25.46c-4.04-8.95-13.87-14.4-27.03-14.4-16.86,0-29.15,10.18-29.15,24.4s12.47,23.88,29.15,23.88Z"/>
    <path class="cls-1" d="m692.36,956.86l21.95,54.6,21.95-54.6h26.16l21.95,54.78,21.95-54.78h26.69l-35.29,87.79h-26.51l-21.77-54.78-21.77,54.78h-26.69l-35.11-87.79h26.51Z"/>
    <path class="cls-1" d="m889.38,954.22c31.25,0,53.9,18.79,53.9,46.7s-22.65,46.35-53.9,46.35-53.73-19.84-53.73-46.35,22.83-46.7,53.73-46.7Zm0,70.23c17.56,0,29.32-9.83,29.32-23.53s-11.76-24.05-29.32-24.05-29.15,10.01-29.15,24.05,12.47,23.53,29.15,23.53Z"/>
    <path class="cls-1" d="m1026.34,980.21c-26.16,0-41.44,14.92-41.44,39.5v24.93h-24.58v-87.79h21.95l2.63,22.83c8.07-15.63,22.65-25.46,41.44-25.46v25.98Z"/>
    <path class="cls-1" d="m1066.2,1044.64h-24.58v-122.9h24.58v67.95h10.88l30.2-32.83h32.3l-40.21,43.89,43.72,43.89h-33.36l-32.84-32.66h-10.71v32.66Z"/>
  </g>
</svg>