<?xml version="1.0" encoding="UTF-8"?>
<svg id="Layer_2" data-name="Layer 2" xmlns="http://www.w3.org/2000/svg" viewBox="0 0 64.71 45.5">
  <defs>
    <style>
      .cls-1 {
        isolation: isolate;
        opacity: .2;
      }

      .cls-1, .cls-2, .cls-3, .cls-4 {
        stroke-width: 0px;
      }

      .cls-2 {
        fill: #6f6380;
      }

      .cls-3 {
        fill: #1e2d2e;
      }

      .cls-4 {
        fill: #bdb2cd;
      }
    </style>
  </defs>
  <g id="Layer_2-2" data-name="Layer 2">
    <g>
      <polygon class="cls-3" points="33.72 25.45 29.25 25.45 29.25 25.59 29.95 25.59 29.95 26.96 30.09 26.96 30.09 25.59 32.81 25.59 32.81 26.96 32.95 26.96 32.95 25.59 33.72 25.59 33.72 25.45"/>
      <polygon class="cls-3" points="35.38 21.92 34.23 21.92 34.23 23.07 34.76 23.07 34.76 26.96 34.9 26.96 34.9 23.07 35.38 23.07 35.38 21.92"/>
      <rect class="cls-3" x="29.26" y="25.02" width="4.47" height=".14"/>
      <rect class="cls-3" x="29.26" y="24.66" width="4.47" height=".14"/>
      <rect class="cls-3" x="29.26" y="24.3" width="4.47" height=".14"/>
      <path class="cls-3" d="m45.18,27.38h-.14c0-6.84-5.56-12.4-12.4-12.4s-12.4,5.56-12.4,12.4h-.14c0-6.92,5.63-12.54,12.54-12.54,6.92,0,12.54,5.63,12.54,12.54Z"/>
      <circle class="cls-4" cx="11.79" cy="11.79" r="11.79"/>
      <path class="cls-1" d="m20.55,3.91c2.56,5.99-.22,12.91-6.21,15.47-4.66,1.99-10.07.78-13.44-3,2.56,5.99,9.49,8.77,15.47,6.21,5.99-2.56,8.77-9.49,6.21-15.47-.5-1.17-1.19-2.26-2.04-3.21Z"/>
      <polygon class="cls-3" points="11.82 11.79 11.85 11.79 12.43 45.21 11.2 45.21 11.82 11.79"/>
      <rect class="cls-3" x="11.75" y="29.95" width="2.2" height=".58" transform="translate(-12.61 9.47) rotate(-27.77)"/>
      <circle class="cls-4" cx="55.17" cy="16.79" r="9.54"/>
      <path class="cls-1" d="m62.27,10.42c2.07,4.85-.18,10.45-5.02,12.52-3.77,1.61-8.15.63-10.87-2.43,2.07,4.85,7.68,7.09,12.52,5.02,4.85-2.07,7.09-7.68,5.02-12.52-.41-.95-.96-1.83-1.65-2.6Z"/>
      <polygon class="cls-3" points="55.2 16.79 55.23 16.79 55.7 43.84 54.7 43.84 55.2 16.79"/>
      <rect class="cls-3" x="55.15" y="31.49" width="1.78" height=".47" transform="translate(-8.33 29.76) rotate(-27.77)"/>
      <circle class="cls-2" cx="27.02" cy="23.5" r="1.5"/>
      <path class="cls-1" d="m28.14,22.5c.33.76-.03,1.65-.79,1.97-.59.25-1.28.1-1.71-.38.33.76,1.21,1.12,1.97.79.76-.33,1.12-1.21.79-1.97-.06-.15-.15-.29-.26-.41Z"/>
      <polygon class="cls-3" points="27.03 23.5 27.03 23.5 27.1 27.76 26.95 27.76 27.03 23.5"/>
      <rect class="cls-3" x="27.02" y="25.82" width=".28" height=".07" transform="translate(-8.92 15.63) rotate(-27.77)"/>
      <circle class="cls-3" cx="40.9" cy="18.66" r="3.84"/>
      <path class="cls-1" d="m43.76,16.09c.83,1.95-.07,4.21-2.02,5.05-1.52.65-3.28.26-4.38-.98.83,1.95,3.09,2.86,5.05,2.02,1.95-.83,2.86-3.09,2.02-5.05-.16-.38-.39-.74-.66-1.05h0Z"/>
      <polygon class="cls-3" points="40.91 18.66 40.92 18.66 41.11 29.56 40.71 29.56 40.91 18.66"/>
      <rect class="cls-3" x="40.89" y="24.59" width=".72" height=".19" transform="translate(-6.75 22.06) rotate(-27.77)"/>
      <path class="cls-3" d="m14.43,43.54s.05-1.04,1.07-.92"/>
      <circle class="cls-2" cx="14.14" cy="42.04" r=".51"/>
      <rect class="cls-3" x="14.06" y="42.9" width=".14" height="1.01"/>
      <path class="cls-3" d="m18.03,41.16s.05-1.04,1.07-.92"/>
      <circle class="cls-2" cx="17.75" cy="39.66" r=".51"/>
      <rect class="cls-3" x="17.66" y="40.52" width=".14" height="1.01"/>
      <path class="cls-3" d="m28.9,33.09s.04-.83.85-.73"/>
      <circle class="cls-2" cx="28.67" cy="31.9" r=".41"/>
      <rect class="cls-3" x="28.6" y="32.58" width=".11" height=".8"/>
      <path class="cls-3" d="m44.76,30.5s.04-.83.85-.73"/>
      <circle class="cls-2" cx="44.53" cy="29.3" r=".41"/>
      <rect class="cls-3" x="44.46" y="29.99" width=".11" height=".8"/>
      <path class="cls-3" d="m29.62,35.25s.04-.83.85-.73"/>
      <circle class="cls-2" cx="29.39" cy="34.06" r=".41"/>
      <rect class="cls-3" x="29.33" y="34.74" width=".11" height=".8"/>
      <path class="cls-3" d="m27.89,36.84s.04-.83.85-.73"/>
      <circle class="cls-2" cx="27.66" cy="35.65" r=".41"/>
      <rect class="cls-3" x="27.6" y="36.33" width=".11" height=".8"/>
      <path class="cls-3" d="m47.21,31.87s.04-.83.85-.73"/>
      <circle class="cls-2" cx="46.98" cy="30.67" r=".41"/>
      <rect class="cls-3" x="46.92" y="31.35" width=".11" height=".8"/>
      <path class="cls-3" d="m23.85,33.67s.04-.83.85-.73"/>
      <circle class="cls-2" cx="23.62" cy="32.47" r=".41"/>
      <rect class="cls-3" x="23.56" y="33.16" width=".11" height=".8"/>
      <path class="cls-3" d="m42.6,29.56s.04-.83.85-.73"/>
      <circle class="cls-2" cx="42.37" cy="28.36" r=".41"/>
      <rect class="cls-3" x="42.3" y="29.05" width=".11" height=".8"/>
      <path class="cls-3" d="m8.16,43.76s.05-1.04,1.07-.92"/>
      <circle class="cls-2" cx="7.87" cy="42.25" r=".51"/>
      <rect class="cls-3" x="7.79" y="43.11" width=".14" height="1.01"/>
      <path class="cls-3" d="m57.83,43.47s.05-1.04,1.07-.92"/>
      <circle class="cls-2" cx="57.54" cy="41.97" r=".51"/>
      <rect class="cls-3" x="57.46" y="42.83" width=".14" height="1.01"/>
      <path class="cls-3" d="m53.65,41.02s.05-1.04,1.07-.92"/>
      <circle class="cls-2" cx="53.36" cy="39.51" r=".51"/>
      <rect class="cls-3" x="53.28" y="40.38" width=".14" height="1.01"/>
      <path class="cls-3" d="m53.07,44.7s.05-1.04,1.07-.92"/>
      <circle class="cls-2" cx="52.78" cy="43.19" r=".51"/>
      <rect class="cls-3" x="52.7" y="44.05" width=".14" height="1.01"/>
      <path class="cls-2" d="m8.99,45.47s22.71-5.98,22.49-12.11c-.4-1.69-3.14-2.13-3.14-2.13,0,0-6.49-.87-2.96-2.96,3.53-2.09,13.19-1.59,13.19-1.59,0,0-9.95,1.59-5.55,2.45,3.53.22,8.07,1.15,8.07,1.15,0,0,9.23,1.95,10.53,6.7s.22,8.43.22,8.43l-42.86.04Z"/>
      <path class="cls-4" d="m33.72,45.5l-.09-.12c.12-.09.24-.17.35-.26l.09.12c-.12.09-.24.17-.36.26Z"/>
      <path class="cls-4" d="m34.78,44.72l-.09-.12c.24-.18.47-.36.69-.53l.09.11c-.22.18-.46.36-.69.54Zm1.38-1.09l-.09-.11c.23-.19.45-.38.66-.57l.1.11c-.21.19-.44.38-.67.57Zm1.32-1.16l-.1-.11c.22-.2.43-.41.62-.61l.1.1c-.2.2-.41.41-.63.61Zm1.23-1.25l-.11-.1c.2-.22.39-.45.56-.66l.11.09c-.18.22-.37.45-.57.67Zm1.09-1.38l-.12-.08c.17-.25.32-.5.46-.74l.13.07c-.13.25-.29.5-.46.75Zm.84-1.55l-.14-.05c.11-.27.19-.54.25-.82l.14.03c-.06.29-.15.57-.26.85h0Zm.2-1.73c0-.28-.04-.57-.12-.84l.14-.04c.08.29.12.58.12.88h-.15Zm-.44-1.63c-.14-.25-.3-.49-.49-.71l.11-.09c.19.23.36.47.5.73l-.13.07Zm-1.09-1.32c-.22-.19-.44-.37-.68-.54l.08-.12c.24.17.47.35.69.55l-.1.11Zm-1.41-1.01c-.24-.14-.5-.28-.77-.42l.07-.13c.27.14.53.28.77.42l-.07.13Zm-1.56-.79c-.25-.11-.53-.23-.81-.34l.05-.14c.28.11.55.23.81.34l-.06.13Zm-1.62-.65c-.26-.09-.54-.19-.83-.29l.05-.14c.29.1.57.19.83.29l-.05.14Zm-1.66-.56c-.25-.08-.53-.16-.84-.26l.04-.14c.31.09.58.18.84.26l-.04.14Zm-1.68-.51c-.3-.09-.58-.17-.84-.25l.04-.14c.26.08.54.17.84.25l-.04.14Zm-1.68-.53c-.28-.09-.56-.2-.82-.33l.07-.13c.26.12.53.23.8.32l-.05.14Zm-1.1-.96l-.1-.1c.13-.14.4-.27.81-.4l.05.14c-.38.13-.63.25-.75.37h0Zm1.58-.61l-.04-.14c.25-.06.54-.13.86-.2l.03.14c-.31.07-.6.13-.85.19h0Zm1.71-.37l-.03-.14c.27-.05.56-.1.86-.16l.03.14c-.3.05-.59.11-.86.16h0Zm1.72-.31l-.02-.14c.28-.05.56-.09.86-.14l.02.14c-.3.05-.59.1-.86.14Z"/>
      <path class="cls-4" d="m35.35,27.05l-.02-.14c.14-.02.29-.04.43-.07l.02.14c-.15.02-.29.04-.43.07Z"/>
      <path class="cls-3" d="m38.58,12.21l.66-.53c-.52-.06-.73.22-.81.45-.4-.17-.84.05-.84.05l1.33.48c-.07-.18-.18-.34-.34-.45Z"/>
      <path class="cls-3" d="m26.25,16.32l.66-.53c-.52-.06-.73.22-.81.45-.4-.17-.84.05-.84.05l1.33.48c-.07-.18-.18-.34-.34-.45Z"/>
      <path class="cls-3" d="m29.5,7.81l.66-.53c-.52-.06-.73.22-.81.45-.4-.17-.84.05-.84.05l1.33.48c-.07-.18-.18-.34-.34-.45Z"/>
      <path class="cls-4" d="m36.71,31.44s-.57,0-.64.35-.16,4.18-.1,4.66.06.38.06.38c0,0-.13.91.16.95s.29-1.05.29-1.05l.22-3.9v-1.41Z"/>
      <path class="cls-4" d="m39.2,31.44s.57,0,.64.35.16,4.18.1,4.66-.06.38-.06.38c0,0,.13.91-.16.95s-.29-1.05-.29-1.05l-.22-3.9v-1.41Z"/>
      <path class="cls-3" d="m36.62,44.79h-.26c-.32,0-.57.26-.57.57h0s1.56,0,1.56,0v-.73h-.73v.16Z"/>
      <path class="cls-3" d="m39.07,44.79h.26c.32,0,.57.26.57.57h0s-1.56,0-1.56,0v-.73h.73v.16Z"/>
      <circle class="cls-4" cx="37.7" cy="29.88" r=".83"/>
      <path class="cls-4" d="m37.51,30.33s-.1,1.05-.22,1.15,1.34-.06,1.34-.06c0,0-.51-.77-.42-1.02s-.7-.06-.7-.06Z"/>
      <path class="cls-3" d="m39.39,31.44s-1.76-.73-2.91,0c0,0-.29.73-.06,1.15s.57,1.41.22,2.08.03.38.03.38c0,0-.45,1.79-.51,3.19-.06,1.41.19,6.45.38,6.48s.8.1.86,0,.51-6.77.51-6.77c0,0,.19,6.83.38,6.83s.7,0,.8-.16.89-6.32.61-7.6-.48-1.92-.48-1.92c0,0,.35-.22.26-.35s-.57-1.5-.35-1.72.26-1.6.26-1.6Z"/>
      <circle class="cls-3" cx="38.23" cy="29.38" r="1.34"/>
      <path class="cls-3" d="m39.07,28.71c-.47-.11-.77-.57-.68-1.04,0,.01,0,.03-.01.04-.11.49.19.97.67,1.09.49.11.97-.19,1.09-.67,0-.01,0-.03,0-.04-.13.46-.61.74-1.08.63Z"/>
      <circle class="cls-3" cx="39.12" cy="28.23" r=".66"/>
    </g>
  </g>
</svg>