<?xml version="1.0" encoding="UTF-8"?>
<svg id="Layer_2" data-name="Layer 2" xmlns="http://www.w3.org/2000/svg" viewBox="0 0 64.96 49.54">
  <defs>
    <style>
      .cls-1 {
        fill: #94d1c4;
      }

      .cls-1, .cls-2, .cls-3 {
        stroke-width: 0px;
      }

      .cls-2 {
        fill: #1e2d2e;
      }

      .cls-3 {
        fill: #fcf8f2;
      }
    </style>
  </defs>
  <g id="Layer_2-2" data-name="Layer 2">
    <g>
      <polygon class="cls-1" points="41.72 45.79 40.77 46.07 41.81 48.44 42.45 48.25 41.72 45.79"/>
      <path class="cls-2" d="m42.8,48.82l-2.06.62v-.03c-.14-.44.11-.91.55-1.04h0s1.26-.38,1.26-.38l.25.83Z"/>
      <polygon class="cls-1" points="37.27 46.36 36.35 46.02 35.76 48.54 36.39 48.77 37.27 46.36"/>
      <path class="cls-2" d="m36.32,49.44l-2.02-.74v-.03c.17-.43.65-.66,1.08-.5h0s1.23.45,1.23.45l-.3.81Z"/>
      <polygon class="cls-2" points="39.92 44.61 41.17 47.92 42.47 47.54 41.38 43.96 39.92 44.61"/>
      <polygon class="cls-2" points="36.6 44.34 35.62 47.49 36.98 48.14 37.96 44.77 36.6 44.34"/>
      <path class="cls-2" d="m35.23,44.63h-.02s2.4-7.69,2.4-7.69c0-.11.57-1.76,1.28-3.52l.61-.61.33-.22.73.67.44,3.71s.01.1.03.28c.08.78.34,3.48.16,5.61l.39,1.38-.5.06v.83h-.02c-.86.16-1.72.24-2.59.24-1.14,0-2.41-.16-3.24-.75Z"/>
      <polygon class="cls-2" points="39.29 36.42 40.42 35.95 40.26 34.91 39.29 36.42"/>
      <path class="cls-2" d="m37.83,32.38v-1.13c0-.83.68-1.51,1.51-1.51.84,0,1.52.68,1.52,1.51v1.13c0,.11-.09.2-.2.2h-2.62c-.11,0-.2-.09-.2-.2Z"/>
      <circle class="cls-1" cx="39.05" cy="31.41" r="1.11"/>
      <path class="cls-2" d="m37.47,31.34c0-.66.54-1.2,1.2-1.2h.23c.66,0,1.2.54,1.2,1.2v.02h-.48l-.16-.46-.03.46h-.25l-.08-.23-.02.23h-1.6v-.02Z"/>
      <path class="cls-2" d="m38.92,32.71c-.05-.06-.05-.14-.02-.21.24-.46.57-1.3.13-1.82l-.03-.04h1.29v1.94s-1.17.21-1.17.21c-.01,0-.02,0-.04,0-.07,0-.13-.03-.16-.08Z"/>
      <path class="cls-2" d="m36.93,37.41l-.13-1.32h1.07l-.13,1.32s-.04.08-.08.07h-.64s-.08-.03-.08-.07Z"/>
      <path class="cls-2" d="m36.72,36.18v-.2s.04-.08.08-.08h1.06s.08.04.08.08v.2s-.04.08-.08.08h-1.06s-.08-.04-.08-.08Z"/>
      <path class="cls-2" d="m38.29,37.29l.24.12c.83.41,1.84.21,2.45-.49h0l-2.69.38Z"/>
      <path class="cls-1" d="m37.07,37.3c.16.23.48.29.71.13l1.59-.42-.36-.63-1.12.31s-.04-.05-.06-.07c-.21-.19-.53-.17-.72.04-.16.18-.18.44-.04.63Z"/>
      <path class="cls-2" d="m39.51,37.34l-1.11-.02-.2-.92.73-.08.53-.34.84-.39c-.07-.23-.56-2.01.07-2.24.15-.06.31-.05.45.02.33.17.46.66.47.68l.41,1.13c.04.05.43.59.37.99-.02.12-.08.22-.18.29-.86.61-1.58.92-2.11.92-.09,0-.19-.01-.28-.03Z"/>
      <path class="cls-1" d="m7.07,36.23l-.07,4.1-.93-.49-.17.32,1.09.57-.15,8.74h.75s-.24-13.24-.24-13.24c1.92-.03,3.76-.82,5.09-2.21.05-.05.09-.1.13-.14,0,0,0,0,0,0,.55-.6.99-1.29,1.31-2.03,0,0-.01.02-.02.02.38-.89.58-1.86.58-2.83,0-3.98-3.22-7.21-7.21-7.22-3.98,0-7.21,3.22-7.22,7.21,0,3.92,3.13,7.12,7.05,7.21Z"/>
      <path class="cls-1" d="m29.69,33.95l-.08,4.81-1.09-.57-.19.37,1.28.67-.18,10.24h.88s-.29-15.51-.29-15.51c2.25-.03,4.4-.97,5.96-2.59.05-.06.11-.11.16-.17,0,0,0,0,0,0,.64-.7,1.16-1.51,1.54-2.38,0,0-.02.02-.03.03.45-1.05.68-2.18.68-3.32,0-4.67-3.78-8.45-8.45-8.46-4.67,0-8.45,3.78-8.46,8.45,0,4.59,3.67,8.34,8.26,8.45Z"/>
      <path class="cls-1" d="m55.1,31.81l-.1,5.47-1.24-.65-.22.42,1.45.76-.2,11.65h1s-.32-17.65-.32-17.65c2.56-.04,5.01-1.1,6.78-2.95.06-.06.12-.13.18-.19,0,0,0,0,0,0,.73-.8,1.32-1.71,1.75-2.71,0,.01-.02.02-.03.03.51-1.19.77-2.48.77-3.78,0-5.31-4.3-9.62-9.61-9.62-5.31,0-9.62,4.3-9.62,9.61,0,5.23,4.17,9.5,9.4,9.61Z"/>
      <circle class="cls-3" cx="9.61" cy="6.29" r="6.29"/>
      <circle class="cls-2" cx="47" cy="13.73" r="12.61"/>
      <path class="cls-2" d="m58.49,8.74c2.74,6.4-.24,13.81-6.64,16.55-6.4,2.74-13.81-.24-16.55-6.64,3.6,4.04,9.39,5.34,14.37,3.21,6.4-2.74,9.37-10.15,6.64-16.55.91,1.02,1.64,2.18,2.18,3.43Z"/>
      <polygon class="cls-2" points="47.62 49.46 46.31 49.46 46.93 13.73 46.96 13.73 47.62 49.46"/>
      <rect class="cls-2" x="45.54" y="32.29" width=".62" height="2.35" transform="translate(-5.12 58.45) rotate(-62.23)"/>
      <path class="cls-2" d="m26.74,48.29c.93-.11.98.84.98.84"/>
      <circle class="cls-2" cx="27.98" cy="47.76" r=".47"/>
      <rect class="cls-2" x="27.93" y="48.54" width=".13" height=".92"/>
      <path class="cls-2" d="m59.08,48.16c.93-.11.98.84.98.84"/>
      <circle class="cls-2" cx="60.32" cy="47.62" r=".47"/>
      <rect class="cls-2" x="60.26" y="48.41" width=".13" height=".92"/>
      <path class="cls-2" d="m51.44,48.22c.93-.11.98.84.98.84"/>
      <circle class="cls-2" cx="52.68" cy="47.69" r=".47"/>
      <rect class="cls-2" x="52.62" y="48.48" width=".13" height=".92"/>
      <path class="cls-2" d="m31.62,6.73l1.87-.68s-.62-.31-1.19-.07c-.12-.31-.42-.71-1.15-.63l.94.75c-.22.16-.38.38-.47.63Z"/>
      <path class="cls-2" d="m17.39,14.35l1.87-.68s-.62-.31-1.19-.07c-.12-.31-.42-.71-1.15-.63l.94.75c-.22.16-.38.38-.47.63Z"/>
      <path class="cls-2" d="m32.74,20.86l1.87-.68s-.62-.31-1.19-.07c-.12-.31-.42-.71-1.15-.63l.94.75c-.22.16-.38.38-.47.63Z"/>
      <path class="cls-2" d="m13.97,48.63c.93-.11.98.84.98.84"/>
      <path class="cls-2" d="m22.73,48.63c.93-.11.98.84.98.84"/>
      <path class="cls-2" d="m54.67,48.63c.93-.11.98.84.98.84"/>
      <path class="cls-2" d="m10.02,48.63c.93-.11.98.84.98.84"/>
      <path class="cls-2" d="m11.86,48.63c.93-.11.98.84.98.84"/>
      <path class="cls-2" d="m17.62,48.63c-.93-.11-.98.84-.98.84"/>
      <path class="cls-2" d="m32.77,48.63c-.93-.11-.98.84-.98.84"/>
      <path class="cls-2" d="m45.35,48.63c-.93-.11-.98.84-.98.84"/>
      <path class="cls-2" d="m58.72,48.63c-.93-.11-.98.84-.98.84"/>
      <path class="cls-2" d="m8.01,48.63c-.93-.11-.98.84-.98.84"/>
      <path class="cls-2" d="m13.67,48.7c-.93-.11-.98.84-.98.84"/>
      <rect class="cls-2" x="0" y="49.35" width="64.96" height=".15"/>
    </g>
  </g>
</svg>