<?xml version="1.0" encoding="UTF-8"?>
<svg id="Layer_2" data-name="Layer 2" xmlns="http://www.w3.org/2000/svg" viewBox="0 0 123.36 61.2">
  <defs>
    <style>
      .cls-1 {
        opacity: .1;
      }

      .cls-1, .cls-2, .cls-3, .cls-4, .cls-5, .cls-6 {
        stroke-width: 0px;
      }

      .cls-1, .cls-6 {
        fill: #fff;
      }

      .cls-2 {
        fill: #1e2d2e;
      }

      .cls-3 {
        fill: #b2731c;
      }

      .cls-4 {
        fill: #fcf8f2;
      }

      .cls-5 {
        fill: #ffaf42;
      }
    </style>
  </defs>
  <g id="Layer_2-2" data-name="Layer 2">
    <g>
      <path class="cls-3" d="m0,61.2h123.36C123.1,27.35,95.58,0,61.68,0,27.78,0,.26,27.35,0,61.2Z"/>
      <circle class="cls-6" cx="66.12" cy="6.39" r=".61"/>
      <circle class="cls-6" cx="85.22" cy="26.47" r=".24"/>
      <circle class="cls-6" cx="49.33" cy="37.9" r=".24"/>
      <circle class="cls-6" cx="112.72" cy="34.86" r=".24"/>
      <circle class="cls-6" cx="17.82" cy="26.22" r=".24"/>
      <circle class="cls-6" cx="95.93" cy="28.78" r=".24"/>
      <circle class="cls-6" cx="56.02" cy="23.91" r=".24"/>
      <circle class="cls-6" cx="47.99" cy="6.39" r=".24"/>
      <rect class="cls-6" x="98.6" y="35.1" width=".24" height=".12"/>
      <rect class="cls-6" x="91.42" y="16.49" width=".24" height=".12"/>
      <rect class="cls-6" x="73.91" y="30.36" width=".24" height=".12"/>
      <rect class="cls-6" x="27.43" y="35.71" width=".24" height=".12"/>
      <rect class="cls-6" x="41.91" y="17.1" width=".24" height=".12"/>
      <rect class="cls-2" x="96.8" y="44.25" width=".43" height="16.91"/>
      <path class="cls-2" d="m97.08,30.6s4.16,4.81,4.13,10.73c-.03,5.91-4.23,10.69-4.23,10.69,0,0-4.16-4.81-4.13-10.73.03-5.91,4.23-10.69,4.23-10.69Z"/>
      <rect class="cls-2" x="102.08" y="39.23" width=".56" height="21.92"/>
      <path class="cls-2" d="m102.45,23.06s5.39,6.24,5.36,13.91c-.04,7.67-5.49,13.86-5.49,13.86,0,0-5.39-6.24-5.36-13.91.04-7.67,5.49-13.86,5.49-13.86Z"/>
      <rect class="cls-5" x="37.55" y="44.25" width=".43" height="16.91"/>
      <path class="cls-2" d="m37.83,35.71s4.16,4.81,4.13,10.73c-.03,5.91-4.23,10.69-4.23,10.69,0,0-4.16-4.81-4.13-10.73.03-5.91,4.23-10.69,4.23-10.69Z"/>
      <rect class="cls-2" x="107.02" y="44.25" width=".43" height="16.91"/>
      <path class="cls-2" d="m107.3,30.6s4.16,4.81,4.13,10.73-4.23,10.69-4.23,10.69c0,0-4.16-4.81-4.13-10.73.03-5.91,4.23-10.69,4.23-10.69Z"/>
      <rect class="cls-2" x="69.3" y="44.25" width=".43" height="16.91"/>
      <path class="cls-2" d="m69.59,30.6s4.16,4.81,4.13,10.73c-.03,5.91-4.23,10.69-4.23,10.69,0,0-4.16-4.81-4.13-10.73.03-5.91,4.23-10.69,4.23-10.69Z"/>
      <rect class="cls-2" x="74.59" y="39.23" width=".56" height="21.92"/>
      <path class="cls-2" d="m74.95,23.06s5.39,6.24,5.36,13.91-5.49,13.86-5.49,13.86c0,0-5.39-6.24-5.36-13.91.04-7.67,5.49-13.86,5.49-13.86Z"/>
      <rect class="cls-2" x="79.52" y="44.25" width=".43" height="16.91"/>
      <path class="cls-2" d="m79.8,30.6s4.16,4.81,4.13,10.73c-.03,5.91-4.23,10.69-4.23,10.69,0,0-4.16-4.81-4.13-10.73.03-5.91,4.23-10.69,4.23-10.69Z"/>
      <path class="cls-5" d="m37.73,57.13s4.2-4.77,4.23-10.69c0-.3,0-.6-.03-.9l-7.15,6.58c.73,1.8,1.73,3.49,2.95,5.01Z"/>
      <path class="cls-2" d="m87.84,57.83s-.84.56-1.08,1.47.2,1.81.2,1.81c0,0,.84-.56,1.08-1.47.25-.91-.2-1.81-.2-1.81Z"/>
      <path class="cls-2" d="m89.36,58.74s-.08,1.01-.75,1.66-1.68.71-1.68.71c0,0,.08-1.01.75-1.66s1.68-.71,1.68-.71Z"/>
      <path class="cls-5" d="m53.29,57.83s-.84.56-1.08,1.47.2,1.81.2,1.81c0,0,.84-.56,1.08-1.47.25-.91-.2-1.81-.2-1.81Z"/>
      <path class="cls-5" d="m54.81,58.74s-.08,1.01-.75,1.66-1.68.71-1.68.71c0,0,.08-1.01.75-1.66s1.68-.71,1.68-.71Z"/>
      <path class="cls-2" d="m115.09,57.83s-.84.56-1.08,1.47.2,1.81.2,1.81c0,0,.84-.56,1.08-1.47.25-.91-.2-1.81-.2-1.81Z"/>
      <path class="cls-2" d="m116.61,58.74s-.08,1.01-.75,1.66-1.68.71-1.68.71c0,0,.08-1.01.75-1.66.67-.65,1.68-.71,1.68-.71Z"/>
      <path class="cls-5" d="m74.95,23.06s-3.09,3.51-4.63,8.51c-.44-.62-.74-.97-.74-.97-.83.99-1.55,2.07-2.15,3.21l.51.19-.54-.13c-1.03,1.92-2.03,4.53-2.05,7.42,0,1.11.13,2.21.39,3.28l11.74-17.72c-.72-1.34-1.57-2.61-2.54-3.79Z"/>
      <path class="cls-6" d="m9.93,60.44c-.19,0-.35.16-.35.35,0,.19.16.35.35.35h2.88c.19,0,.35-.16.35-.35-.39-.19-.54-.66-.35-1.05h-2.88c-.19,0-.35.16-.35.35,0,.19.16.35.35.35h0Z"/>
      <path class="cls-2" d="m19.3,58.72c1.4,0,2.55.18,2.54,1,0,1.67-1.16,1.42-2.56,1.42s-2.55.49-2.51-1.42c.02-.82,1.13-1,2.53-1Z"/>
      <path class="cls-2" d="m13.45,60.63c.02.06.05.11.09.15.03.04.08.07.12.1.04.01.08.02.13.02.21.01.42,0,.62-.05.08-.02.15-.04.23-.05.05,0,.09,0,.14,0,.09,0,.19-.03.27-.07.02,0,.04-.02.05-.04,0-.02,0-.04,0-.05-.01-.09-.02-.18-.03-.27,0-.02-.01-.05-.03-.06,0,0,0,0,0,0,.02-.02.03-.04.05-.06.02-.02.04-.05.06-.08.01,0,.03.02.04.03.05.02.1.06.13.11.17-.08.31-.22.41-.38.1-.16.21-.31.34-.45.06-.05.12-.11.18-.17.07-.1.09-.24.19-.32.11-.07.24-.09.37-.06.45.04.9.05,1.36.03.03.04.08.07.13.07.02,0,.04,0,.06,0,.08-.02.17-.06.24-.1.05,0,.11,0,.16-.01.14,0,.27-.04.39-.11.12-.06.2-.19.19-.33,0,0,0-.01,0-.02.09-.05.18-.1.27-.14.02,0,.04,0,.06-.01.04-.03.05-.08.02-.12-.02-.11-.06-.21-.08-.31-.01-.07-.03-.13-.05-.19h0s-.03-.01-.03-.02c0,0,0-.02,0-.03,0-.01,0-.02,0-.03-.04-.07-.09-.14-.14-.21-.09-.12-.16-.26-.24-.39-.06-.11-.12-.22-.18-.33-.04-.09-.07-.17-.11-.26-.17-.29-.42-.53-.72-.67-.25-.13-.51-.24-.78-.33,0,0,.01,0,.02-.01.02-.03.03-.06.02-.09,0-.06.03-.27,0-.32-.02-.02-.03-.04-.04-.06-.03-.08.02-.17,0-.25-.02-.04-.04-.08-.08-.11-.04-.04-.08-.08-.13-.12-.03-.03-.07-.05-.11-.07-.16-.07-.34.02-.51-.01-.05-.01-.1-.02-.15-.03-.11,0-.21.07-.25.17-.01.03-.02.05-.04.08-.02.04-.05.07-.09.09-.03.01-.05.03-.07.05-.02.04-.03.08-.02.12,0,.05.02.11.05.15.03.04.07.08.12.09-.03.06-.04.13-.04.2,0,.3.25.54.55.54.02,0,.05,0,.07,0,.02.01.04.02.05.03.07.03.13.08.19.12.03.02.06.05.08.08,0,0,0,0-.01,0-.02.02-.03.05-.03.08,0,.12,0,.23-.01.35,0,.05,0,.1.02.15,0,.02,0,.04.02.06,0,.02.02.04.02.06,0,0,0,0,0,.01-.03.03-.04.07-.03.11,0,.02,0,.03.01.05,0,.02,0,.04-.02.06,0,0,0,0,0,0-.08-.01-.16-.02-.23-.03-.14-.02-.3-.02-.39.08-.05.07-.08.15-.09.23-.03.14-.08.27-.15.4-.05.07-.09.15-.13.23,0,.01,0,.03-.01.04h-.01c-.06.04-.12.08-.17.13-.05.06-.09.13-.12.21-.01.03-.02.05-.02.08,0,.03,0,.06.03.08.03.02.06.02.09.02.02,0,.04,0,.05,0-.1.23-.26.43-.46.59,0,0,0,.01,0,.02-.04.02-.08.04-.12.07,0-.03.03-.05.02-.08-.02-.06-.13-.02-.16,0-.03.03-.04.08-.07.11-.02.02-.04.04-.07.05-.06.03-.12.07-.18.1-.03.02-.06.03-.09.04-.03,0-.07.02-.1.02-.05,0-.1.02-.14.04-.03.01-.07.04-.07.08,0,.02,0,.04.02.05.08.08.19.12.31.12.12.01.24.02.36.02-.04.03-.08.07-.09.12,0,.01,0,.03,0,.04h0c-.09.06-.19.12-.28.18-.02.01-.03.02-.05.03,0,0,0,0-.01-.01-.05-.03-.11-.02-.15.01-.04.03-.08.07-.12.11-.09.09-.21.15-.33.19-.12.03-.25.06-.38.08-.03,0-.05.01-.07.02-.05.04-.07.1-.05.16Z"/>
      <path class="cls-5" d="m17,54.36c-.06-.02-.13-.03-.19-.02.02,0,.04.01.06.01.04,0,.09,0,.13,0Z"/>
      <path class="cls-5" d="m16.58,54.37s-.06,0-.08,0c-.05-.01-.1-.02-.15-.03-.11,0-.21.07-.25.17-.01.03-.02.05-.04.08-.02.04-.05.07-.09.09-.03.01-.05.03-.07.05-.02.04-.03.08-.02.12,0,.05.02.11.05.15.03.04.07.08.12.09-.03.06-.04.13-.04.2,0,.3.25.54.55.54.02,0,.05,0,.07,0,.02.01.04.02.05.03.07.03.13.08.19.12.03.02.06.05.08.08,0,0,0,0-.01,0-.02.02-.03.05-.03.08,0,.12,0,.23-.01.35,0,.05,0,.1.02.15,0,.02,0,.04.02.06,0,.02.02.04.02.06,0,0,0,0,0,.01-.03.03-.04.07-.03.11,0,.02,0,.03.01.05,0,0,0,.02,0,.02.04,0,.08,0,.12,0,.08,0,.16.02.23.03,0,0,0,0,0,0,0-.02.02-.04.02-.06,0-.02,0-.03-.01-.05,0-.04,0-.08.03-.11,0,0,0,0,0-.01,0-.02-.02-.04-.02-.06-.01-.02-.02-.04-.02-.06-.01-.05-.02-.1-.02-.15.02-.11.02-.23.01-.35,0-.03.01-.06.03-.08,0,0,0,0,.01,0-.02-.03-.05-.06-.08-.08-.06-.05-.12-.09-.19-.12-.02,0-.04-.02-.05-.03-.1.02-.2,0-.3-.03-.27-.12-.4-.43-.29-.7-.05-.01-.09-.04-.12-.09-.03-.05-.04-.1-.05-.15,0-.04,0-.08.02-.12.02-.02.04-.04.07-.05.04-.02.07-.05.09-.09.02-.03.03-.05.04-.08.03-.05.07-.1.13-.13Z"/>
      <path class="cls-5" d="m13.45,60.63c.02.06.05.11.09.15.03.04.08.07.12.1.04.01.08.02.13.02.11,0,.22,0,.33,0-.03,0-.06,0-.09-.02-.05-.02-.09-.06-.12-.1-.04-.04-.08-.09-.09-.15-.02-.06,0-.12.05-.16.02-.01.05-.02.07-.02.13-.02.25-.05.38-.08.12-.03.24-.1.33-.19.04-.04.07-.08.12-.11.04-.03.1-.04.15-.01,0,0,0,0,.01.01.02-.01.03-.02.05-.03.09-.06.19-.12.28-.18h0s0-.03,0-.05c.02-.05.05-.09.09-.12-.12,0-.24-.01-.36-.02-.11,0-.22-.04-.31-.12-.01-.01-.02-.03-.02-.05,0-.04.04-.06.07-.08.05-.02.09-.03.14-.04.03,0,.07-.01.1-.02.03-.01.06-.02.09-.04.06-.03.12-.07.18-.1.03-.01.05-.03.07-.05.03-.03.04-.08.07-.11.03-.03.14-.07.16,0,0,.02-.02.05-.02.08.04-.02.08-.05.12-.07,0,0,0-.01,0-.02.2-.16.35-.36.46-.59-.02,0-.04,0-.05,0-.03,0-.06,0-.09-.02-.02-.02-.03-.05-.03-.08,0-.03,0-.06.02-.08.03-.08.07-.15.12-.21.05-.05.11-.09.17-.12h.01s0-.03.01-.05c.04-.08.08-.16.13-.23.07-.12.12-.26.15-.4.01-.08.04-.16.09-.23.03-.03.07-.06.12-.07-.03,0-.06,0-.09-.01-.14-.02-.3-.02-.39.08-.05.07-.08.15-.09.23-.03.14-.08.27-.15.4-.05.07-.09.15-.13.23,0,.01,0,.03-.01.04h-.01c-.06.04-.12.08-.17.13-.05.06-.09.13-.12.21-.01.03-.02.05-.02.08,0,.03,0,.06.03.08.03.02.06.02.09.02.02,0,.04,0,.05,0-.1.23-.26.43-.46.59,0,0,0,.01,0,.02-.04.02-.08.04-.12.07,0-.03.03-.05.02-.08-.02-.06-.13-.02-.16,0-.03.03-.04.08-.07.11-.02.02-.04.04-.07.05-.06.03-.12.07-.18.1-.03.02-.06.03-.09.04-.03,0-.07.02-.1.02-.05,0-.1.02-.14.04-.03.01-.07.04-.07.08,0,.02,0,.04.02.05.08.08.19.12.31.12.12.01.24.02.36.02-.04.03-.08.07-.09.12,0,.01,0,.03,0,.04h0c-.09.06-.19.12-.28.18-.02.01-.03.02-.05.03,0,0,0,0-.01-.01-.05-.03-.11-.02-.15.01-.04.03-.08.07-.12.11-.09.09-.21.15-.33.19-.12.03-.25.06-.38.08-.03,0-.05.01-.07.02-.05.04-.07.1-.05.16Z"/>
      <path class="cls-5" d="m15.52,60.16s0,.01-.01.02c0,0,.01-.01.02-.02h0Z"/>
      <path class="cls-5" d="m11.37,55.42s1.28,2.45,1.28,3.73-.57.93-1.28.93-1.28.36-1.28-.93c0-1.29,1.28-3.73,1.28-3.73Z"/>
      <path class="cls-2" d="m11.37,57.95s.58,1.11.58,1.7c0,.59-.26.42-.58.42s-.58.16-.58-.42.58-1.7.58-1.7Z"/>
      <path class="cls-5" d="m9.5,55.16c0,.27.26.55.26.55"/>
      <path class="cls-5" d="m12.85,52.9c-.24.13-.35.5-.35.5"/>
      <path class="cls-5" d="m15.52,47.92c-.24.13-.35.5-.35.5"/>
      <path class="cls-5" d="m12.36,54.61c-.24.13-.35.5-.35.5"/>
      <path class="cls-5" d="m12.73,48.65c-.24.13-.35.5-.35.5"/>
      <path class="cls-5" d="m13.46,50.84c-.24.13-.35.5-.35.5"/>
      <path class="cls-5" d="m9.75,58.93c0,.27.26.55.26.55"/>
      <path class="cls-5" d="m9.26,56.87c0,.27.26.55.26.55"/>
      <rect class="cls-5" x="14.23" y="56.07" width=".12" height="3.08" transform="translate(-44.88 52.95) rotate(-71.57)"/>
      <path class="cls-5" d="m13.43,56.95c.17.03.4.07.24.36-.23.42-.2.27-.37.23s-.35.07-.24-.36c.07-.29.2-.27.37-.23Z"/>
      <polygon class="cls-1" points="24.97 61.14 54.77 61.14 80 23.06 86.67 13 86.21 12.9 80.65 9.95 69.73 19.99 69.73 19.99 58.43 30.38 58.48 30.4 58.43 30.42 57.37 31.38 57.35 31.38 54.69 33.82 54.69 33.82 54.69 33.82 24.97 61.14"/>
      <circle class="cls-4" cx="83.88" cy="11.26" r="3.28"/>
    </g>
  </g>
</svg>