<?xml version="1.0" encoding="UTF-8"?>
<svg id="Layer_2" data-name="Layer 2" xmlns="http://www.w3.org/2000/svg" viewBox="0 0 68.49 47.74">
  <defs>
    <style>
      .cls-1 {
        isolation: isolate;
        opacity: .2;
      }

      .cls-1, .cls-2, .cls-3, .cls-4 {
        stroke-width: 0px;
      }

      .cls-2 {
        fill: #1e2d2e;
      }

      .cls-3 {
        fill: #b2731c;
      }

      .cls-4 {
        fill: #ffaf42;
      }
    </style>
  </defs>
  <g id="Layer_2-2" data-name="Layer 2">
    <g>
      <polygon class="cls-4" points="14.32 1.97 14.62 26.66 27.55 32.96 27.25 8.27 14.32 1.97"/>
      <polygon class="cls-4" points="10.39 0 .73 19.83 13.84 26.22 13.54 1.53 10.39 0"/>
      <polygon class="cls-4" points="68.49 27.86 42.4 15.15 42.7 39.84 58.83 47.7 68.49 27.86"/>
      <polygon class="cls-4" points="28.42 8.27 28.72 32.96 41.64 39.25 41.35 14.57 28.42 8.27"/>
      <path class="cls-2" d="m32.91,27.97l-.37,8.18s.95,7.74.73,7.96-.8.66-.37,1.17,2.05.88,2.12.58.22-8.62.22-8.62l.51-9.86-2.85.58Z"/>
      <path class="cls-1" d="m32.91,27.97l-.37,8.18s.95,7.74.73,7.96-.8.66-.37,1.17,2.05.88,2.12.58.22-8.62.22-8.62l.51-9.86-2.85.58Z"/>
      <path class="cls-2" d="m33.28,45.14s-1.83,1.39-2.05,1.39-2.19.66-.8.95,4.75.15,4.82-.29-.22-1.77-.22-1.77l-1.75-.28Z"/>
      <path class="cls-1" d="m33.28,45.14s-1.83,1.39-2.05,1.39-2.19.66-.8.95,4.75.15,4.82-.29-.22-1.77-.22-1.77l-1.75-.28Z"/>
      <path class="cls-2" d="m28.75,21.84s-.8.29-.8.51-.73,3-.88,3.14-.22.8-.22.8c0,0-.73,1.68-.58,1.68s1.39-.29,1.46,0,.66-1.83.66-1.83l1.24-2.48-.88-1.83Z"/>
      <path class="cls-4" d="m26.26,28.27s.22,1.61.8,1.75,0-2.05,0-2.05l-.8.29Z"/>
      <path class="cls-4" d="m28.16,20.96s.44.95.66,1.46,2.26-1.31,2.26-1.31c0,0-1.1-.8-1.1-1.17s-1.83,1.02-1.83,1.02Z"/>
      <path class="cls-2" d="m7.09,44.71c.49,1.81,2.17,2.93,2.17,2.93,0,0,.88-1.81.39-3.63s-2.17-2.93-2.17-2.93c0,0-.88,1.81-.39,3.63Z"/>
      <path class="cls-3" d="m7.81,44.32c1.34,1.31,1.51,3.32,1.51,3.32,0,0-2.02-.11-3.36-1.42-1.34-1.31-1.51-3.32-1.51-3.32,0,0,2.02.11,3.36,1.42Z"/>
      <path class="cls-2" d="m24.51,47.7c-3.67,0-6.65-2.98-6.65-6.65,0-3.67,2.98-6.65,6.65-6.65s6.65,2.98,6.65,6.65c0,3.67-2.98,6.64-6.65,6.65Zm0-13.15c-3.59,0-6.5,2.91-6.5,6.5,0,3.59,2.91,6.5,6.5,6.5s6.5-2.91,6.5-6.5c0-3.59-2.91-6.5-6.5-6.5Z"/>
      <path class="cls-2" d="m44.96,47.7c-3.67,0-6.65-2.98-6.65-6.65s2.98-6.65,6.65-6.65,6.65,2.98,6.65,6.65c0,3.67-2.98,6.64-6.65,6.65Zm0-13.15c-3.59,0-6.5,2.91-6.5,6.5s2.91,6.5,6.5,6.5,6.5-2.91,6.5-6.5h0c0-3.59-2.91-6.5-6.5-6.5Z"/>
      <circle class="cls-2" cx="24.51" cy="41.05" r=".44"/>
      <circle class="cls-2" cx="45.11" cy="41.05" r=".44"/>
      <polygon class="cls-2" points="25.16 40.42 25.03 40.36 28.84 31.41 39.67 31.63 39.69 31.66 45.02 39.99 44.9 40.07 39.59 31.77 28.94 31.56 25.16 40.42"/>
      <polygon class="cls-2" points="36.54 42.09 39.34 32.19 39.48 32.23 36.74 41.91 44.08 40.98 44.1 41.12 36.54 42.09"/>
      <rect class="cls-2" x="32.22" y="32.14" width=".15" height="10.74" transform="translate(-17.03 33.34) rotate(-44.45)"/>
      <rect class="cls-2" x="39.09" y="30.6" width="1.67" height=".15" transform="translate(-.17 61.14) rotate(-74.77)"/>
      <polygon class="cls-2" points="29.11 30.99 28.97 30.95 29.31 29.44 28.09 29.44 28.09 28.49 28.23 28.49 28.23 29.29 29.49 29.29 29.11 30.99"/>
      <path class="cls-2" d="m37.44,28.41s0-.44.95-.22c.95.22,3.87.8,4.09.73s.15.44-.8.66c-.95.22-2.05-.29-2.26-.44s-1.97-.73-1.97-.73Z"/>
      <rect class="cls-3" x="32.91" y="41.49" width="1.9" height=".73"/>
      <path class="cls-2" d="m36.64,43.46c-.81,0-1.46-.65-1.46-1.46s.65-1.46,1.46-1.46,1.46.65,1.46,1.46c0,.81-.65,1.46-1.46,1.46Zm0-2.78c-.73,0-1.31.59-1.31,1.31s.59,1.31,1.31,1.31,1.31-.59,1.31-1.31h0c0-.73-.59-1.31-1.31-1.31Z"/>
      <circle class="cls-4" cx="28.82" cy="19.94" r="1.75"/>
      <path class="cls-2" d="m34.37,28.12s-5.04,2.92-4.97,3.87,3.87,6.14,3.87,6.14c0,0,.29,1.53.58,1.53s2.12.66,2.19.22-.58-.95-.51-1.24-3.21-5.62-3.21-5.62c0,0,7.04-2.63,5.56-4.89-1.47-2.26-3.52,0-3.52,0Z"/>
      <path class="cls-2" d="m34.52,39.37s-.88.22-1.02.51-2.7,1.24-1.97,1.46,4.97.29,5.11.15,0-1.84-.58-1.83-1.24.23-1.53-.28Z"/>
      <path class="cls-2" d="m28.82,22.64l1.64-2.01s1.86-.55,2.67.55c.8,1.1,3,3.8,3.73,4.38.73.58,1.75,2.85,1.39,2.92s-2.41-.8-3.21-.22c-.8.58-2.34.66-2.41.37s-4.46-5.19-4.46-5.84.47-.8.47-.8l.19.65Z"/>
      <rect class="cls-2" x="28.31" y="26.88" width=".44" height="2.78" rx=".22" ry=".22" transform="translate(-7.63 45.74) rotate(-70.53)"/>
      <path class="cls-4" d="m24.73,27.54s-2.56.73-2.34,1.53c.22.8,2.56-.95,2.56-.95l-.22-.58Z"/>
      <path class="cls-2" d="m31.38,21.18s-1.02.88-1.24,1.9-1.31,2.85-1.31,2.85l-4.46,1.46s-.29,1.39.15,1.39,5.33-1.02,5.48-1.24,3.29-4.38,3.29-4.38c0,0,.29-2.26-1.9-1.97Z"/>
      <path class="cls-2" d="m27.73,17.91s-.09.06-.15.08c-.06.01-.11-.03-.12-.09-.03.09-.09.17-.17.22-.08.04-.21,0-.23-.09-.01.07-.04.14-.09.19-.05.05-.14.06-.19,0,.04.2.01.41.03.61s.07.42.22.55c.22.19.56.15.86.11.04,0,.09,0,.13,0,.11.05.11.2.11.32.02.43.35.79.78.85.12.02.24-.01.33-.08.08-.07.13-.19.22-.24.16-.09.34.04.46.18s.23.31.4.33c.23.03.41-.2.5-.42.24-.62.23-1.31-.05-1.92-.49-1.06-2.15-1.23-3.03-.61Z"/>
      <path class="cls-2" d="m58.58,47.7l-.13-.07c1.69-3.26.78-7.49-.27-10.47-.72-2-1.63-3.93-2.72-5.75l.12-.08c1.1,1.83,2.02,3.77,2.74,5.78,1.06,3,1.97,7.28.26,10.59Z"/>
      <rect class="cls-2" x="56.79" y="33.89" width="5.27" height=".15" transform="translate(15.33 86.32) rotate(-79.64)"/>
      <rect class="cls-2" x="55.85" y="34.87" width=".15" height="7.18" transform="translate(-11.22 48.4) rotate(-42.94)"/>
      <rect class="cls-2" x="59.03" y="43.24" width="4.24" height=".15" transform="translate(-9.78 67.49) rotate(-54.14)"/>
      <circle class="cls-3" cx="60.27" cy="29.25" r=".73"/>
      <circle class="cls-2" cx="52.31" cy="34.88" r=".73"/>
      <circle class="cls-2" cx="55.52" cy="35.61" r=".73"/>
      <circle class="cls-3" cx="54.06" cy="38.46" r=".73"/>
      <circle class="cls-2" cx="63.19" cy="40.28" r=".73"/>
      <circle class="cls-2" cx="60.78" cy="41.09" r=".73"/>
      <circle class="cls-2" cx="62.46" cy="43.43" r=".73"/>
      <circle class="cls-2" cx="54.79" cy="30.13" r=".73"/>
      <rect class="cls-2" y="47.59" width="65.97" height=".15"/>
      <rect class="cls-3" x="2.85" y="30.19" width="7.16" height="7.16" transform="translate(-26.03 22.45) rotate(-60)"/>
      <path class="cls-2" d="m7.89,39.91c-.89,0-1.61-.72-1.61-1.61s.72-1.61,1.61-1.61,1.61.72,1.61,1.61h0c0,.89-.72,1.61-1.61,1.61Zm0-3.07c-.81,0-1.46.65-1.46,1.46s.65,1.46,1.46,1.46,1.46-.65,1.46-1.46h0c0-.81-.65-1.46-1.46-1.46Z"/>
    </g>
  </g>
</svg>