<?xml version="1.0" encoding="UTF-8"?>
<svg id="Layer_2" data-name="Layer 2" xmlns="http://www.w3.org/2000/svg" viewBox="0 0 75.29 50.92">
  <defs>
    <style>
      .cls-1 {
        isolation: isolate;
        opacity: .1;
      }

      .cls-2 {
        fill: none;
        stroke: #3f3d56;
        stroke-miterlimit: 10;
        stroke-width: .07px;
      }

      .cls-3, .cls-4, .cls-5, .cls-6, .cls-7 {
        stroke-width: 0px;
      }

      .cls-4 {
        fill: #1e2d2e;
      }

      .cls-5 {
        fill: #b2731c;
      }

      .cls-6 {
        fill: #fcf8f2;
      }

      .cls-7 {
        fill: #ffaf42;
      }
    </style>
  </defs>
  <g id="Layer_2-2" data-name="Layer 2">
    <g>
      <path class="cls-6" d="m54.57,11.87c.12-2.35,2.07-4.2,4.42-4.2.13,0,.27,0,.4.02,1.63-2.81,5.24-3.76,8.05-2.13.88.51,1.61,1.25,2.13,2.13.11,0,.22-.01.34-.01,2.36,0,4.3,1.85,4.42,4.2"/>
      <path class="cls-2" d="m55.49,11.53c.12-2.35,2.07-4.2,4.42-4.2.13,0,.27,0,.4.02,1.63-2.81,5.24-3.76,8.05-2.13.88.51,1.61,1.25,2.13,2.13.11,0,.22-.01.34-.01,2.36,0,4.3,1.85,4.42,4.2"/>
      <path class="cls-5" d="m5.19,36.84c.4-7.74,6.8-13.9,14.64-13.9.45,0,.89.02,1.32.06,5.41-9.3,17.33-12.46,26.63-7.05,2.92,1.7,5.34,4.12,7.04,7.04.37-.03.74-.05,1.11-.05,7.84,0,14.24,6.15,14.64,13.9"/>
      <path class="cls-2" d="m8.24,35.71c.4-7.74,6.8-13.9,14.64-13.9.45,0,.89.02,1.32.06,5.41-9.3,17.33-12.46,26.63-7.05,2.92,1.7,5.34,4.12,7.04,7.04.37-.03.74-.05,1.11-.05,7.84,0,14.24,6.15,14.64,13.9"/>
      <path class="cls-6" d="m0,10.12c.17-3.18,2.8-5.68,5.99-5.68.18,0,.36,0,.54.03C8.74.66,13.61-.63,17.41,1.58c1.19.69,2.18,1.68,2.88,2.88.15-.01.3-.02.45-.02,3.19,0,5.82,2.5,5.99,5.68"/>
      <path class="cls-2" d="m1.25,9.66c.17-3.18,2.8-5.68,5.99-5.68.18,0,.36,0,.54.03C9.99.2,14.86-1.09,18.66,1.12c1.19.69,2.18,1.68,2.88,2.88.15-.01.3-.02.45-.02,3.19,0,5.82,2.5,5.99,5.68"/>
      <path class="cls-7" d="m30.03,17.22s1.02,2.48-.51,3.07c0,0,2.19.95,2.7.73s.88-.73.88-.88-.51-.22-.51-.22c0,0-.95.07-.22-2.34l-2.34-.37Z"/>
      <circle class="cls-7" cx="31.19" cy="16.71" r="1.83"/>
      <ellipse class="cls-4" cx="29.99" cy="16.3" rx="1.61" ry="2.26"/>
      <ellipse class="cls-4" cx="28.82" cy="15.57" rx="1.61" ry="2.26"/>
      <ellipse class="cls-4" cx="27.21" cy="13.93" rx=".8" ry="1.13"/>
      <path class="cls-7" d="m33.02,19.85s.44-.88,2.05-1.31,4.75-5.7,4.75-5.7c0,0-.15-3.14.58-2.19.73.95.15,2.85.15,2.85l-1.89,3.26c-.35.61-.79,1.16-1.31,1.64-1.17,1.08-3.25,3-3.46,3-.29,0-.88-1.53-.88-1.53Z"/>
      <path class="cls-7" d="m30.46,32.34s.51,6.21.37,6.79-.58,1.75.15,5.19-.15,3.21-.15,3.21l2.34,1.02s-.8-3.94-.66-5.04.07-3.36.51-4.89.51-5.84.51-5.84l-3.07-.44Z"/>
      <g class="cls-1">
        <path class="cls-3" d="m30.46,32.34s.51,6.21.37,6.79-.58,1.75.15,5.19-.15,3.21-.15,3.21l2.34,1.02s-.8-3.94-.66-5.04.07-3.36.51-4.89.51-5.84.51-5.84l-3.07-.44Z"/>
      </g>
      <path class="cls-4" d="m33.08,47.77c-.18.13-.65.25-1.52-.67,0,0-.51-.73-.95,0s-.15.8.15,1.17,2.54,2.75,3.48,2.65c.03,0,.07-.01.1-.02.88-.29-.37-1.24-.37-1.24,0,0-.81-1.25-.82-1.84,0-.03-.02-.05-.05-.05-.01,0-.02,0-.03,0Z"/>
      <path class="cls-7" d="m28.71,31.61s-1.24,2.85-1.75,4.31c-.27.77-1.08,1.01-1.79,1.07-.88.07-1.73.33-2.5.75-1.02.57-2.42,1.23-3.3,1.1-1.53-.22-.29,2.19-.29,2.19,0,0,2.26-1.39,4.38-1.53,2.12-.15,4.38-.37,5.41-1.68s3.51-5.48,3.51-5.48l-3.65-.73Z"/>
      <path class="cls-4" d="m19.14,40.67s-.73-.51-.15-1.02.8-.95.8-.95c0,0-1.02-1.1-1.39-.51s-1.97,3.21-1.61,4.02.73,1.02,1.17.15,1.54-1.57,1.54-1.57l-.37-.11Z"/>
      <path class="cls-4" d="m32.73,20.21s-.24.49-2.5.02c-.61-.13-1.24.16-1.53.71-.28.57-.32,1.39.67,2.41,0,0,1.75,1.97.88,2.78s4.16-.51,4.16-.51c0,0-.66-.44-.07-1.75.46-1.03.42-1.62.07-2.07-.21-.28-.36-.61-.43-.95-.1-.49-.35-1.1-.95-1.15,0,0-.64-.04-.69.13s.54.31.39.38Z"/>
      <path class="cls-7" d="m30.06,21.76c-.02-.1-.03-.21-.05-.31-.04-.35-.21-1.21-.79-1.06-.73.18-1.53,2.01-1.53,2.01,0,0-.66,2.05-1.61,2.56s-3.58,3.14-3.58,3.14c0,0-2.19.58-1.39,1.17.8.58,1.83-.37,1.83-.37l2.58-1.55c.9-.54,1.68-1.27,2.28-2.14.54-.78,1.21-1.68,1.64-1.98.26-.17.45-.43.55-.72.08-.24.1-.5.06-.75Z"/>
      <path class="cls-4" d="m30.68,25.98s-3.36-.44-5.26,1.83c-1.9,2.26-3.29,1.61-3.14,1.97.15.37,7.16,4.68,11.25,4.16,2.49-.31,3.82-.6,4.47-.77.28-.07.53-.24.7-.47.1-.13.22-.24.36-.32.29-.19.37-.58.18-.88,0,0,0-.01-.01-.02-1.16-1.68-4.3-6.12-5.19-6.23-1.1-.15-3.36.73-3.36.73Z"/>
      <ellipse class="cls-4" cx="31.23" cy="14.73" rx="1.17" ry=".84"/>
      <path class="cls-7" d="m54.56,7.25c.07-.39.18-.77.3-1.14.13-.36.3-.67.49-.67.45,0-1.58-1.92-1.58-1.92,0,0-.13.24-.34.56-.16.24-.32.47-.51.69-.24.3-.53.57-.85.79-.9.56,2.48,1.69,2.48,1.69Z"/>
      <path class="cls-7" d="m60.53,14.73s4.52,2.86,3.13,3.33-3.7-2.89-3.7-2.89l.57-.44Z"/>
      <path class="cls-4" d="m54.46,8.23s2.17,1.58,2.8,2.78c.63,1.2,3.93,3.87,3.93,3.87,0,0-.68,1.34-1.01,1.26s-7.1-5.12-7.82-5.53c-.71-.41.37-2.93,2.1-2.39Z"/>
      <g class="cls-1">
        <path class="cls-4" d="m54.46,8.23s2.17,1.58,2.8,2.78c.63,1.2,3.93,3.87,3.93,3.87,0,0-.68,1.34-1.01,1.26s-7.1-5.12-7.82-5.53c-.71-.41.37-2.93,2.1-2.39Z"/>
      </g>
      <path class="cls-7" d="m60.88,11.08s5.08,1.69,3.84,2.48c-1.24.79-4.29-1.92-4.29-1.92l.45-.56Z"/>
      <path class="cls-7" d="m57.6,34.21s2.14-.9,1.92.45c-.23,1.35-1.24,2.6-1.24,3.27s-1.92,2.14-2.26,1.81.56-1.69.34-2.48-.45-2.6-.45-2.6l1.69-.45Z"/>
      <g class="cls-1">
        <path class="cls-3" d="m57.6,34.21s2.14-.9,1.92.45c-.23,1.35-1.24,2.6-1.24,3.27s-1.92,2.14-2.26,1.81.56-1.69.34-2.48-.45-2.6-.45-2.6l1.69-.45Z"/>
      </g>
      <path class="cls-7" d="m56.93,35.23s2.14-.9,1.92.45-1.24,2.6-1.24,3.27-1.92,2.14-2.26,1.81.56-1.69.34-2.48-.45-2.6-.45-2.6l1.69-.45Z"/>
      <path class="cls-4" d="m51.96,26.99s6.66,6.32,6.43,6.88-1.69,1.81-1.69,1.81c0,0-5.08-6.66-4.74-8.69Z"/>
      <g class="cls-1">
        <path class="cls-3" d="m51.96,26.99s6.66,6.32,6.43,6.88-1.69,1.81-1.69,1.81c0,0-5.08-6.66-4.74-8.69Z"/>
      </g>
      <path class="cls-4" d="m50.38,15.6s1.69,1.69,1.24,4.96.34,6.43,1.24,7.45c.9,1.02,4.63,6.88,4.63,6.88,0,0-1.58,2.6-2.82,1.24-1.24-1.35-4.96-6.88-4.96-6.88,0,0-3.38-6.66-3.72-8.46-.34-1.81-.45-4.63.45-5.19.9-.56,3.95,0,3.95,0Z"/>
      <g class="cls-1">
        <path class="cls-3" d="m53.18,4.44c1.32.27,1.19.33,2,.61,0-.01,0-.02.01-.04.12-.3.2.09.38.09.45,0-1.58-1.92-1.58-1.92,0,0-.08.14-.21.36-.04.06-.08.13-.13.2-.04.06-.08.12-.13.19l-.35.51Z"/>
      </g>
      <circle class="cls-7" cx="55.57" cy="3.86" r="2.14"/>
      <path class="cls-4" d="m51.62,5.44s3.27.34,3.95,1.81-4.17,8.58-4.51,8.69-5.08.68-5.08.68c0,0,.23-7.22,4.63-9.93,0,0,1.02-.45,1.02-1.24Z"/>
      <path class="cls-4" d="m53.43,6.23s2.48,1.02,3.38,2.03,4.74,2.82,4.74,2.82c0,0-.34,1.47-.68,1.47s-8.12-3.27-8.91-3.5-.34-2.93,1.47-2.82Z"/>
      <path class="cls-4" d="m55.4,4.14s.56-.56-.56-1.02c0,0,1.13-.45,1.35-1.13s1.02-1.81,1.69,0c.68,1.81,1.92,4.17-2.14,4.17,0,0-1.02.23-1.02-.68,0-.53.25-1.03.68-1.35Z"/>
    </g>
  </g>
</svg>