<?xml version="1.0" encoding="UTF-8"?>
<svg id="Layer_2" data-name="Layer 2" xmlns="http://www.w3.org/2000/svg" viewBox="0 0 79.15 59.79">
  <defs>
    <style>
      .cls-1 {
        isolation: isolate;
        opacity: .2;
      }

      .cls-1, .cls-2, .cls-3, .cls-4 {
        stroke-width: 0px;
      }

      .cls-2 {
        fill: #94d1c4;
      }

      .cls-3 {
        fill: #6da397;
      }

      .cls-4 {
        fill: #1e2d2e;
      }
    </style>
  </defs>
  <g id="Layer_2-2" data-name="Layer 2">
    <g>
      <polygon class="cls-2" points="79.15 47.7 54.02 57.62 48.52 59.79 36.63 55.65 26.48 52.11 25.64 51.81 24.4 48.68 19.49 36.24 17.02 30 16.28 28.12 15.74 26.76 14.55 23.73 12.61 18.83 16.84 17.16 20.88 15.57 23.78 14.42 60.31 0 79.15 47.7"/>
      <path class="cls-3" d="m1.82,31.87c.64-.14,1.26.27,1.4.9.14.64-.27,1.26-.9,1.4-.64.14-2.32-.7-2.32-.7,0,0,1.19-1.46,1.82-1.6Z"/>
      <path class="cls-3" d="m2.1,56.04c.42-.5,1.16-.57,1.66-.15.5.42.57,1.16.15,1.66h0c-.42.5-2.26.88-2.26.88,0,0,.04-1.88.45-2.38Z"/>
      <path class="cls-4" d="m53.16,17.71c-1.9-3.2-5.65-3.35-5.65-3.35,0,0-3.66-.47-6,4.41-2.19,4.55-5.2,8.94-.49,10.01l.85-2.65.53,2.85c.67.05,1.35.06,2.02.03,5.05-.16,9.86.05,9.71-1.77-.21-2.41.85-6.45-.97-9.53Z"/>
      <path class="cls-2" d="m45.37,24.42c.65,1.45,1.07,3.17,1.31,5.08l5.25-.33c-1.21-1.71-1.61-3.67-1.15-5.9l-5.41,1.15Z"/>
      <path class="cls-1" d="m45.37,24.42c.65,1.45,1.07,3.17,1.31,5.08l5.25-.33c-1.21-1.71-1.61-3.67-1.15-5.9l-5.41,1.15Z"/>
      <path class="cls-2" d="m21.03,51.94s-2.72,1.45-1.34,2.7c1.38,1.24,3.2-1.64,3.2-1.64l-1.86-1.05Z"/>
      <polygon class="cls-4" points="54.23 47.7 54.18 49.68 54.09 53.98 54.02 57.62 48.52 59.79 36.63 55.65 37.41 51.3 38.04 47.79 38.32 46.22 52.59 44.25 54.23 47.7"/>
      <path class="cls-4" d="m54.23,47.7l-.04,1.99c-5.05-.13-12.87-1.35-16.14-1.89l.28-1.57,14.26-1.97,1.64,3.44Z"/>
      <circle class="cls-2" cx="47.91" cy="21.71" r="4.1"/>
      <path class="cls-4" d="m55.78,49.91s.49,4.43-2.46,4.1l-.49-4.43-2.62-2.62-7.38-.16-5.41,5.08s-.16-5.25.49-5.74,2.13-1.64,2.13-1.64v-.82l-4.43-9.02s2.62-5.41,4.75-5.57l2.79-.16s.98-.49.98-.66-.16-1.48.66-1.15c0,0,.07-1.68.94-1.17,0,0,2.72,2.13,5.48.09,0,0,1.29-.24,1.12.42s0,1.15.33,1.15,1.8.49,1.8.82c0,.07.11.75.27,1.77h0c.61,3.72,2.02,12,2.02,12,0,0,1.48,2.13-.98,7.71Z"/>
      <path class="cls-4" d="m36.77,33.84l-1.15.82-10.49,13.44-5.57,4.43s3.11-.49,2.46,2.13l19.18-10.98-4.43-9.84Z"/>
      <path class="cls-4" d="m54.75,30.2h0c-.22,1.28-7.32,1.02-8.31,1.02s-1.8-.16-2.79-.82-.49-1.48-.49-1.48c0,0,.84-.64.84-.8s-.16-1.48.66-1.15c0,0,.07-1.68.94-1.17,0,0,2.87,2.28,5.63.24,0,0,1.29-.24,1.12.42s0,1.15.33,1.15,1.8.49,1.8.82c0,.07.11.75.27,1.77Z"/>
      <path class="cls-2" d="m53.9,24.09s-1.31-2.79-2.62-1.48c-1.31,1.31,1.48,3.28,1.48,3.28l1.15-1.8Z"/>
      <path class="cls-4" d="m53.9,23.43s-2.03,2.56-2.65,2.76c0,0,1.83,7.25,4.13,9.21l1.31,6.72s5.57-2.3,4.26-6.07c-.01-.04-.03-.08-.04-.11-1.1-3.14-2.61-6.12-4.49-8.86l-2.52-3.65Z"/>
      <polygon class="cls-1" points="52.82 31.02 56.85 42.12 55.37 35.4 52.82 31.02"/>
      <polygon class="cls-4" points="52.32 17.4 48.61 15.46 43.49 16.25 42.43 20.93 45.07 20.83 45.81 19.11 45.81 20.8 47.02 20.76 47.73 18.02 48.17 20.93 52.5 20.84 52.32 17.4"/>
      <path class="cls-4" d="m20.52,53.95c-2.55-1.42-4.13-3.36-4.71-5.76-.43-1.79-.31-3.79.37-5.97.5-1.6,1.25-3.12,2.22-4.49,5.16-7.3,5.63-12.06,5.11-14.77-.57-2.97-2.41-4.2-2.43-4.21l.08-.12s1.91,1.27,2.49,4.3c.34,1.75.18,3.74-.47,5.92-.8,2.71-2.37,5.73-4.66,8.97-.96,1.36-1.71,2.86-2.2,4.45-1.11,3.57-1.26,8.47,4.28,11.56l-.07.13Z"/>
      <path class="cls-4" d="m15.87,40.42c-2.01-1.12-1.95-2.89-1.55-4.19.18-.57.44-1.11.79-1.59,1.81-2.56,1.97-4.22,1.79-5.17-.2-1.02-.83-1.45-.83-1.45l.08-.12s.69.46.9,1.54c.27,1.41-.34,3.19-1.81,5.28-.34.47-.6,1-.77,1.55-.38,1.24-.44,2.94,1.48,4.02l-.07.13Z"/>
      <path class="cls-4" d="m24.9,24.2l-.07-.13c1.92-1.07,1.87-2.78,1.48-4.02-.17-.55-.43-1.08-.77-1.55-1.48-2.09-2.09-3.86-1.81-5.28.21-1.09.87-1.53.9-1.54l.08.12s-.64.43-.84,1.46c-.18.94-.01,2.6,1.79,5.16.35.49.61,1.02.79,1.59.4,1.29.46,3.07-1.55,4.19Z"/>
      <path class="cls-3" d="m29.19,16.93c-.66,1.01-2.02,1.3-3.03.64-1.01-.66-1.3-2.02-.64-3.03h0c.66-1.01,3.99-2.11,3.99-2.11,0,0,.34,3.49-.32,4.5Z"/>
      <path class="cls-3" d="m28.39,10.14c-.66,1.01-2.02,1.3-3.03.64-1.01-.66-1.3-2.02-.64-3.03h0c.66-1.01,3.99-2.11,3.99-2.11,0,0,.34,3.49-.32,4.5Z"/>
      <path class="cls-4" d="m24.86,35.03c-1.25,0-2.27-1.01-2.27-2.26,0-.87.5-1.67,1.29-2.05,1.1-.53,4.41.24,4.55.28l.09.02-.04.08c-.06.13-1.55,3.18-2.65,3.71h0c-.3.14-.63.22-.97.22Zm.18-4.35c-.45,0-.84.05-1.1.17-1.06.5-1.5,1.77-1,2.82.5,1.06,1.77,1.5,2.82,1h0c.96-.46,2.29-3.06,2.54-3.56-.4-.09-2.04-.44-3.27-.44Z"/>
      <path class="cls-3" d="m20.39,14.92c.89.82.96,2.2.14,3.1-.82.89-2.2.96-3.1.14,0,0,0,0,0,0-.89-.82-1.44-4.28-1.44-4.28,0,0,3.5.22,4.39,1.04Z"/>
      <path class="cls-3" d="m15.28,24.13c.89.82.96,2.2.14,3.1s-2.2.96-3.1.14c-.89-.82-1.44-4.28-1.44-4.28,0,0,3.5.22,4.39,1.04Z"/>
      <path class="cls-4" d="m21.01,25.42c-.73,0-2.13-.69-2.19-.72l-.08-.04.06-.07c.05-.06,1.21-1.48,1.86-1.62h0c.67-.15,1.34.28,1.49.96s-.28,1.34-.96,1.49h0c-.06.01-.12.02-.17.02Zm-2.05-.82c.34.16,1.66.77,2.19.66.6-.13.97-.72.84-1.31-.13-.6-.72-.97-1.31-.85-.53.11-1.48,1.21-1.72,1.5Z"/>
      <path class="cls-3" d="m13.16,55.14c.32-.57,1.04-.76,1.6-.44.56.32.76,1.04.44,1.6-.32.57-2.07,1.26-2.07,1.26,0,0-.3-1.86.02-2.42Z"/>
      <path class="cls-4" d="m9.34,42.61c-.5,0-1.01-.05-1.51-.13h-.09s.03-.1.03-.1c.03-.07.72-1.78,1.3-2.1h0c.6-.34,1.36-.13,1.7.47s.13,1.36-.47,1.7c-.21.12-.58.16-.97.16Zm-1.39-.26c.38.05,1.82.24,2.28-.02.53-.3.72-.97.42-1.5s-.97-.72-1.5-.42h0c-.47.26-1.05,1.59-1.2,1.95Z"/>
    </g>
  </g>
</svg>