<?xml version="1.0" encoding="UTF-8"?>
<svg id="Layer_2" data-name="Layer 2" xmlns="http://www.w3.org/2000/svg" viewBox="0 0 57.61 43.89">
  <defs>
    <style>
      .cls-1 {
        fill: #1e2d2e;
      }

      .cls-1, .cls-2 {
        stroke-width: 0px;
      }

      .cls-2 {
        fill: #ffaf42;
      }
    </style>
  </defs>
  <g id="Layer_2-2" data-name="Layer 2">
    <g>
      <path class="cls-1" d="m0,39.78s.04.09.09.09h57.44s.09-.04.09-.09-.04-.09-.09-.09H.09s-.09.04-.09.09Z"/>
      <polygon class="cls-2" points="31.56 15.19 32.16 11.48 28.15 9.85 27.56 15.48 31.56 15.19"/>
      <circle class="cls-2" cx="30.55" cy="8.59" r="4.08"/>
      <path class="cls-1" d="m30.23,3.11c.12.07.28-.04.31-.17s0-.27-.05-.4c-.07-.22-.15-.43-.22-.65-.16-.46-.32-.94-.66-1.29-.51-.53-1.32-.67-2.05-.57-.94.13-1.86.63-2.3,1.47-.44.84-.25,2.01.54,2.53-1.12,1.29-1.51,2.72-1.45,4.43.06,1.71,1.92,3.28,3.13,4.48.27-.16.52-.93.37-1.21-.15-.28.06-.6-.12-.86-.18-.26-.34.15-.15-.1.12-.16-.34-.53-.17-.63.85-.47,1.13-1.52,1.66-2.33.64-.97,1.74-1.63,2.9-1.74.64-.06,1.31.05,1.84.42s.86,1.03.74,1.67c.31-.32.47-.79.41-1.23s-.33-.86-.72-1.08c.24-.78.03-1.67-.51-2.28-.55-.6-2.76-.5-3.56-.34"/>
      <path class="cls-1" d="m30.1,6.09c-1.06.11-1.82,1.03-2.46,1.88-.37.49-.76,1.03-.75,1.64,0,.62.42,1.15.62,1.74.32.96,0,2.1-.76,2.76.76.14,1.58-.43,1.72-1.19.15-.89-.52-1.75-.44-2.64.07-.79.69-1.4,1.22-1.99s1.03-1.38.78-2.13"/>
      <path class="cls-2" d="m30.3,43.45s-8.84.88-9.5-.15,8.97-2.05,8.97-2.05l.53,2.19Z"/>
      <path class="cls-2" d="m24.67,27.07l-.18.97c.5.73.54,1.51.26,2.32l10.08.07c-.11-1.09-.23-2.26.19-3.34l-10.34-.02Z"/>
      <path class="cls-2" d="m41.18,34.27l-3.66-2.92c-.49-.39-.8-.97-.86-1.59l-.56-5.57,3.36-1.12.81,5.52,2.02,4.58-1.1,1.1h0Z"/>
      <polygon class="cls-1" points="27.19 14.83 32.08 14.61 37.27 17.08 35.15 27.17 24.41 27.98 22.95 16.8 27.19 14.83"/>
      <path class="cls-1" d="m35.01,29.5c.74.97,1.04,3.3,1.36,5.62,0,0-13.59-.07-13.66-.07s2.08-4.89,2.08-4.89l10.23-.66h0Z"/>
      <path class="cls-1" d="m35.45,34.51l.91.62s12.93-.88,11.83,3.21c-1.1,4.09-4.53,4.75-4.53,4.75l-13.88.8-.15-2.26s-13.37,3-14.61-3.14c-1.24-6.14,7.67-3.43,7.67-3.43l12.75-.55h0Z"/>
      <path class="cls-2" d="m30,39.36s.31-1.61,2.5-.95,3.43,1.53,3.43,1.53l-5.26,1.31-.67-1.9Z"/>
      <path class="cls-1" d="m35.48,16.91s2.48-.88,3.43,1.97c.95,2.85.73,5.19.73,5.19l-3.65,1.17-.51-8.33h0Z"/>
      <path class="cls-2" d="m18.45,34.72l-.8-1.4,1.72-4.29.81-5.52,3.36,1.12-.57,5.64c-.06.58-.35,1.11-.8,1.48l-3.72,2.97h0Z"/>
      <path class="cls-1" d="m24.16,16.91s-2.48-.88-3.43,1.97c-.95,2.85-.73,5.19-.73,5.19l3.65,1.17.51-8.33h0Z"/>
      <ellipse class="cls-2" cx="42.24" cy="32.32" rx="1.75" ry="2.59"/>
      <ellipse class="cls-2" cx="17.62" cy="32.76" rx="1.75" ry="2.59"/>
      <polyline class="cls-1" points="24.31 37.1 30.67 38.92 31.91 41.12 29.54 41.63"/>
    </g>
  </g>
</svg>