<?xml version="1.0" encoding="UTF-8"?>
<svg id="Layer_2" data-name="Layer 2" xmlns="http://www.w3.org/2000/svg" viewBox="0 0 75.75 33.11">
  <defs>
    <style>
      .cls-1 {
        fill: #6f6380;
      }

      .cls-1, .cls-2, .cls-3, .cls-4 {
        stroke-width: 0px;
      }

      .cls-2 {
        fill: #1e2d2e;
      }

      .cls-3 {
        fill: #bdb2cd;
      }

      .cls-4 {
        isolation: isolate;
        opacity: .1;
      }
    </style>
  </defs>
  <g id="Layer_2-2" data-name="Layer 2">
    <g>
      <rect class="cls-2" x="2.97" y="22.02" width="22.13" height="11.03"/>
      <rect class="cls-2" x="51.77" y="22.09" width="22.13" height="10.96"/>
      <rect class="cls-2" x="27.37" y="22.09" width="22.13" height="10.96"/>
      <rect class="cls-3" x="2.97" y="10.92" width="22.13" height="11.4"/>
      <rect class="cls-3" x="27.37" y="10.92" width="22.13" height="11.4"/>
      <rect class="cls-3" x="51.77" y="10.92" width="22.13" height="11.4"/>
      <rect class="cls-2" x="62.86" y="13.65" width=".12" height="7.4" transform="translate(-1.16 4.95) rotate(-4.47)"/>
      <path class="cls-2" d="m65.57,18.22c0,2.23-1.79,4.27-1.79,4.27-.45-1.3-.68-2.66-.69-4.04,0-2.23.31-4.04.69-4.04s1.79,1.58,1.79,3.81Z"/>
      <path class="cls-2" d="m60.5,19.23c.86,2.06,3.29,3.26,3.29,3.26-.08-1.37-.39-2.72-.91-3.99-.86-2.06-1.84-3.61-2.19-3.46s-1.05,2.14-.19,4.2Z"/>
      <circle class="cls-2" cx="62.63" cy="13.66" r=".75"/>
      <circle class="cls-1" cx="62.92" cy="13.2" r=".35"/>
      <rect class="cls-2" x="19.83" y=".8" width=".12" height="7.4" transform="translate(-.29 1.56) rotate(-4.47)"/>
      <path class="cls-2" d="m22.54,5.36c0,2.23-1.79,4.27-1.79,4.27-.45-1.3-.68-2.66-.69-4.04,0-2.23.31-4.04.69-4.04s1.79,1.58,1.79,3.81Z"/>
      <path class="cls-2" d="m17.48,6.38c.86,2.06,3.29,3.26,3.29,3.26-.08-1.37-.39-2.72-.91-3.99-.86-2.06-1.84-3.61-2.19-3.46s-1.05,2.14-.19,4.2Z"/>
      <circle class="cls-2" cx="19.6" cy=".81" r=".75"/>
      <circle class="cls-1" cx="19.89" cy=".35" r=".35"/>
      <rect class="cls-2" x="36.58" y="14.06" width=".12" height="7.4" transform="translate(-3.44 10.6) rotate(-15.74)"/>
      <path class="cls-2" d="m39.41,18.09c.44,2.19-.92,4.53-.92,4.53-.7-1.19-1.19-2.48-1.47-3.82-.44-2.19-.49-4.02-.11-4.09s2.06,1.2,2.5,3.38Z"/>
      <path class="cls-2" d="m34.64,20.08c1.24,1.85,3.86,2.55,3.86,2.55-.35-1.33-.91-2.59-1.67-3.74-1.24-1.85-2.51-3.18-2.82-2.97s-.61,2.31.63,4.16Z"/>
      <circle class="cls-2" cx="35.64" cy="14.2" r=".75"/>
      <circle class="cls-1" cx="35.83" cy="13.69" r=".35"/>
      <rect class="cls-2" x="36.85" y="17.66" width="7.4" height=".12" transform="translate(6.9 46.46) rotate(-64.1)"/>
      <path class="cls-2" d="m42.4,19.81c-1.13,1.92-3.7,2.78-3.7,2.78.27-1.35.76-2.64,1.44-3.83,1.13-1.92,2.31-3.33,2.64-3.13s.75,2.26-.38,4.19Z"/>
      <path class="cls-2" d="m37.52,18.12c-.3,2.21,1.19,4.47,1.19,4.47.62-1.23,1.04-2.55,1.23-3.91.3-2.21.24-4.04-.14-4.09s-1.99,1.32-2.29,3.53Z"/>
      <circle class="cls-2" cx="42.17" cy="14.39" r=".75"/>
      <circle class="cls-1" cx="42.65" cy="14.14" r=".35"/>
      <path class="cls-3" d="m21.34,10.1s-.59-1.68-1.02-1.15.66,1.42.66,1.42l.36-.26Z"/>
      <path class="cls-2" d="m24.15,8.45l-.36.13s-.17.76-.1.89.1.03,0,.3-.4.96-.43,1.06-1.91-.63-1.91-.99c0,0-.4.46-.59.56,0,0,2.18,1.58,2.47,1.78s.46.1.73-.13,1.39-2.14,1.39-2.14l-1.19-1.45Z"/>
      <path class="cls-2" d="m23.19,20.16s.03.36.1.4.56.86,0,1.02-.89.1-1.02.16-2.44.2-2.47-.16,1.12-.43,1.12-.43c0,0,1.06-.69,1.22-1.06s1.06.07,1.06.07Z"/>
      <path class="cls-2" d="m29.89,20.82s.79,1.35.59,1.52-2.13.77-2.41.79c-.36.03-.63-.26-.33-.43s.92-.86.92-1.09v-.59l1.22-.2Z"/>
      <path class="cls-2" d="m30.65,11.98s.69.86-.4,2.24l-1.81,2.31s1.12,1.78,1.15,2.71.26.73.33,1.12.36.2.13.49c-.23.3-1.09.56-1.35.33-.18-.17-.28-.41-.26-.66,0-.13-.46-.89-.49-1.12s-1.25-2.11-1.25-2.11c0,0-.4-1.12.07-1.75s.77-1.52.77-1.52c0,0-1.36,1.65-2.32,2.04,0,0-.36.07-.3.23s0,.26-.1.43-.79,2.08-1.02,2.57-.13.79-.4.96-1.45.03-1.45-.13.16-.59.26-.82.89-2.9.82-3.37.03-1.09.53-1.35,3-2.41,3.13-2.41,3.96-.2,3.96-.2Z"/>
      <circle class="cls-3" cx="24.02" cy="5.42" r="1.39"/>
      <path class="cls-3" d="m25.14,5.55s.43.76.96.86-1.39,1.62-1.39,1.62c0,0-.46-1.45-.86-1.52s1.29-.96,1.29-.96Z"/>
      <path class="cls-2" d="m23.79,8.65c0,.43,1.29,1.65,1.29,1.65l1.22,1.02s.03.36.16.4.3.03.16.23-.46.63-.16.69c.09.01.18.02.27.03.08,0,.17,0,.28.01.24,0,.55.01.88.01.09,0,.19,0,.29,0,1.25-.02,2.69-.17,2.57-.64-.2-.79-.07-1.06-.49-1.48s-1.12-1.91-1.12-1.91c0,0-1.39-2.34-2.54-2.34l-.24-.06c-.23-.06-.47.03-.6.23-.23.35-.6.88-.81,1.05-.33.26-.38.07-.38.07,0,0-.77.62-.77,1.05Z"/>
      <path class="cls-3" d="m26.72,13.66s-.96,1.48-.36,1.75.92-1.55.92-1.55l-.56-.2Z"/>
      <path class="cls-2" d="m24.92,5.26c-.05,0-.07-.07-.08-.13-.05-.28-.26-.55-.54-.6-.11-.01-.22,0-.32.03-.15.04-.29.11-.41.2-.06.06-.13.1-.21.13-.05.02-.27.11-.32.13-.11.04-.21.16-.32.13-.11-.02-.15-.16-.17-.27-.04-.26.11-.64.25-.85.11-.16.3-.26.49-.32.22-.07.45-.11.67-.13.31-.04.63-.06.92.04s.56.33.62.63c.01.06.01.13.03.19.03.15.14.28.2.43.09.22.08.46-.03.67-.08.17-.23.32-.19.51l-.25-.2c-.08-.04-.11-.13-.08-.22l.04-.32c.01-.06,0-.12-.02-.17-.11-.2-.16.13-.25.11Z"/>
      <path class="cls-4" d="m27.32,11.39l-.31,1.29c.31.01.73.02,1.17,0,.11-.33.22-.68.3-1,.3-1.19-.2-3-.46-3.86s-.92-1.09-.92-1.09c-.27.1-.53.23-.76.4-.43.3.99,4.26.99,4.26Z"/>
      <path class="cls-4" d="m27.05,11.32l-.32,1.35c.08,0,.17,0,.28.01.24,0,.55.01.88.01.12-.35.23-.73.32-1.07.3-1.19-.2-3-.46-3.86-.26-.86-.84.08-.84.08,0,0,.23-.56-.2-.26s.35,3.74.35,3.74Z"/>
      <path class="cls-2" d="m26.95,6.67s.66.23.92,1.09.76,2.67.46,3.86-.92,2.67-.92,2.67c0,0-.63-.46-.86-.36l.63-2.61s-1.42-3.96-.99-4.26c.23-.17.49-.3.76-.4Z"/>
      <path class="cls-2" d="m24.16,22.51c-.95-.16-1.86-.3-2.74-.41l.35-.67c-.12-.04-.63.34-.63.34l.46-1.95c-.59.07-.89,2.06-.89,2.06l-.66-.67.32.76c-2.31-.28-4.63-.43-6.95-.44l.3-.58c-.12-.04-.63.34-.63.34l.46-1.95c-.59.07-.89,2.06-.89,2.06l-.66-.67.34.8c-1.34.02-2.67.11-4,.27.3-.9,1.32-1.75,1.32-1.75-.78.23-1.19.62-1.4.98-.02-1.85.29-3.69.91-5.43,0,0-1.61,3.5-1.4,5.85l.02.42c-1.36.2-1.9.65-1.9.65l18.29-.02Z"/>
      <path class="cls-2" d="m72.95,23.09c-.95-.16-1.86-.3-2.74-.41l.35-.67c-.12-.04-.63.34-.63.34l.46-1.95c-.59.07-.89,2.06-.89,2.06l-.66-.67.32.76c-2.31-.28-4.63-.43-6.95-.44l.3-.58c-.12-.04-.63.34-.63.34l.46-1.95c-.59.07-.89,2.06-.89,2.06l-.66-.67.34.8c-1.34.02-2.67.11-4,.27.3-.9,1.32-1.75,1.32-1.75-.78.23-1.19.62-1.4.98-.02-1.85.29-3.69.91-5.43,0,0-1.61,3.5-1.4,5.85l.02.42c-1.36.2-1.9.65-1.9.65l18.29-.02Z"/>
      <rect class="cls-2" y="32.96" width="75.75" height=".15"/>
    </g>
  </g>
</svg>