<?xml version="1.0" encoding="UTF-8"?>
<svg id="Layer_2" data-name="Layer 2" xmlns="http://www.w3.org/2000/svg" viewBox="0 0 59.42 57.84">
  <defs>
    <style>
      .cls-1 {
        isolation: isolate;
        opacity: .2;
      }

      .cls-1, .cls-2, .cls-3, .cls-4 {
        stroke-width: 0px;
      }

      .cls-2 {
        fill: #6f6380;
      }

      .cls-3 {
        fill: #1e2d2e;
      }

      .cls-4 {
        fill: #bdb2cd;
      }
    </style>
  </defs>
  <g id="Layer_2-2" data-name="Layer 2">
    <g>
      <path class="cls-3" d="m52.76,51.13s.05-.95.98-.84"/>
      <circle class="cls-2" cx="52.5" cy="49.76" r=".47"/>
      <rect class="cls-3" x="52.43" y="50.54" width=".13" height=".92"/>
      <path class="cls-3" d="m21.13,23.15c0,.23,0,.46-.02.69-.08,1.32-.42,2.62-.98,3.81,0,.01,0,.02-.01.03-.03.06-.05.11-.08.17-.17.34-.35.67-.56.99-1.89,2.97-5.14,4.8-8.66,4.87l.1,6.01,1.36-.72.24.46-1.6.84.2,11.16v.15s-1.05.23-1.05.23v-.15s.33-17.98.33-17.98c-2.82-.04-5.5-1.21-7.45-3.24-.07-.07-.13-.14-.2-.21,0,0,0,0,0,0-.8-.88-1.45-1.88-1.92-2.98.01.01.02.02.03.03-2.2-5.15,0-11.12,5.01-13.62.04-.02.07-.04.11-.05,4.95-2.39,10.91-.58,13.7,4.16.06.11.13.22.19.33.84,1.54,1.27,3.27,1.27,5.02Z"/>
      <circle class="cls-4" cx="19.71" cy="13.85" r="13.85"/>
      <path class="cls-1" d="m9.48,4.6c-3.01,7.03.26,15.17,7.29,18.18,5.47,2.34,11.82.92,15.78-3.52-3.01,7.03-11.14,10.3-18.18,7.29-7.03-3.01-10.3-11.14-7.29-18.18.59-1.38,1.4-2.65,2.39-3.77Z"/>
      <polygon class="cls-3" points="20.46 52.42 19.04 52.02 19.05 51.87 19.47 28.84 19.49 27.69 19.49 27.66 19.57 23.63 19.67 17.8 19.67 17.8 19.75 13.85 19.78 13.85 19.86 18.13 19.96 23.7 20.03 27.66 20.03 27.69 20.03 27.85 20.03 27.85 20.16 35.56 20.18 36.33 20.45 52.27 20.46 52.42"/>
      <rect class="cls-3" x="19.67" y="35.19" width="2.59" height=".68" transform="translate(-14.14 13.86) rotate(-27.77)"/>
      <rect class="cls-3" x="12.91" y="55.21" width="6.53" height=".15"/>
      <rect class="cls-3" x="24.89" y="57.69" width="6.53" height=".15"/>
      <rect class="cls-3" x="43.52" y="55.79" width="6.53" height=".15"/>
      <path class="cls-3" d="m47.06,49.85v-4.25s1.66,3.01,0,4.25Z"/>
      <path class="cls-3" d="m47.17,49.85l-3.13-2.87s3.34.82,3.13,2.87Z"/>
      <path class="cls-4" d="m14.7,50.87v-4.25s1.66,3.01,0,4.25Z"/>
      <path class="cls-4" d="m14.8,50.87l-3.13-2.87s3.34.82,3.13,2.87Z"/>
      <path class="cls-4" d="m25.95,53.94v-5.28s2.06,3.75,0,5.28Z"/>
      <path class="cls-4" d="m26.08,53.94l-3.89-3.57s4.15,1.02,3.89,3.57Z"/>
      <polygon class="cls-3" points="59.42 53.29 59.38 53.43 47.12 49.94 37.88 51.98 26.07 53.99 26.05 53.99 20.46 52.42 19.04 52.02 14.72 50.81 11.12 51.61 10.07 51.85 7.78 52.36 7.75 52.22 10.07 51.7 11.12 51.46 14.73 50.66 14.75 50.66 19.05 51.87 20.45 52.27 26.08 53.84 37.85 51.83 47.12 49.79 47.14 49.79 59.42 53.29"/>
      <path class="cls-3" d="m37.48,8.87l.93-.75c-.73-.08-1.02.32-1.15.63-.57-.24-1.18.07-1.18.07l1.87.68c-.09-.25-.26-.47-.47-.63Z"/>
      <path class="cls-3" d="m3.15,8.58l.93-.75c-.73-.08-1.02.32-1.15.63-.57-.24-1.18.07-1.18.07l1.87.68c-.09-.25-.26-.47-.47-.63Z"/>
      <path class="cls-3" d="m35.44,22.82l.93-.75c-.73-.08-1.02.32-1.15.63-.57-.24-1.18.07-1.18.07l1.87.68c-.09-.25-.26-.47-.47-.63Z"/>
      <polygon class="cls-4" points="29.09 54.98 29.8 55.24 31.17 52.61 30.11 52.22 29.09 54.98"/>
      <path class="cls-3" d="m28.99,54.68l1.41.52h0c.5.18.75.73.56,1.23v.03s-2.31-.86-2.31-.86l.34-.93Z"/>
      <polygon class="cls-4" points="36.12 55.72 36.88 55.72 37.24 52.78 36.12 52.78 36.12 55.72"/>
      <path class="cls-3" d="m35.99,55.47h1.5s0,0,0,0c.53,0,.96.43.96.96v.03h-2.46s0-.99,0-.99Z"/>
      <path class="cls-3" d="m32.63,35.33l.25-.5,2.11,1.06-.06.44.4.53s.68.37.56,1.62l-.12,1.18-.16,1.52,1.09,3.76.56,4.97.4,4.01-1.96-.09-1.8-6.53-3.17,7.02-2.18-.56,2.98-6.96.37-2.92s-.25-1.55.93-2.61l-.19-.56v-.69l-.62-3.29.59-1.4Z"/>
      <rect class="cls-1" x="33.18" y="42.36" width=".07" height="5.04" transform="translate(-10.93 10.7) rotate(-15.75)"/>
      <rect class="cls-3" x="32.69" y="41.18" width="3.05" height=".31"/>
      <ellipse class="cls-3" cx="35.74" cy="41.36" rx=".12" ry=".31"/>
      <circle class="cls-4" cx="34.36" cy="33.07" r="1.66"/>
      <circle class="cls-3" cx="31.83" cy="31.02" r="1.47"/>
      <path class="cls-3" d="m29.97,30.86c-.23.78.21,1.59.99,1.82s1.59-.21,1.82-.99c.02-.08.04-.16.05-.24-.23.78-1.05,1.22-1.82.99-.69-.2-1.13-.88-1.04-1.59Z"/>
      <path class="cls-3" d="m35.76,32.61c.11.95-.58,1.81-1.53,1.92-.95.11-1.81-.58-1.92-1.53-.11-.95.58-1.81,1.53-1.92.3-.03.61.01.88.13.29-.23.65-.16.94.09.33.28.43.47.68.93-.25.04-.34.35-.59.38Z"/>
      <path class="cls-2" d="m29.67,37.6c.02.49.06,1.46.06,1.51,0,.05.73,1.57,1.05,2.22h0s.04.09.06.12c.05.1.16.17.27.17l1.38-.02c.16,0,.29-.13.29-.29l.15-6.09c0-.08-.06-.15-.15-.15,0,0,0,0,0,0h-1.78c-.15,0-.29.09-.36.23l-.86,1.77c-.08.17-.12.35-.11.53h0Z"/>
      <path class="cls-2" d="m32.8,40.89c.35-.22.67-.48.95-.8.63-.71,1.01-1.6,1.09-2.55.07-.81-.09-1.41-.48-1.79-.49-.48-1.16-.41-1.19-.41h-.03s-.45.39-.45.39l.13.15.41-.34c.12,0,.63,0,1,.35.34.33.48.88.42,1.63-.07.9-.44,1.75-1.04,2.43-.26.3-.56.56-.9.76l.1.17Z"/>
      <rect class="cls-3" x="31.4" y="37.62" width=".07" height="2.47" transform="translate(-12.96 61.83) rotate(-78.39)"/>
      <rect class="cls-3" x="29.85" y="36.95" width="3.85" height=".07" transform="translate(-6.48 67.23) rotate(-87.66)"/>
      <path class="cls-3" d="m29.67,37.6c.02.49.06,1.46.06,1.51,0,.05.73,1.57,1.05,2.22l-.59-3.43c-.05-.27-.23-.49-.49-.58-.02.09-.03.19-.02.28Z"/>
      <path class="cls-4" d="m33.29,44.78c-.2-.25-.15-.62.1-.82.03-.02.06-.04.09-.06l-.12-1.33.79-.27.14,1.88c.13.3,0,.64-.3.77-.25.11-.54.04-.7-.18h0Z"/>
      <path class="cls-3" d="m32.78,36.77c-.03-.41.22-.8.62-.93.17-.06.35-.06.52,0,.37.13.62.47.62.87l.06,6.74-1.4.05-.41-6.72Z"/>
    </g>
  </g>
</svg>