<?xml version="1.0" encoding="UTF-8"?>
<svg id="Layer_2" data-name="Layer 2" xmlns="http://www.w3.org/2000/svg" viewBox="0 0 71.77 55.74">
  <defs>
    <style>
      .cls-1 {
        fill: #6f6380;
      }

      .cls-1, .cls-2, .cls-3, .cls-4 {
        stroke-width: 0px;
      }

      .cls-2 {
        fill: #1e2d2e;
      }

      .cls-3 {
        fill: #bdb2cd;
      }

      .cls-4 {
        fill: #fcf8f2;
      }
    </style>
  </defs>
  <g id="Layer_2-2" data-name="Layer 2">
    <g>
      <circle class="cls-4" cx="40.87" cy="24.33" r="2.92"/>
      <path class="cls-2" d="m48.03,28.09l-3.06-3.06c.97-1.5.53-3.51-.97-4.47-.03-.02-.05-.03-.08-.05-1.45-.87-3.32-.48-4.3.89-1.04,1.46-.7,3.48.76,4.51,1.08.77,2.52.8,3.63.09l3.06,3.06c.27.27.7.27.97,0,.27-.27.27-.7,0-.97Zm-4.14-3.17c-.9.9-2.37.9-3.27,0-.9-.9-.9-2.37,0-3.27.9-.9,2.37-.9,3.27,0,.43.43.68,1.02.68,1.64,0,.61-.24,1.2-.68,1.64Z"/>
      <path class="cls-4" d="m70.19,32.6c7.82,8.64-14.84,21.1-33.15,21.1S6.07,44.04,3.9,32.6C-1.38,4.84,48.83-12.8,37.04,11.5c-17.18,35.42,26.99,14.29,33.15,21.1Z"/>
      <path class="cls-1" d="m66.68,34.64c7.82,8.64-14.84,21.1-33.15,21.1S2.56,46.09.39,34.64C-4.88,6.89,45.32-10.76,33.53,13.54c-17.18,35.42,26.99,14.29,33.15,21.1Z"/>
      <path class="cls-1" d="m10.93,14.38c-5.48-.24-9.74-1.42-9.68-2.69.03-.76,1.59-1.37,4.26-1.68.04,0,.08.02.08.06s-.02.08-.06.08c0,0,0,0,0,0-2.52.29-4.1.88-4.13,1.54-.05,1.15,4.32,2.31,9.54,2.54,5.22.23,9.68-.55,9.73-1.69.03-.66-1.5-1.39-4-1.9-.04,0-.07-.05-.06-.09,0-.04.05-.07.09-.06,0,0,0,0,0,0,2.65.54,4.15,1.29,4.12,2.05-.06,1.27-4.4,2.07-9.88,1.83Z"/>
      <path class="cls-1" d="m6.06,14.59c1.45,2.75,4.85,3.8,7.6,2.36.87-.46,1.6-1.13,2.12-1.95-3.24.04-6.49-.09-9.72-.4Z"/>
      <path class="cls-3" d="m16.38,13.46c.98-2.95-.61-6.13-3.56-7.12-2.95-.98-6.13.61-7.12,3.56-.34,1.01-.38,2.1-.12,3.14,3.56.61,7.19.75,10.79.42Z"/>
      <circle class="cls-4" cx="12.33" cy="9.03" r=".66"/>
      <circle class="cls-4" cx="8.95" cy="11.15" r="1.1"/>
      <circle class="cls-1" cx="25.49" cy="10.44" r=".73"/>
      <circle class="cls-4" cx="8.98" cy="33.09" r=".44"/>
      <circle class="cls-4" cx="39.66" cy="48.13" r=".44"/>
      <circle class="cls-4" cx="11.1" cy="24.83" r=".22"/>
      <circle class="cls-4" cx="29.21" cy="41.19" r=".22"/>
      <circle class="cls-4" cx="62.16" cy="39.08" r=".22"/>
      <circle class="cls-4" cx="51.86" cy="45.58" r=".22"/>
      <circle class="cls-4" cx="41.12" cy="37.69" r=".22"/>
      <circle class="cls-4" cx="27.24" cy="16.06" r=".22"/>
      <circle class="cls-4" cx="28.99" cy="5.25" r=".22"/>
      <circle class="cls-4" cx="27.97" cy="50.76" r=".22"/>
      <circle class="cls-4" cx="17.16" cy="46.16" r=".22"/>
      <circle class="cls-4" cx="51.42" cy="38.27" r=".22"/>
      <circle class="cls-3" cx="10.84" cy="16.42" r=".66"/>
      <path class="cls-3" d="m25.71,26.51c0,1.96-3.04,6.54-3.92,7.83-.09.13-.27.17-.41.08-.03-.02-.06-.05-.08-.08-.89-1.3-3.92-5.87-3.92-7.83,0-2.3,1.86-4.16,4.16-4.16s4.16,1.86,4.16,4.16h0Z"/>
      <circle class="cls-2" cx="21.54" cy="26.22" r="2.12"/>
      <ellipse class="cls-3" cx="21.51" cy="36.26" rx="2.45" ry=".47"/>
      <path class="cls-3" d="m59.67,23.22s-.03.07-.05.11l-3.49.97-.63-.62-1.05.83,1.01,1.2c.17.2.45.26.68.16l3.77-1.66c.35.24.83.16,1.07-.19s.16-.83-.19-1.07c-.35-.24-.83-.16-1.07.19-.02.03-.03.05-.05.08h0Z"/>
      <path class="cls-1" d="m56.01,24.36l-1.31,1.02c-.14.11-.35.09-.46-.06,0-.01-.02-.03-.03-.04l-.81-1.44c-.31-.4-.23-.97.17-1.28.4-.31.97-.23,1.28.16l1.19,1.14c.13.13.14.33.01.46-.01.01-.02.02-.04.03h0Z"/>
      <path class="cls-2" d="m60.01,22.74l1.33.6c.12.05.17.19.12.3l-.16.35s.06.06.04.1l-.06.14s-.06.06-.1.04l-.06.14s.06.06.04.1l-.06.14s-.06.06-.1.04l-.85,1.89c-.05.12-.19.17-.3.12l-1.33-.6c-.12-.05-.17-.19-.12-.3l1.32-2.94c.05-.12.19-.17.3-.12Z"/>
      <path class="cls-1" d="m58.74,25.91l1.07.48c.11.05.24,0,.29-.11l.49-1.1.17-.38.45-.99c.05-.11,0-.24-.11-.29l-.34-.15-.73-.33c-.11-.05-.24,0-.29.11l-.43.96-.49,1.09-.19.42c-.05.11,0,.24.11.29Z"/>
      <polygon class="cls-3" points="56.51 39.48 57.41 39.48 57.83 36.03 56.51 36.03 56.51 39.48"/>
      <path class="cls-2" d="m56.28,39.19h1.76s0,0,0,0c.62,0,1.12.5,1.12,1.12h0v.04h-2.89s0-1.16,0-1.16Z"/>
      <polygon class="cls-3" points="58.85 39.26 59.74 39.26 60.17 35.81 58.85 35.81 58.85 39.26"/>
      <path class="cls-2" d="m58.62,38.97h1.76s0,0,0,0c.62,0,1.12.5,1.12,1.12h0v.04h-2.89s0-1.16,0-1.16Z"/>
      <path class="cls-2" d="m52.49,31.37c.39,1.16,1.47,1.94,2.7,1.96h.05c.46.01,1.01-.14,1.54-.35,1.05-.42,2.06-1.1,2.33-1.29l-.45,4.37-.18,1.77c-.02.18.11.34.29.36.01,0,.02,0,.03,0h1.13c.15,0,.28-.1.32-.25l1.87-7.13c.2-.74-.25-1.5-.99-1.7-.15-.04-.3-.05-.45-.04l-3.89.27.27-1.09-3.47-.23h-.01c-.08.07-.16.13-.24.2-.19.16-.37.35-.51.56-.53.76-.65,1.72-.33,2.59Z"/>
      <path class="cls-2" d="m52.49,31.37c.39,1.16,1.47,1.94,2.7,1.96.57-.29,1.12-.62,1.65-.98l-.07.63-.57,5.51c-.02.18.11.34.29.36.01,0,.02,0,.03,0h1.13c.15,0,.28-.1.32-.25l.67-2.55,1.2-4.59c.2-.74-.25-1.5-.99-1.7-.15-.04-.3-.05-.45-.04l-3.89.27.27-1.09-1.97-.13c-.53.76-.65,1.72-.33,2.59Z"/>
      <path class="cls-1" d="m53.33,28.48h-.03s-.61-2.98-.61-2.98c0-.03-.5-2.6,1.02-3.94l.03-.18c.03-.18.19-.3.37-.28.02,0,.03,0,.05.01l1.43.44c.17.05.27.23.22.4l-.14.53c.19.23,2.46,2.96,1.67,5.07l-.35,1.38-3.67-.45Z"/>
      <path class="cls-3" d="m59.27,26.15s-.07.05-.1.07l-3.5-.94-.23-.85-1.33.18.26,1.54c.04.26.25.45.51.48l4.09.48c.18.38.63.55,1.02.38s.55-.63.38-1.02c-.18-.38-.63-.55-1.02-.38-.03.01-.06.03-.08.05h0Z"/>
      <path class="cls-1" d="m55.54,25.27l-1.65.21c-.18.02-.34-.1-.37-.28,0-.02,0-.03,0-.05l.03-1.65c-.06-.5.29-.96.79-1.02.5-.06.95.29,1.02.79l.45,1.59c.05.17-.05.36-.23.41-.02,0-.03,0-.05,0Z"/>
      <circle class="cls-3" cx="55.08" cy="18.91" r="1.79"/>
      <path class="cls-2" d="m54.98,19.06l-.22-.41c-.43,1.73.33,3.17.33,3.17l-2.92-1.36.03-.48-.29.33-.41-.23-.05-.31-.31.08,1.14-2.07c1.11-1.97,2.72-1.22,2.72-1.22,2.57-.12,2.25,2.41,2.25,2.41l-2.26.1Z"/>
      <ellipse class="cls-1" cx="32.68" cy="29.51" rx=".89" ry="3.47" transform="translate(-10.76 22.3) rotate(-32.66)"/>
    </g>
  </g>
</svg>