<?xml version="1.0" encoding="UTF-8"?>
<svg id="Layer_2" data-name="Layer 2" xmlns="http://www.w3.org/2000/svg" viewBox="0 0 56.1 58.12">
  <defs>
    <style>
      .cls-1 {
        fill: #1e2d2e;
      }

      .cls-1, .cls-2, .cls-3, .cls-4, .cls-5 {
        stroke-width: 0px;
      }

      .cls-2 {
        fill: #b2731c;
      }

      .cls-3 {
        fill: #fcf8f2;
      }

      .cls-4 {
        fill: #ffaf42;
      }

      .cls-5 {
        isolation: isolate;
        opacity: .15;
      }
    </style>
  </defs>
  <g id="Layer_2-2" data-name="Layer 2">
    <g>
      <path class="cls-2" d="m56.1,28.05c0,.82-.03,1.63-.1,2.43-.05.62-.13,1.24-.22,1.86-.1.65-.22,1.29-.37,1.92h0c-.09.42-.2.83-.31,1.24-.33,1.19-.73,2.36-1.22,3.5-.11.25-.21.49-.33.74-.42.92-.9,1.83-1.42,2.7-1.47,2.45-3.3,4.66-5.43,6.56-.23.21-.46.41-.7.61-5.04,4.21-11.39,6.51-17.95,6.5C12.56,56.1,0,43.54,0,28.05S12.56,0,28.05,0c6.34,0,12.49,2.13,17.44,6.08.23.18.46.37.69.56,1.11.94,2.14,1.96,3.08,3.05h0c4.42,5.09,6.85,11.61,6.84,18.35Z"/>
      <path class="cls-4" d="m8.28,32.9c-2.67-1.59-4.69-4.56-4.43-7.66,2.44,2.34,5.63,3.74,9.01,3.95,1.3.08,2.76.03,3.72.91.6.55.87,1.38.92,2.19.05.81-.12,1.62-.28,2.41l.06.19c-3.11.01-6.32-.4-9-1.99Z"/>
      <path class="cls-4" d="m3.92,25.23c1.07,2.34,2.85,4.28,5.09,5.56.48.27.99.5,1.54.61.53.1,1.08.06,1.59-.13.48-.16.95-.38,1.46-.42.54-.04,1.03.16,1.42.52.48.44.77,1.03,1.03,1.62.29.65.58,1.33,1.14,1.79.07.06-.02.16-.09.1-.97-.81-1.13-2.17-1.91-3.13-.36-.45-.86-.79-1.46-.78-.52,0-1,.23-1.49.4-.51.18-1.01.26-1.55.18-.55-.08-1.07-.29-1.55-.55-1.1-.59-2.1-1.35-2.96-2.24-.99-1.02-1.8-2.2-2.39-3.49-.04-.08.09-.12.13-.04h0Z"/>
      <path class="cls-4" d="m8.26,30.42c-.55.72-1.53.93-2.32.51-.08-.04-.02-.16.06-.12.74.4,1.66.19,2.16-.48.05-.07.15.02.1.09h0Z"/>
      <path class="cls-4" d="m11.9,31.38c-.11-.88-.55-1.69-1.23-2.27-.07-.06.02-.16.09-.1.71.6,1.16,1.44,1.28,2.36.01.09-.13.09-.14,0h0Z"/>
      <path class="cls-4" d="m5.36,27.68c.26-.23.4-.58.35-.92-.01-.09.13-.09.14,0,.05.38-.1.77-.38,1.02-.03.03-.07.03-.1,0-.03-.03-.03-.07,0-.1h0Z"/>
      <path class="cls-4" d="m12.5,19.23c0,.05.02.11.03.16.12.73.31,1.45.55,2.15.02.05.04.11.06.16.6,1.68,1.5,3.24,2.67,4.6.47.54.97,1.04,1.51,1.5.75.64,1.61,1.27,2.09,2.09.05.09.1.17.14.26l-2.04,4.64s-.02.02-.03.03l-.07.19s-.06-.05-.09-.07c-.02-.01-.03-.03-.05-.04-.01,0-.02-.02-.03-.02,0,0,0,0-.01,0-.01,0-.02-.02-.03-.02-.17-.13-.34-.26-.51-.39t0,0c-1.28-1.01-2.48-2.14-3.48-3.42-.03-.04-.06-.08-.09-.12-.44-.58-.84-1.19-1.19-1.83-.19-.35-.36-.71-.51-1.08-.39-.96-.63-1.97-.7-2.99-.15-2.05.36-4.13,1.68-5.67.03-.04.07-.08.1-.12Z"/>
      <path class="cls-4" d="m12.56,19.27c-.55,2.51-.3,5.14.72,7.5.22.5.49,1,.86,1.41.36.4.83.7,1.34.86.48.16.99.27,1.42.54.45.29.73.75.82,1.27.11.64,0,1.28-.15,1.91-.16.69-.33,1.41-.17,2.12.02.09-.11.11-.13.03-.29-1.23.4-2.42.36-3.65-.02-.57-.22-1.15-.7-1.5-.42-.31-.94-.42-1.43-.57-.51-.16-.96-.4-1.34-.79-.39-.39-.68-.88-.91-1.37-.52-1.13-.86-2.34-1.01-3.57-.18-1.41-.11-2.84.2-4.23.02-.09.15-.04.13.05h0Z"/>
      <path class="cls-4" d="m12.9,26.03c-.87.24-1.78-.18-2.16-.99-.04-.08.09-.14.12-.06.35.76,1.21,1.15,2.01.92.08-.02.11.11.03.13h0Z"/>
      <path class="cls-4" d="m15.23,28.99c.44-.77.58-1.68.38-2.55-.02-.09.11-.11.13-.03.21.9.06,1.85-.4,2.66-.04.08-.16,0-.11-.08h0Z"/>
      <path class="cls-4" d="m12.23,22.09c.35-.02.66-.22.83-.53.04-.08.16,0,.11.08-.19.34-.54.55-.92.58-.04,0-.07-.02-.08-.05,0-.04.02-.07.05-.08h0Z"/>
      <path class="cls-3" d="m19.43,6.5l3.43,40.19-6.87.52V7.01c.82-.54,1.99-.63,3.43-.51Z"/>
      <path class="cls-3" d="m36.38,6.5l-3.43,40.19,6.87.52V7.01c-.82-.54-1.99-.63-3.43-.51Z"/>
      <path class="cls-3" d="m38.79,48.87h-21.83c-.73,0-1.32-.59-1.32-1.32V7.6c0-.73.59-1.32,1.32-1.32h21.83c.73,0,1.32.59,1.32,1.32v39.95c0,.73-.59,1.32-1.32,1.32ZM16.95,6.72c-.49,0-.88.4-.88.88v39.95c0,.49.4.88.88.88h21.83c.49,0,.88-.4.88-.88V7.6c0-.49-.4-.88-.88-.88h-21.83Z"/>
      <rect class="cls-3" x="15.85" y="12.93" width="24.03" height=".44"/>
      <rect class="cls-3" x="15.85" y="20.24" width="24.03" height=".44"/>
      <rect class="cls-3" x="23.21" y="6.5" width=".44" height="19.94"/>
      <rect class="cls-3" x="32.09" y="6.5" width=".44" height="19.94"/>
      <path class="cls-3" d="m42.63,50.08H13.84c-1.09,0-1.97-.88-1.97-1.97s.88-1.97,1.97-1.97h28.78c1.09,0,1.97.88,1.97,1.97s-.88,1.97-1.97,1.97Z"/>
      <rect class="cls-3" x="16" y="25.42" width="23.89" height="1.46"/>
      <path class="cls-1" d="m23.72,30.07h-.03c-1.63-.8-3.76-.8-6.91-.01h-.03s-.01-.02-.01-.02c-.33-1.09-.71-2.33,0-2.94,0-1.79,1.58-3.24,3.51-3.24s3.5,1.45,3.51,3.24c1.06.81.55,2,0,2.95l-.02.03Z"/>
      <path class="cls-4" d="m33.73,26.24c-.11.55-.64.9-1.19.79-.06-.01-.12-.03-.17-.05l-5.75,5.78-.51-1.8,5.72-5.37c.24-.51.85-.72,1.35-.48.42.2.66.67.56,1.13h0Z"/>
      <path class="cls-1" d="m19.51,31.81s-.52,1.18.77,1.91c1.29.73,5.79-.28,6.52-.42s3.46-4.22,3.46-4.22l-.39-2-3.62,3.14-6.74,1.59Z"/>
      <path class="cls-4" d="m18.56,38.35l.07,1.39s-.22,1.23-.04,1.49c.18.26,4.98.3,4.98.3,0,0,.32-1.71.59-3.21l-5.6.03Z"/>
      <polygon class="cls-4" points="32.36 56.7 33.37 56.5 33.08 52.45 31.6 52.75 32.36 56.7"/>
      <polygon class="cls-4" points="33.8 51.43 34.73 51.01 33.52 47.13 32.15 47.75 33.8 51.43"/>
      <path class="cls-1" d="m34.61,49.24l-1.76,1-4.33-6.96c-3.04,2.05-6.02,3.03-9.02,3.56-1.01.18-2.05.09-2.24-.94,0-.05-.02-.1-.02-.15-.12-1.13,1.28-2.57,1.46-3.95l3.84-.23.47.61,4.44-2.73c.89-.55,2.07-.25,2.62.66.03.05.06.1.08.15l4.46,9Z"/>
      <path class="cls-1" d="m33.54,53.93l-2.01.19-3.65-7.46c-3.62.62-7.03.82-9.98.07-1-.25-1.61-1.28-1.36-2.3.01-.05.02-.09.04-.14.35-1.08,1.28-1.84,2.01-3.02l5.32.08-.59,2.05,5.17-.67c1.04-.13,1.99.62,2.12,1.68,0,.06.01.11.01.17l2.93,9.36Z"/>
      <circle class="cls-4" cx="20.63" cy="26.85" r="2.16"/>
      <path class="cls-1" d="m19.37,29.79l1.98.23c.17.02.31.15.35.32l.31,1.44,1.96,2.31s.71,1.32.44,2.82c-.26,1.5-.38,2.61-.38,2.61,0,0-5.27,1.97-5.44,1.71s-.23-1.47-.23-1.47l-.71-7.84s.79-1.32,1.23-1.32c.28,0,.25-.65.48-.81Z"/>
      <ellipse class="cls-2" cx="24.09" cy="39.4" rx=".5" ry=".6"/>
      <path class="cls-1" d="m31.86,55.66l1.53-.77.29.67,1.94.39c.25.05.41.29.36.54-.03.15-.13.27-.27.33l-1.87.8-.61-.53.16.72-.71.3-.82-2.46Z"/>
      <path class="cls-1" d="m33.36,51.1l1.52-.79.3.67,1.94.36c.25.05.41.28.37.53-.03.15-.13.27-.26.33l-1.86.83-.62-.52.17.72-.7.31-.86-2.45Z"/>
      <path class="cls-1" d="m19.4,26.17c-.57,0-1.13-.17-1.59-.5h-.02v-.03c0-1.15.93-2.08,2.08-2.08h.88c1.15,0,2.08.93,2.08,2.08,0,.26-.21.48-.47.48l-2.91.05s-.03,0-.05,0Z"/>
      <ellipse class="cls-1" cx="22.57" cy="24.55" rx=".58" ry=".8" transform="translate(-9.25 14.57) rotate(-30)"/>
      <ellipse class="cls-1" cx="18.19" cy="24.4" rx=".8" ry=".58" transform="translate(-11.93 20.01) rotate(-45)"/>
      <path class="cls-1" d="m37.72,44.56h-2.16c-.1,0-.19.04-.26.12-.28-.05-.54.13-.6.41-.05.28.13.54.41.6.11.02.22,0,.32-.04l.18.58c.04.14.17.24.32.24h1.4c.15,0,.28-.1.32-.24l.38-1.23c.05-.18-.05-.37-.22-.42-.03,0-.07-.01-.1-.01Zm-2.5.99c-.2,0-.37-.16-.37-.37s.16-.37.37-.37c0,0,.01,0,.02,0-.01.06-.01.12,0,.18l.15.5c-.05.03-.12.05-.18.05h0Z"/>
      <path class="cls-4" d="m28.09,42.98c-.56.05-1.05-.36-1.1-.91,0-.06,0-.12,0-.18l-7.19-3.85,1.57-1.01,6.78,3.93c.56.08.94.6.85,1.16-.07.46-.45.82-.92.86h0Z"/>
      <path class="cls-1" d="m18.68,30.95s-1.28-.16-1.61,1.28c-.33,1.44,1.93,5.47,2.27,6.13.34.66,5.04,2.1,5.04,2.1l1.81-.94-4.05-2.57-3.46-6Z"/>
      <path class="cls-3" d="m27.72,24.98h.44c.44,0,.8.36.8.8h-2.05c0-.44.36-.8.8-.8h0Z"/>
      <path class="cls-5" d="m36.46,35.4c-.22.03-.44.03-.65,0-.06-.11-.11-.22-.15-.33.24.16.51.27.8.33Z"/>
    </g>
  </g>
</svg>