<?xml version="1.0" encoding="UTF-8"?>
<svg id="Layer_2" data-name="Layer 2" xmlns="http://www.w3.org/2000/svg" viewBox="0 0 72.76 53.89">
  <defs>
    <style>
      .cls-1 {
        fill: #1e2d2e;
      }

      .cls-1, .cls-2, .cls-3 {
        stroke-width: 0px;
      }

      .cls-2 {
        fill: #b2731c;
      }

      .cls-3 {
        fill: #fcf8f2;
      }

      .cls-4 {
        fill: none;
        stroke: #233536;
        stroke-miterlimit: 10;
        stroke-width: .25px;
      }
    </style>
  </defs>
  <g id="Layer_2-2" data-name="Layer 2">
    <g>
      <polygon class="cls-2" points="70.01 53.87 0 53.87 0 .5 70.01 22.25 70.01 53.87"/>
      <circle class="cls-3" cx="49.61" cy="40.44" r="7.65"/>
      <line class="cls-4" x1="49.55" y1="53.87" x2="49.61" y2="40.4"/>
      <circle class="cls-1" cx="49.61" cy="40.4" r="1.96"/>
      <path class="cls-1" d="m49.57,48.95s-.25-6.03-6-5.36"/>
      <circle class="cls-3" cx="17.57" cy="25.08" r="7.65"/>
      <line class="cls-4" x1="17.14" y1="53.87" x2="17.58" y2="25.07"/>
      <circle class="cls-1" cx="17.58" cy="25.07" r="1.96"/>
      <path class="cls-1" d="m17.45,33.06s-.19-6.03-5.94-5.42"/>
      <path class="cls-4" d="m17.14,52.78s1.44-11.57-5.84-12.25"/>
      <circle class="cls-1" cx="11.31" cy="40.54" r="1.96"/>
      <circle class="cls-3" cx="34.02" cy="8.1" r="7.65"/>
      <line class="cls-4" x1="34.02" y1="53.87" x2="34.02" y2="8.13"/>
      <circle class="cls-1" cx="34.02" cy="8.11" r="1.96"/>
      <circle class="cls-1" cx="28" cy="41.59" r="1.96"/>
      <path class="cls-1" d="m34.02,18.13s-.28-6.03-6.03-5.33"/>
      <path class="cls-1" d="m34.02,35.22s-.28-6.03-6.03-5.33"/>
      <path class="cls-4" d="m34.02,53.87s1.26-11.72-6.03-12.28"/>
      <circle class="cls-1" cx="40.17" cy="23.19" r="1.96"/>
      <path class="cls-4" d="m34.14,34.84s-1.26-11.09,6.03-11.65"/>
      <path class="cls-1" d="m50.38,18.75c-1.52,0-2.75-1.23-2.75-2.75s1.23-2.75,2.75-2.75,2.75,1.23,2.75,2.75c0,1.52-1.23,2.75-2.75,2.75Zm0-5.25c-1.38,0-2.5,1.12-2.5,2.5s1.12,2.5,2.5,2.5,2.5-1.12,2.5-2.5c0-1.38-1.12-2.5-2.5-2.5Z"/>
      <path class="cls-1" d="m7.13,5.5c-1.52,0-2.75-1.23-2.75-2.75S5.61,0,7.13,0s2.75,1.23,2.75,2.75c0,1.52-1.23,2.75-2.75,2.75ZM7.13.25c-1.38,0-2.5,1.12-2.5,2.5s1.12,2.5,2.5,2.5,2.5-1.12,2.5-2.5c0-1.38-1.12-2.5-2.5-2.5Z"/>
      <path class="cls-1" d="m70.01,46.26c-1.52,0-2.75-1.23-2.75-2.75s1.23-2.75,2.75-2.75,2.75,1.23,2.75,2.75c0,1.52-1.23,2.75-2.75,2.75Zm0-5.25c-1.38,0-2.5,1.12-2.5,2.5s1.12,2.5,2.5,2.5,2.5-1.12,2.5-2.5c0-1.38-1.12-2.5-2.5-2.5Z"/>
      <circle class="cls-1" cx="58.39" cy="23.13" r="1.63"/>
    </g>
  </g>
</svg>