<?xml version="1.0" encoding="UTF-8"?>
<svg id="Layer_2" data-name="Layer 2" xmlns="http://www.w3.org/2000/svg" viewBox="0 0 42.11 36.05">
  <defs>
    <style>
      .cls-1 {
        fill: #6f6380;
      }

      .cls-1, .cls-2, .cls-3, .cls-4 {
        stroke-width: 0px;
      }

      .cls-2 {
        fill: #1e2d2e;
      }

      .cls-3 {
        fill: #bdb2cd;
      }

      .cls-4 {
        fill: #fcf8f2;
      }
    </style>
  </defs>
  <g id="Layer_2-2" data-name="Layer 2">
    <g>
      <path class="cls-1" d="m12.38,35.67c.68-.57,1.09-1.47.98-2.35s-.77-1.69-1.64-1.87c-.87-.19-1.85.33-2.11,1.18-.14-1.63-.31-3.33-1.18-4.71-.78-1.26-2.14-2.16-3.62-2.32-1.47-.16-3.02.45-3.94,1.61-.92,1.16-1.14,2.85-.5,4.19.47.98,1.35,1.71,2.26,2.31,2.96,1.91,6.5,2.68,9.98,2.18"/>
      <path class="cls-3" d="m2.32,26.07c1.22.99,2.33,2.1,3.33,3.3,1.56,1.88,2.83,4,3.75,6.26.07.17-.2.24-.27.07-.59-1.43-1.31-2.81-2.17-4.1-1.33-2.02-2.96-3.82-4.84-5.35-.14-.11.06-.31.2-.2Z"/>
      <path class="cls-1" d="m12.84,35.67c-.68-.57-1.09-1.47-.98-2.35s.77-1.69,1.64-1.87c.87-.19,1.85.33,2.11,1.18.14-1.63.31-3.33,1.18-4.71.78-1.26,2.14-2.16,3.62-2.32,1.47-.16,3.02.45,3.94,1.61.92,1.16,1.14,2.85.5,4.19-.47.98-1.35,1.71-2.26,2.31-2.96,1.91-6.5,2.68-9.98,2.18"/>
      <path class="cls-3" d="m22.9,26.07c-1.22.99-2.33,2.1-3.33,3.3-1.56,1.88-2.83,4-3.75,6.26-.07.17.2.24.27.07,1.51-3.68,3.92-6.93,7-9.45.14-.11-.06-.31-.2-.2h0Z"/>
      <circle class="cls-2" cx="14.85" cy="13.95" r="2.26"/>
      <path class="cls-1" d="m7.87,6.15h15.6v.85h-13.61c-3.37,0-6.09,2.73-6.09,6.09h0v9.7h-1.71c-.16,0-.28-.13-.28-.28v-10.27c0-3.37,2.73-6.09,6.09-6.09h0Z"/>
      <path class="cls-2" d="m10.87,35.72v-12.97h3.8v12.97c0,.18-.15.33-.33.33h-3.14c-.18,0-.33-.15-.33-.33Z"/>
      <path class="cls-2" d="m.97,22.5v-10.54c0-3.49,2.84-6.33,6.33-6.33h16.1v17.24H1.34c-.2,0-.37-.16-.37-.37ZM23.25,5.77H7.3c-3.41,0-6.18,2.77-6.18,6.18v10.54c0,.12.1.22.22.22h21.92V5.77Z"/>
      <path class="cls-2" d="m14.85,15.12c-.73,0-1.31-.59-1.31-1.31V4.38c0-.12-.1-.22-.22-.22h-5.11c-.2,0-.37-.16-.37-.37V.37c0-.2.16-.37.37-.37h7.6c.2,0,.37.16.37.37v13.44c0,.73-.59,1.31-1.31,1.31Z"/>
      <path class="cls-2" d="m23.98,5.48h0c2.29,0,4.16,1.85,4.16,4.15v12h8.18c.68,0,1.24.55,1.24,1.24h-17.75v-13.24c0-2.29,1.87-4.15,4.16-4.15Z"/>
      <path class="cls-3" d="m22.98,12.31l.86,3.56,16.87-4.08-.86-3.56c-.02-.09-.09-.16-.17-.19-.03-.01-.06-.02-.1-.01l-9.75-5.05c-.12-.06-.26-.03-.34.08l-4.7,6.55-1.77,2.47s0,.02,0,.03c-.04.06-.05.13-.03.2Z"/>
      <path class="cls-2" d="m23.01,12.11s0,.02.01.02c0,0,.02,0,.03,0,0,0,.02,0,.02-.02h0s.09-.14.09-.14l1.67-2.34,4.7-6.55c.06-.08.16-.1.24-.06l9.67,5.01.09.05s0,0,.01,0c0,0,.01,0,.02,0,0,0,.02,0,.02-.02,0-.02,0-.04-.02-.05,0,0,0,0,0,0h-.01s-9.75-5.05-9.75-5.05c-.12-.06-.26-.03-.34.08l-4.7,6.55-1.77,2.47s0,.02,0,.03Z"/>
      <path class="cls-2" d="m28.08,12.48l.38.04,2.79.31,1.85.2h.11s2.3-1.79,2.3-1.79l.09-.07.54-.43,1.94-1.51v-.11s.7-6.22.7-6.22c.02-.18-.11-.34-.29-.36l-9.19-1.02c-.18-.02-.34.11-.36.29l-.49,4.39-.27,2.43-.24,2.18-.11,1.01-.03.29c-.02.18.11.34.29.36Z"/>
      <path class="cls-3" d="m30.6,7.03l3.98.44,1.41.16c.26.03.5-.16.53-.42s-.16-.5-.42-.53h0l-1.76-.19-3.64-.4c-.26-.03-.5.16-.53.42-.03.26.16.5.42.53Z"/>
      <path class="cls-3" d="m30.38,8.79s.02,0,.03,0l4.62.51.77.09c.26.03.5-.16.53-.42.03-.26-.16-.5-.42-.53h0l-1.12-.12-3.66-.41-.62-.07c-.26-.03-.5.16-.53.42-.03.25.14.48.39.52h0Z"/>
      <path class="cls-3" d="m29.85,10.35c.08.13.21.21.36.23l1.89.21,3.37.37h0s.11.01.11.01l.54-.43s0-.06,0-.1c-.02-.22-.2-.4-.42-.43l-.47-.05-1.86-.21-1.34-.15-1.73-.19c-.26-.03-.5.16-.53.42-.01.1.01.21.07.3h0Z"/>
      <path class="cls-3" d="m32.52,4.87l.99.11.44.05.66.07c.26.03.5-.16.53-.42.03-.26-.16-.5-.42-.53h0l-2.09-.23c-.26-.03-.5.16-.53.42-.03.26.16.5.42.53h0Z"/>
      <path class="cls-4" d="m24.41,7.52l1.21,4.99,2.02.38,1.87.36,2,.38.64.12c.08.01.15,0,.21-.05l.51-.4.32-.25,2.3-1.8-1.47-6.05c-.01-.06-.05-.12-.09-.16-.08-.08-.19-.11-.3-.08l-8.99,2.18c-.17.04-.28.22-.24.39Z"/>
      <path class="cls-3" d="m27.18,11.49c.06.26.32.41.58.35l5.28-1.28c.26-.06.41-.32.35-.58,0,0,0-.01,0-.02-.07-.25-.32-.39-.57-.33l-5.28,1.28c-.26.06-.41.32-.35.58Z"/>
      <path class="cls-3" d="m27.64,12.89l1.87.36,3.95-.96c.26-.06.41-.32.35-.58-.06-.26-.32-.41-.58-.35l-5.28,1.28c-.11.03-.21.09-.27.18-.02.02-.03.05-.04.07Z"/>
      <path class="cls-3" d="m31.5,13.63l.64.12c.08.01.15,0,.21-.05l.51-.4-1.37.33Z"/>
      <path class="cls-3" d="m28.25,8.81c.06.26.32.41.58.35l2.04-.49c.26-.06.41-.32.35-.58-.02-.07-.05-.13-.09-.18-.12-.15-.31-.21-.49-.17l-2.04.49c-.26.06-.41.32-.35.58h0Z"/>
      <path class="cls-3" d="m29.5,13.25l2,.38.64.12c.08.01.15,0,.21-.05l.51-.4-.18.04-.38.3s-.1.05-.15.04l-.47-.09-2-.38-.18.04Zm5.98-2.08l.02.08.09-.07h-.11Zm-5.98,2.08l2,.38.64.12c.08.01.15,0,.21-.05l.51-.4-.18.04-.38.3s-.1.05-.15.04l-.47-.09-2-.38-.18.04Zm0,0l2,.38.64.12c.08.01.15,0,.21-.05l.51-.4-.18.04-.38.3s-.1.05-.15.04l-.47-.09-2-.38-.18.04Zm-6.52-.93l2.26,9.33c.03.14.18.23.32.2l16.35-3.96c.14-.03.23-.18.2-.32l-2.26-9.33c-.02-.09-.09-.16-.17-.19-.03-.01-.06-.02-.1-.01-.04,0-.08.01-.11.03-.02,0-.03.02-.04.03l-1.34,1.05-1.95,1.52-.65.51h0s0,0,0,0l-2.39,1.87-.4.31-.38.3s-.1.05-.15.04l-.47-.09-2-.38-2-.38-4.39-.83s-.08,0-.11,0c-.05.01-.1.04-.13.08-.01.01-.03.03-.04.05-.04.06-.05.13-.03.2h0Zm6.52.93l2,.38.64.12c.08.01.15,0,.21-.05l.51-.4-.18.04-.38.3s-.1.05-.15.04l-.47-.09-2-.38-.18.04Zm0,0l2,.38.64.12c.08.01.15,0,.21-.05l.51-.4-.18.04-.38.3s-.1.05-.15.04l-.47-.09-2-.38-.18.04Zm0,0l2,.38.64.12c.08.01.15,0,.21-.05l.51-.4-.18.04-.38.3s-.1.05-.15.04l-.47-.09-2-.38-.18.04Z"/>
      <path class="cls-2" d="m29.5,13.25l2,.38.64.12c.08.01.15,0,.21-.05l.51-.4-.18.04-.38.3s-.1.05-.15.04l-.47-.09-2-.38-.18.04Zm5.98-2.08l.02.08.09-.07h-.11Zm-5.98,2.08l2,.38.64.12c.08.01.15,0,.21-.05l.51-.4-.18.04-.38.3s-.1.05-.15.04l-.47-.09-2-.38-.18.04Zm0,0l2,.38.64.12c.08.01.15,0,.21-.05l.51-.4-.18.04-.38.3s-.1.05-.15.04l-.47-.09-2-.38-.18.04Zm-6.42-1.13h0s0,0,0,0c.04-.05.11-.07.17-.06l4.36.83,1.86.36,2,.38.64.12c.08.01.15,0,.21-.05l.51-.4-.18.04-.38.3s-.1.05-.15.04l-.47-.09-2-.38-2-.38-4.39-.83s-.08,0-.11,0l-.09.13Zm-.1.19l2.26,9.33c.03.14.18.23.32.2l16.35-3.96c.14-.03.23-.18.2-.32l-2.26-9.33c-.02-.09-.09-.16-.17-.19-.03-.01-.06-.02-.1-.01-.04,0-.08.01-.11.03-.02,0-.03.02-.04.03l-1.34,1.05-1.95,1.52-.65.51h0s0,0,0,0l-2.39,1.87-.4.31-.38.3s-.1.05-.15.04l-.47-.09-2-.38-2-.38-4.39-.83s-.08,0-.11,0c-.05.01-.1.04-.13.08-.01.01-.03.03-.04.05-.04.06-.05.13-.03.2h0Zm.07-.02c-.01-.06,0-.11.03-.16,0,0,0,0,0,0,0,0,0,0,0,0,.04-.05.11-.07.17-.06l4.36.83,1.86.36,2,.38.64.12c.08.01.15,0,.21-.05l.51-.4.32-.25,2.3-1.8.09-.07.54-.42,1.94-1.51,1.4-1.09s.05-.03.07-.03c0,0,.01,0,.02,0,0,0,.01,0,.02,0,.02,0,.04,0,.07.01.06.02.11.07.12.14l2.26,9.33c.02.1-.04.21-.14.23,0,0,0,0,0,0l-16.35,3.96c-.1.02-.21-.04-.23-.14l-2.26-9.33Zm6.45.95l2,.38.64.12c.08.01.15,0,.21-.05l.51-.4-.18.04-.38.3s-.1.05-.15.04l-.47-.09-2-.38-.18.04Zm0,0l2,.38.64.12c.08.01.15,0,.21-.05l.51-.4-.18.04-.38.3s-.1.05-.15.04l-.47-.09-2-.38-.18.04Zm0,0l2,.38.64.12c.08.01.15,0,.21-.05l.51-.4-.18.04-.38.3s-.1.05-.15.04l-.47-.09-2-.38-.18.04Z"/>
      <path class="cls-1" d="m37.65,16.05c-.08-.32.12-.64.44-.72l2.06-.5c.32-.08.64.12.71.44.08.32-.12.64-.44.71l-2.06.5c-.32.08-.64-.12-.72-.44Z"/>
      <circle class="cls-3" cx="14.85" cy="13.81" r=".51"/>
    </g>
  </g>
</svg>