<?xml version="1.0" encoding="UTF-8"?>
<svg id="Layer_2" data-name="Layer 2" xmlns="http://www.w3.org/2000/svg" viewBox="0 0 37.65 49.88">
  <defs>
    <style>
      .cls-1 {
        fill: #6f6380;
      }

      .cls-1, .cls-2, .cls-3 {
        stroke-width: 0px;
      }

      .cls-2 {
        fill: #1e2d2e;
      }

      .cls-3 {
        fill: #bdb2cd;
      }
    </style>
  </defs>
  <g id="Layer_2-2" data-name="Layer 2">
    <g>
      <path class="cls-1" d="m7.29,33.13c-.8.29-1.75.65-2.59.33-.6-.23-1.19-.93-.96-1.61.27-.76,1.32-.96,2.02-.99.88-.04,1.75.18,2.56.5,1.64.66,3.06,1.77,4.69,2.46,1.56.64,3.22,1.01,4.91,1.09,3.43.18,6.81-.73,9.89-2.19,1.52-.72,2.98-1.55,4.37-2.5,1.28-.88,2.5-1.89,3.47-3.11.93-1.17,1.62-2.52,1.88-4,.25-1.4.13-2.89-.5-4.18-.16-.32-.35-.63-.57-.92-.08-.11-.28,0-.19.11.92,1.19,1.25,2.7,1.14,4.18-.12,1.53-.7,2.98-1.6,4.22-.94,1.31-2.17,2.38-3.48,3.31-1.38.97-2.84,1.82-4.36,2.56-3.14,1.52-6.6,2.48-10.11,2.29-1.73-.1-3.45-.47-5.03-1.18-1.62-.73-3.05-1.85-4.73-2.46-.8-.29-1.66-.47-2.51-.4-.69.06-1.54.26-1.94.89-.36.57-.12,1.28.33,1.72.56.54,1.34.62,2.08.48.44-.09.87-.22,1.29-.39.13-.05.07-.26-.06-.21h0Z"/>
      <path class="cls-1" d="m17.08.46C15.08.02,13.01-.11,10.96.09c-.94.09-1.89.22-2.8.49-.72.22-1.44.55-1.91,1.16-1.25,1.6.14,3.54.66,5.11.28.84.42,1.82-.12,2.59-.5.7-1.4,1-2.23.9-.89-.11-1.74-.62-2.29-1.32-.5-.64-.78-1.54-.39-2.31.33-.64,1.02-1.06,1.72-1.14.77-.09,1.51.25,2.04.8.57.61.9,1.41.91,2.24.03.96-.27,1.91-.74,2.74-.96,1.71-2.53,2.95-3.75,4.46-.57.69-1.03,1.45-1.38,2.27-.32.77-.53,1.58-.62,2.41-.2,1.67.06,3.35.74,4.88.17.37.37.73.59,1.07.08.12.27,0,.19-.11-.94-1.45-1.39-3.18-1.36-4.9.02-1.75.56-3.45,1.56-4.89,1.15-1.64,2.78-2.88,3.9-4.56,1-1.5,1.57-3.54.57-5.18-.4-.67-1.04-1.21-1.8-1.41-.72-.18-1.48-.03-2.08.41-.62.45-.97,1.16-.88,1.93.1.84.63,1.58,1.3,2.08.72.54,1.65.86,2.56.72.82-.13,1.56-.65,1.87-1.43.35-.86.11-1.83-.21-2.66-.35-.9-.84-1.76-.99-2.72-.07-.47-.05-.97.14-1.41.16-.36.42-.67.74-.9.66-.49,1.49-.7,2.29-.86,2.09-.4,4.23-.46,6.33-.16.51.07,1.01.16,1.51.27.14.03.2-.18.06-.21h0Z"/>
      <path class="cls-3" d="m11.74,47.73c-11.94.27-5.69-23.49-5.69-30.24s5.49-12.24,12.24-12.24,12.24,5.49,12.24,12.24c0,6.75-12.04,30.24-18.79,30.24Zm17.77-31.6c-3.95-6.43-12.91-7.5-18.3-2.23-1.48,1.45-3.09,2.73-4.82,3.59-5.47,2.71,6.38,13.72,11.9,11.9,4.87-2.56,20.14-4.67,11.9-11.9-.34-.3-.39-.88-.68-1.36Z"/>
      <path class="cls-1" d="m8.76,17.46s-.05.03-.05.06c0,.02.01.03.02.04.3.22.57.47.81.74.02.02.05.03.08,0,.01-.01.02-.03.02-.05l-.04-.46,2.62.67.04-.14-2.62-.67.26-.38s.01-.06-.01-.08c-.02-.01-.03-.01-.05,0-.34.13-.7.22-1.06.27Z"/>
      <path class="cls-1" d="m22.76,2.93s-.06,0-.07.03c0,.01,0,.03,0,.04.17.33.3.67.38,1.03,0,.03.04.05.07.04.02,0,.03-.02.04-.03l.17-.43,2.03,1.78.1-.11-2.03-1.78.41-.22s.04-.05.02-.08c0-.02-.03-.03-.04-.03-.36-.04-.72-.12-1.07-.24Z"/>
      <path class="cls-1" d="m8.75,42.82s.02.06.05.06c.02,0,.03,0,.04-.01.27-.24.58-.45.9-.63.03-.01.04-.05.02-.07,0-.02-.02-.03-.04-.03l-.46-.06,1.22-2.41-.13-.07-1.22,2.41-.32-.34s-.06-.02-.08,0c-.01.01-.02.03-.02.05.05.36.06.73.03,1.1Z"/>
      <path class="cls-1" d="m34.33,8.32s0-.06-.02-.07c-.01,0-.03,0-.04,0-.34.13-.7.21-1.07.25-.03,0-.05.03-.05.06,0,.02.01.03.03.04l.41.22-2.01,1.8.1.11,2.01-1.8.17.43s.04.04.07.03c.02,0,.03-.02.03-.04.08-.36.21-.7.37-1.03Z"/>
      <path class="cls-1" d="m32.54,27.31s.02-.06,0-.08c-.01-.01-.02-.02-.04-.02-.37,0-.73-.06-1.09-.15-.03,0-.06,0-.07.04,0,.02,0,.04.01.05l.3.35-2.53.94.05.14,2.53-.94v.46s.03.06.06.06c.02,0,.04,0,.05-.03.21-.3.45-.58.72-.83Z"/>
      <path class="cls-3" d="m11.42,21.86l3.21-5.07c.28-.45.87-.58,1.32-.3h0c.46.28.6.88.32,1.33,0,.01-.02.03-.03.04l-3.5,5.16-1.99,3.23c.27.38.18.91-.2,1.18-.38.27-.91.18-1.18-.2s-.18-.91.2-1.18c.04-.03.08-.05.13-.08l1.71-4.12Z"/>
      <circle class="cls-3" cx="18.51" cy="9.67" r="2.37"/>
      <polygon class="cls-3" points="25.48 48.2 26.32 48.2 26.72 44.96 25.48 44.96 25.48 48.2"/>
      <path class="cls-2" d="m26.6,48.27v-.57h-.22s-.9.07-.9.07h-.21s-.16,1.92-.16,1.92v.1s.59,0,.59,0l.02-.1.09-.46.22.46.05.1h1.58c.2,0,.35-.16.35-.36.07-.31-1.25-.98-1.41-1.16Z"/>
      <polygon class="cls-3" points="10.51 44.5 11.15 45.05 13.54 42.83 12.59 42.04 10.51 44.5"/>
      <path class="cls-2" d="m11.31,45.28l.37-.43-.18-.13-.72-.54-.17-.12-1.35,1.35-.07.07.45.38.08-.06.36-.3-.13.5-.03.11,1.2,1.02c.15.13.37.11.5-.04.25-.19-.32-1.56-.33-1.8Z"/>
      <path class="cls-1" d="m32.38,48.59c.09,0,.17-.07.17-.16,0-.05-.02-.1-.05-.13v-.05s0,0,0-.01c.1-.23.36-.33.58-.24.11.05.19.13.24.24.13.32.31.65.35.99.02.15.01.3-.02.45.32-.69.48-1.44.48-2.19,0-.19-.01-.38-.03-.57-.02-.15-.04-.31-.07-.46-.17-.83-.53-1.6-1.06-2.26-.26-.14-.46-.35-.59-.61-.05-.09-.08-.19-.1-.3.03,0,.11-.43.09-.46.04-.06.11-.09.16-.15.22-.3.52-.24.67.16.33.17.34.45.13.72-.13.17-.15.4-.26.59.01.02.02.03.04.04.22.28.4.58.56.89-.04-.35,0-.71.13-1.04.13-.31.37-.57.58-.83.16-.2.44-.24.64-.08.1.07.16.18.17.31,0,0,0,0,0,.01-.03.02-.06.04-.09.06-.1.07-.13.21-.06.31.04.05.09.09.15.1h0c-.01.11-.03.23-.06.34.27,1.05-.31,1.43-1.15,1.44-.02,0-.04.02-.05.03.16.45.26.92.3,1.39.02.28.02.56,0,.84h0c.06-.32.23-.6.47-.8.36-.3.87-.41,1.26-.64.12-.08.28-.04.36.08.03.05.05.11.04.17h0c-.06.03-.11.06-.17.09-.03.02-.06.04-.09.06-.1.07-.13.21-.06.31.04.05.09.09.15.1h0s0,0,0,0c-.1.24-.24.46-.41.64-.17.91-.9,1-1.67.73h0c-.09.37-.21.73-.37,1.08h-1.32s0-.03-.01-.04c.12,0,.24,0,.36-.02-.1-.12-.2-.24-.29-.36,0,0,0,0,0,0-.05-.06-.1-.12-.15-.18h0c0-.19.02-.38.06-.56h0Z"/>
      <path class="cls-3" d="m36.3,49.8s-.04.09-.09.09h-18.5s-.09-.04-.09-.09.04-.09.09-.09h18.5s.09.04.09.09h0Z"/>
      <path class="cls-2" d="m17.57,23.35l5.72-1.48s2.81,3.55,2.95,7.78c0,.22-.11.49.02.76s-.17.77.02.99.27.41,0,.68.46,11.86.72,12.3c.33.53-.29.95.02,1.18s.02.89.02.89h-1.61l-2.3-8.49s-1.45-3.94-1.2-4.44-.19-.7-.19-.7c0,0-.38-.16-.15-.57s-.47-1.74-.47-1.74c.31-.04-.15,4.09-2.01,7.82-1.36,2.72-3.7,3.46-3.83,3.95-.28,1.08-1.66-.1-1.24.73s-.88.73-.88.73l-1.46-1.17,4.46-5.48.48-5.83s.26-.08.11-.38.35-.26.17-.61.29-.33.17-.59.15-.51.15-.51c0,0-.7-2.39.59-4.12l-.26-1.72Z"/>
      <path class="cls-2" d="m24.82,24.48s-1.02-2.34-1.31-2.63-1.28-.82-1.06-1.04.65-.09.29-.48-.64-1.16-.64-1.16l.32-3.67-1.68-2.12-1.06-1.04-2.58-.17-.14,1.48s-2.38,1.23-1.84,3.61c.55,2.38,1.53,2.69,1.24,5.61-.03.33,1.26-.08.99.06-.15.07-.82,1.39-.38,1.68.27.18.57.33.88.44,2.24-1.77,4.54-2.58,6.99-.57Z"/>
      <path class="cls-3" d="m26,17.18l-5.76-1.69c-.51-.15-.8-.68-.66-1.19h0c.14-.52.68-.82,1.19-.67.02,0,.03,0,.05.02l5.93,1.94,3.65,1.02c.29-.36.82-.42,1.19-.13.36.29.42.82.13,1.19s-.82.42-1.19.13c-.04-.03-.08-.07-.11-.1l-4.43-.51Z"/>
      <path class="cls-2" d="m15.83,8.15c-.33-1.2,3.26-2.23,3.96-1.26.1-.14.46-.22.62-.18.16.05.31.14.44.25.19.14.38.29.49.5.11.2.13.48-.02.66-.12.14-.34.89-.52.93-.13.03-.24.05-.33.06-.08-.12-.29-.27-.28-.42-.12.08-.08.23-.05.38.08.49,1.97,4.33.89,3.2-.12.07-.26.13-.39.18-.27-.41-.48-.86-.61-1.33h0c-.05.43-.35.77-.76.89-1.62.47-2.94-.22-3.39-1.46.17-.34.24-.3.22-.31-.18-.12-.42-.07-.54.11-.02.02-.03.05-.04.08-.03.07-.05.13-.07.17-.24-.84-.52-.72.38-2.42Z"/>
      <path class="cls-2" d="m16.95,7.28l.17-.85c.02-.07.02-.14,0-.21-.05-.08-.15-.12-.24-.11-.09.01-.16.1-.25.11-.32.06-.74-.26-.86.54-.05.33-.58.37-.76.65s-.2.7.04.93c.19.19.5.21.75.11s.45-.29.63-.49.34-.42.54-.6"/>
      <path class="cls-1" d="m15.7,8.57c.65-.09,1.09-.33,1.31-.7.29-.49.1-1.03.09-1.05l-.14.05s.18.5-.08.93c-.2.33-.61.55-1.21.63l.02.14Z"/>
    </g>
  </g>
</svg>