<?xml version="1.0" encoding="UTF-8"?>
<svg id="Layer_2" data-name="Layer 2" xmlns="http://www.w3.org/2000/svg" viewBox="0 0 60.05 50.77">
  <defs>
    <style>
      .cls-1 {
        fill: #94d1c4;
      }

      .cls-1, .cls-2, .cls-3 {
        stroke-width: 0px;
      }

      .cls-2 {
        fill: #6da397;
      }

      .cls-3 {
        fill: #1e2d2e;
      }
    </style>
  </defs>
  <g id="Layer_2-2" data-name="Layer 2">
    <g>
      <path class="cls-2" d="m53.84,47.46l-1.01.93.8-1.35c-.63-1.15-1.67-2.14-1.67-2.14,0,0-2.15,2.06-2.15,3.67s.96,2.18,2.15,2.18,2.15-.56,2.15-2.18c-.01-.39-.11-.77-.27-1.12Z"/>
      <path class="cls-1" d="m52.57,48.44v.08c0,.93-.16,1.65-.47,2.16,0,0,0,.01-.01.02l-.03-.02-.03-.02c.34-.55.46-1.33.46-2.13,0-.03,0-.05,0-.08,0-.34-.02-.69-.06-1.02,0-.03,0-.05,0-.08-.05-.44-.11-.87-.18-1.23,0-.03,0-.05-.01-.08-.12-.62-.24-1.07-.27-1.17,0-.01,0-.02,0-.02h.04s0-.01,0-.01h.04s0,.01.02.06c.04.16.15.58.26,1.14,0,.03,0,.05.01.08.06.3.11.63.15.98.01.09.02.17.03.26,0,.03,0,.05,0,.08.04.36.06.7.06,1.02Z"/>
      <path class="cls-1" d="m52.31,46.02s-.05,0-.08,0c-.07,0-.15.01-.22.01-.32,0-.63-.07-.91-.21-.02.02-.03.04-.05.06.3.15.63.22.96.22.08,0,.16,0,.24-.01.03,0,.05,0,.08-.01.22-.03.43-.1.63-.19-.02-.02-.03-.04-.05-.06-.19.09-.39.15-.59.18Z"/>
      <path class="cls-1" d="m52.5,47.34s-.05,0-.08,0c0,0-.02,0-.03,0-.7,0-1.35-.34-1.75-.91-.02.02-.03.05-.05.07.41.58,1.08.92,1.79.92.01,0,.02,0,.03,0,.03,0,.05,0,.08,0,.42-.02.83-.16,1.17-.41-.01-.02-.03-.05-.04-.07-.33.24-.73.38-1.14.4Z"/>
      <path class="cls-1" d="m52.57,48.44s-.06,0-.08,0c-.03,0-.06,0-.09,0-.95,0-1.78-.63-2.04-1.53-.02.03-.04.06-.05.1.3.91,1.14,1.52,2.1,1.52.03,0,.06,0,.09,0,.03,0,.06,0,.08,0,.56-.04,1.08-.3,1.45-.71,0-.03-.02-.06-.03-.09-.36.42-.88.67-1.43.72Z"/>
      <path class="cls-2" d="m45.39,12.53l.04-.81.22.9c.74.22,1.58.21,1.58.21,0,0,.06-1.75-.61-2.43s-1.3-.52-1.8-.03c-.5.49-.67,1.12,0,1.8.16.16.36.28.57.36Z"/>
      <path class="cls-1" d="m45.52,11.6l-.03-.03c-.38-.39-.61-.76-.69-1.1,0,0,0,0,0-.01h.02s.02-.01.02-.01c.08.37.35.75.68,1.09.01.01.02.02.03.03.14.14.29.28.44.41.01,0,.02.02.04.03.2.17.4.32.58.44.01,0,.03.02.04.03.31.21.54.35.59.38,0,0,0,0,.01,0v.02s-.01,0-.01,0v.02s-.02,0-.05-.02c-.08-.05-.3-.18-.58-.37-.01,0-.03-.02-.04-.03-.15-.1-.31-.22-.47-.35-.04-.03-.08-.06-.12-.1-.01,0-.02-.02-.04-.03-.16-.14-.31-.27-.44-.41Z"/>
      <path class="cls-1" d="m46.63,12.51s.02-.02.03-.04c.03-.03.06-.07.09-.1.13-.13.29-.23.47-.29,0-.02,0-.03,0-.05-.19.06-.36.17-.5.3-.03.03-.06.07-.09.1-.01.01-.02.02-.03.04-.08.1-.14.22-.19.34.02,0,.03,0,.05,0,.04-.11.1-.22.18-.32Z"/>
      <path class="cls-1" d="m46,12.04s.02-.02.03-.03c0,0,0,0,.01-.01.29-.29.71-.41,1.11-.33,0-.02,0-.03,0-.05-.41-.07-.83.06-1.13.35,0,0,0,0-.01.01-.01.01-.02.02-.03.03-.17.18-.28.41-.32.65.01,0,.03,0,.04.01.04-.24.15-.46.31-.64Z"/>
      <path class="cls-1" d="m45.52,11.6s.02-.02.03-.04c.01-.01.02-.03.04-.04.4-.39,1.01-.47,1.49-.2,0-.02-.01-.04-.02-.06-.5-.26-1.1-.17-1.51.22-.01.01-.02.02-.04.04-.01.01-.02.02-.03.04-.22.25-.33.57-.32.9.02,0,.03.02.05.03-.02-.32.09-.64.31-.89Z"/>
      <path class="cls-2" d="m14.77,18.53l.04-.81.22.9c.74.22,1.58.21,1.58.21,0,0,.06-1.75-.61-2.43s-1.3-.52-1.8-.03c-.5.49-.67,1.12,0,1.8.16.16.36.28.57.36Z"/>
      <path class="cls-1" d="m14.9,17.59l-.03-.03c-.38-.39-.61-.76-.69-1.1,0,0,0,0,0-.01h.02s.02-.01.02-.01c.08.37.35.75.68,1.09.01.01.02.02.03.03.14.14.29.28.44.41.01,0,.02.02.04.03.2.17.4.32.58.44.01,0,.03.02.04.03.31.21.54.35.59.38,0,0,0,0,.01,0v.02s-.01,0-.01,0v.02s-.02,0-.05-.02c-.08-.05-.3-.18-.58-.37-.01,0-.03-.02-.04-.03-.15-.1-.31-.22-.47-.35-.04-.03-.08-.06-.12-.1-.01,0-.02-.02-.04-.03-.16-.14-.31-.27-.44-.41Z"/>
      <path class="cls-1" d="m16,18.5s.02-.02.03-.04c.03-.03.06-.07.09-.1.13-.13.29-.23.47-.29,0-.02,0-.03,0-.05-.19.06-.36.17-.5.3-.03.03-.06.07-.09.1-.01.01-.02.02-.03.04-.08.1-.14.22-.19.34.02,0,.03,0,.05,0,.04-.11.1-.22.18-.32Z"/>
      <path class="cls-1" d="m15.38,18.03s.02-.02.03-.03c0,0,0,0,.01-.01.29-.29.71-.41,1.11-.33,0-.02,0-.03,0-.05-.41-.07-.83.06-1.13.35,0,0,0,0-.01.01-.01.01-.02.02-.03.03-.17.18-.28.41-.32.65.01,0,.03,0,.04.01.04-.24.15-.46.31-.64Z"/>
      <path class="cls-1" d="m14.9,17.59s.02-.02.03-.04c.01-.01.02-.03.04-.04.4-.39,1.01-.47,1.49-.2,0-.02-.01-.04-.02-.06-.5-.26-1.1-.17-1.51.22-.01.01-.02.02-.04.04-.01.01-.02.02-.03.04-.22.25-.33.57-.32.9.02,0,.03.02.05.03-.02-.32.09-.64.31-.89Z"/>
      <path class="cls-2" d="m19.88,8.3l.04-.81.22.9c.74.22,1.58.21,1.58.21,0,0,.06-1.75-.61-2.43s-1.3-.52-1.8-.03c-.5.49-.67,1.12,0,1.8.16.16.36.28.57.36Z"/>
      <path class="cls-1" d="m20.01,7.36l-.03-.03c-.38-.39-.61-.76-.69-1.1,0,0,0,0,0-.01h.02s.02-.01.02-.01c.08.37.35.75.68,1.09.01.01.02.02.03.03.14.14.29.28.44.41.01,0,.02.02.04.03.2.17.4.32.58.44.01,0,.03.02.04.03.31.21.54.35.59.38,0,0,0,0,.01,0v.02s-.01,0-.01,0v.02s-.02,0-.05-.02c-.08-.05-.3-.18-.58-.37-.01,0-.03-.02-.04-.03-.15-.1-.31-.22-.47-.35-.04-.03-.08-.06-.12-.1-.01,0-.02-.02-.04-.03-.16-.14-.31-.27-.44-.41Z"/>
      <path class="cls-1" d="m21.12,8.27s.02-.02.03-.04c.03-.03.06-.07.09-.1.13-.13.29-.23.47-.29,0-.02,0-.03,0-.05-.19.06-.36.17-.5.3-.03.03-.06.07-.09.1-.01.01-.02.02-.03.04-.08.1-.14.22-.19.34.02,0,.03,0,.05,0,.04-.11.1-.22.18-.32Z"/>
      <path class="cls-1" d="m20.49,7.8s.02-.02.03-.03c0,0,0,0,.01-.01.29-.29.71-.41,1.11-.33,0-.02,0-.03,0-.05-.41-.07-.83.06-1.13.35,0,0,0,0-.01.01-.01.01-.02.02-.03.03-.17.18-.28.41-.32.65.01,0,.03,0,.04.01.04-.24.15-.46.31-.64Z"/>
      <path class="cls-1" d="m20.01,7.36s.02-.02.03-.04c.01-.01.02-.03.04-.04.4-.39,1.01-.47,1.49-.2,0-.02-.01-.04-.02-.06-.5-.26-1.1-.17-1.51.22-.01.01-.02.02-.04.04-.01.01-.02.02-.03.04-.22.25-.33.57-.32.9.02,0,.03.02.05.03-.02-.32.09-.64.31-.89Z"/>
      <path class="cls-2" d="m8.23,44.97l-1.75,1.61,1.39-2.33c-1.1-1.99-2.89-3.7-2.89-3.7,0,0-3.72,3.56-3.72,6.36s1.66,3.78,3.72,3.78,3.72-.98,3.72-3.78c0-.62-.18-1.28-.47-1.93Z"/>
      <path class="cls-1" d="m6.03,46.67v.14c0,1.6-.28,2.86-.81,3.74,0,.01-.02.03-.02.04l-.06-.04-.06-.04c.59-.95.8-2.3.8-3.7,0-.05,0-.09,0-.14,0-.59-.04-1.19-.1-1.77,0-.05,0-.09-.01-.14-.08-.77-.2-1.5-.32-2.14,0-.05-.02-.09-.03-.13-.21-1.08-.42-1.86-.46-2.03,0-.02,0-.03,0-.04l.06-.02h0s.07-.02.07-.02c0,0,.01.04.03.11.07.27.26,1,.45,1.97,0,.04.02.09.03.13.1.52.19,1.09.27,1.7.02.15.04.3.05.45,0,.05.01.09.01.14.06.63.1,1.22.1,1.77Z"/>
      <path class="cls-1" d="m5.58,42.48s-.09.01-.14.02c-.13.01-.26.02-.39.02-.55,0-1.09-.12-1.58-.36-.03.04-.06.07-.09.11.52.25,1.09.39,1.67.39.14,0,.27,0,.41-.02.05,0,.09-.01.14-.02.38-.05.75-.17,1.09-.33-.03-.04-.06-.07-.09-.11-.33.15-.67.26-1.03.31Z"/>
      <path class="cls-1" d="m5.92,44.77s-.09,0-.14,0c-.01,0-.03,0-.04,0-1.21,0-2.34-.59-3.02-1.58-.03.04-.05.08-.08.12.72,1,1.87,1.59,3.11,1.59.02,0,.04,0,.06,0,.05,0,.09,0,.14,0,.73-.04,1.43-.28,2.03-.71-.02-.04-.04-.08-.07-.12-.58.42-1.26.66-1.97.69Z"/>
      <path class="cls-1" d="m6.03,46.67s-.1,0-.14,0c-.05,0-.1,0-.15,0-1.64,0-3.08-1.08-3.54-2.66-.03.06-.06.11-.09.17.52,1.57,1.98,2.63,3.63,2.63.05,0,.1,0,.15,0,.05,0,.1,0,.14,0,.97-.08,1.87-.52,2.52-1.23-.01-.05-.03-.1-.05-.15-.63.72-1.52,1.17-2.47,1.24Z"/>
      <ellipse class="cls-1" cx="51.07" cy="28.89" rx="6.1" ry="3.18" transform="translate(-6.39 40.78) rotate(-41.19)"/>
      <ellipse class="cls-1" cx="11.11" cy="28.89" rx="3.18" ry="6.1" transform="translate(-17.95 18.23) rotate(-48.81)"/>
      <ellipse class="cls-1" cx="21.41" cy="47.44" rx="6.1" ry="3.18"/>
      <ellipse class="cls-1" cx="40.77" cy="47.44" rx="6.1" ry="3.18"/>
      <path class="cls-3" d="m31.09,46.24c-8.26,0-14.98-6.72-14.98-14.98s6.72-14.98,14.98-14.98,14.98,6.72,14.98,14.98-6.72,14.98-14.98,14.98Zm0-29.81c-8.18,0-14.83,6.65-14.83,14.83s6.65,14.83,14.83,14.83,14.83-6.65,14.83-14.83-6.65-14.83-14.83-14.83Z"/>
      <path class="cls-1" d="m27.44,41.24c-6.25-2.15-9.94-8.59-8.63-15.07-3.25,6.51-.61,14.43,5.91,17.68s14.43.61,17.68-5.91c.52-1.04.9-2.14,1.13-3.27-2.95,5.91-9.83,8.72-16.08,6.57Z"/>
      <path class="cls-3" d="m26.68,30.07c-.76,0-1.37-.8-1.37-1.79s.62-1.79,1.37-1.79,1.37.8,1.37,1.79-.62,1.79-1.37,1.79Z"/>
      <path class="cls-3" d="m35.01,30.07c-.76,0-1.37-.8-1.37-1.79s.62-1.79,1.37-1.79,1.37.8,1.37,1.79-.62,1.79-1.37,1.79Z"/>
      <ellipse class="cls-3" cx="30.14" cy="1.68" rx="1.31" ry=".95"/>
      <ellipse class="cls-3" cx="30.14" cy=".58" rx=".8" ry=".58"/>
      <path class="cls-3" d="m29.2,2.06c-.45-.45-.6-1.06-.37-1.45-.05.03-.1.07-.15.11-.37.37-.26,1.09.26,1.6.51.51,1.23.63,1.6.26.04-.04.08-.09.11-.15-.39.23-1,.08-1.45-.37Z"/>
      <polygon class="cls-1" points="16.61 25.56 16.14 24.79 18.88 22.65 19.57 23.78 16.61 25.56"/>
      <path class="cls-3" d="m15.98,26.21l-1.49-2.47.03-.02c.53-.32,1.22-.15,1.54.38h0s.91,1.51.91,1.51l-.99.6Z"/>
      <polygon class="cls-1" points="45.47 24.54 45.93 23.77 43.19 21.63 42.51 22.76 45.47 24.54"/>
      <path class="cls-3" d="m45.1,24.58l.91-1.51h0c.32-.53,1.01-.7,1.54-.38l.03.02-1.49,2.47-.99-.6Z"/>
      <polygon class="cls-3" points="27.56 14.3 27.39 15 22.68 18.76 17.62 23.5 18.16 24.76 30.24 16.68 43.85 23.74 44.46 22.34 38.24 18.18 33.11 14.64 27.56 14.3"/>
      <path class="cls-3" d="m29.15,6.85l-2.03.67.28,7.41s3.54,2.12,5.72-.29v-7.41l-1.21-.38h-2.74Z"/>
      <circle class="cls-1" cx="27.73" cy="18.26" r=".8"/>
      <circle class="cls-1" cx="32.63" cy="18.26" r=".8"/>
      <circle class="cls-3" cx="30.11" cy="4.01" r="2.23"/>
      <circle class="cls-1" cx="30.18" cy="4.52" r="1.79"/>
      <path class="cls-3" d="m28.29,3.39c.41.28.9.43,1.39.43-.18.12-.38.21-.59.24.66.14,1.35.15,2.01.01.15-.02.29-.07.42-.14.13-.07.23-.2.26-.35.04-.25-.15-.48-.36-.64-.63-.47-1.44-.63-2.21-.44-.25.06-.49.17-.65.37s-.21.5-.06.71l-.22-.19Z"/>
      <path class="cls-3" d="m59.98,50.77H.07s-.07-.03-.07-.07.03-.07.07-.07h59.9s.07.03.07.07-.03.07-.07.07Z"/>
      <path class="cls-3" d="m28.83,37.11c0,1.13.92,2.05,2.05,2.05s2.05-.92,2.05-2.05h-4.09Z"/>
      <circle class="cls-1" cx="38.41" cy="32.8" r="1.75"/>
      <circle class="cls-1" cx="23.28" cy="32.8" r="1.75"/>
      <path class="cls-3" d="m32.66,7.73l.45-.51s1.26.46,1.15,1.83-.84,5.75-.84,5.75l-.14,2.86h-1.31l.52-7.38.17-2.55Z"/>
      <path class="cls-3" d="m27.69,7.95l-.45-.51s-1.26.46-1.15,1.83c.1,1.38.84,5.75.84,5.75l.14,2.86h1.31l-.52-7.38-.17-2.55Z"/>
    </g>
  </g>
</svg>