<?xml version="1.0" encoding="UTF-8"?>
<svg id="Layer_2" data-name="Layer 2" xmlns="http://www.w3.org/2000/svg" viewBox="0 0 57.88 53.17">
  <defs>
    <style>
      .cls-1 {
        fill: #6f6380;
      }

      .cls-1, .cls-2, .cls-3, .cls-4 {
        stroke-width: 0px;
      }

      .cls-2 {
        fill: #1e2d2e;
      }

      .cls-3 {
        fill: #bdb2cd;
      }

      .cls-4 {
        fill: #fcf8f2;
      }
    </style>
  </defs>
  <g id="Layer_2-2" data-name="Layer 2">
    <g>
      <path class="cls-2" d="m26.51,12.63h-.29V4.63C26.22,2.07,24.14,0,21.59,0H4.63C2.07,0,0,2.07,0,4.63h0v43.9c0,2.56,2.07,4.63,4.63,4.63h16.95c2.56,0,4.63-2.07,4.63-4.63v-30.2h.29v-5.7Z"/>
      <path class="cls-3" d="m21.77,1.2h-2.21c.34.84-.06,1.8-.9,2.14-.2.08-.41.12-.62.12h-9.71c-.91,0-1.64-.74-1.64-1.64,0-.21.04-.42.12-.62h-2.07c-1.91,0-3.46,1.55-3.46,3.46v43.84c0,1.91,1.55,3.46,3.46,3.46h17.04c1.91,0,3.46-1.55,3.46-3.46h0V4.66c0-1.91-1.55-3.46-3.46-3.46h0Z"/>
      <path class="cls-4" d="m3.39,21.84s-.07-.03-.07-.07v-2.56s.03-.07.07-.07.07.03.07.07v2.56s-.03.07-.07.07Z"/>
      <path class="cls-4" d="m3.9,22.24s-.07-.03-.07-.07v-3.36s.03-.07.07-.07.07.03.07.07v3.36s-.03.07-.07.07Z"/>
      <path class="cls-4" d="m4.42,22.49s-.07-.03-.07-.07v-3.87s.03-.07.07-.07.07.03.07.07v3.87s-.03.07-.07.07Z"/>
      <path class="cls-4" d="m4.93,23.15s-.07-.03-.07-.07v-5.19s.03-.07.07-.07.07.03.07.07v5.19s-.03.07-.07.07Z"/>
      <path class="cls-4" d="m5.44,24.14s-.07-.03-.07-.07v-7.16s.03-.07.07-.07.07.03.07.07v7.16s-.03.07-.07.07Z"/>
      <path class="cls-4" d="m5.95,23.15s-.07-.03-.07-.07v-5.19s.03-.07.07-.07.07.03.07.07v5.19s-.03.07-.07.07Z"/>
      <path class="cls-4" d="m6.46,23.63s-.07-.03-.07-.07v-6.14s.03-.07.07-.07.07.03.07.07v6.14s-.03.07-.07.07Z"/>
      <path class="cls-4" d="m6.97,22.39s-.07-.03-.07-.07v-3.65s.03-.07.07-.07.07.03.07.07v3.65s-.03.07-.07.07Z"/>
      <path class="cls-4" d="m7.48,22.68s-.07-.03-.07-.07v-4.24s.03-.07.07-.07.07.03.07.07v4.24s-.03.07-.07.07Z"/>
      <path class="cls-4" d="m8,21.84s-.07-.03-.07-.07v-2.56s.03-.07.07-.07.07.03.07.07v2.56s-.03.07-.07.07Z"/>
      <path class="cls-4" d="m8.43,21.84s-.07-.03-.07-.07v-2.56s.03-.07.07-.07.07.03.07.07v2.56s-.03.07-.07.07Z"/>
      <path class="cls-4" d="m8.94,22.24s-.07-.03-.07-.07v-3.36s.03-.07.07-.07.07.03.07.07v3.36s-.03.07-.07.07Z"/>
      <path class="cls-4" d="m9.46,22.49s-.07-.03-.07-.07v-3.87s.03-.07.07-.07.07.03.07.07v3.87s-.03.07-.07.07Z"/>
      <path class="cls-4" d="m9.97,23.15s-.07-.03-.07-.07v-5.19s.03-.07.07-.07.07.03.07.07v5.19s-.03.07-.07.07Z"/>
      <path class="cls-4" d="m10.48,25.31s-.07-.03-.07-.07v-9.5s.03-.07.07-.07.07.03.07.07v9.5s-.03.07-.07.07Z"/>
      <path class="cls-4" d="m10.99,23.15s-.07-.03-.07-.07v-5.19s.03-.07.07-.07.07.03.07.07v5.19s-.03.07-.07.07Z"/>
      <path class="cls-4" d="m11.5,23.63s-.07-.03-.07-.07v-6.14s.03-.07.07-.07.07.03.07.07v6.14s-.03.07-.07.07Z"/>
      <path class="cls-4" d="m12.01,22.39s-.07-.03-.07-.07v-3.65s.03-.07.07-.07.07.03.07.07v3.65s-.03.07-.07.07Z"/>
      <path class="cls-4" d="m12.52,22.68s-.07-.03-.07-.07v-4.24s.03-.07.07-.07.07.03.07.07v4.24s-.03.07-.07.07Z"/>
      <path class="cls-4" d="m13.04,21.84s-.07-.03-.07-.07v-2.56s.03-.07.07-.07.07.03.07.07v2.56s-.03.07-.07.07Z"/>
      <path class="cls-4" d="m13.47,21.84s-.07-.03-.07-.07v-2.56s.03-.07.07-.07.07.03.07.07v2.56s-.03.07-.07.07Z"/>
      <path class="cls-4" d="m13.99,22.24s-.07-.03-.07-.07v-3.36s.03-.07.07-.07.07.03.07.07v3.36s-.03.07-.07.07Z"/>
      <path class="cls-4" d="m14.5,22.49s-.07-.03-.07-.07v-3.87s.03-.07.07-.07.07.03.07.07v3.87s-.03.07-.07.07Z"/>
      <path class="cls-4" d="m15.01,23.15s-.07-.03-.07-.07v-5.19s.03-.07.07-.07.07.03.07.07v5.19s-.03.07-.07.07Z"/>
      <path class="cls-4" d="m15.52,24.14s-.07-.03-.07-.07v-7.16s.03-.07.07-.07.07.03.07.07v7.16s-.03.07-.07.07Z"/>
      <path class="cls-4" d="m15.88,27.37s-.07-.03-.07-.07v-13.62s.03-.07.07-.07.07.03.07.07v13.62s-.03.07-.07.07Z"/>
      <path class="cls-4" d="m16.03,23.15s-.07-.03-.07-.07v-5.19s.03-.07.07-.07.07.03.07.07v5.19s-.03.07-.07.07Z"/>
      <path class="cls-4" d="m16.54,23.63s-.07-.03-.07-.07v-6.14s.03-.07.07-.07.07.03.07.07v6.14s-.03.07-.07.07Z"/>
      <path class="cls-4" d="m17.05,22.39s-.07-.03-.07-.07v-3.65s.03-.07.07-.07.07.03.07.07v3.65s-.03.07-.07.07Z"/>
      <path class="cls-4" d="m17.56,22.68s-.07-.03-.07-.07v-4.24s.03-.07.07-.07.07.03.07.07v4.24s-.03.07-.07.07Z"/>
      <path class="cls-4" d="m18.08,21.84s-.07-.03-.07-.07v-2.56s.03-.07.07-.07.07.03.07.07v2.56s-.03.07-.07.07Z"/>
      <path class="cls-4" d="m18.51,21.84s-.07-.03-.07-.07v-2.56s.03-.07.07-.07.07.03.07.07v2.56s-.03.07-.07.07Z"/>
      <path class="cls-4" d="m19.03,22.24s-.07-.03-.07-.07v-3.36s.03-.07.07-.07.07.03.07.07v3.36s-.03.07-.07.07Z"/>
      <path class="cls-4" d="m19.54,22.49s-.07-.03-.07-.07v-3.87s.03-.07.07-.07.07.03.07.07v3.87s-.03.07-.07.07Z"/>
      <path class="cls-4" d="m20.05,23.15s-.07-.03-.07-.07v-5.19s.03-.07.07-.07.07.03.07.07v5.19s-.03.07-.07.07Z"/>
      <path class="cls-4" d="m20.56,25.31s-.07-.03-.07-.07v-9.5s.03-.07.07-.07.07.03.07.07v9.5s-.03.07-.07.07Z"/>
      <path class="cls-4" d="m21.07,23.15s-.07-.03-.07-.07v-5.19s.03-.07.07-.07.07.03.07.07v5.19s-.03.07-.07.07Z"/>
      <path class="cls-4" d="m21.58,23.63s-.07-.03-.07-.07v-6.14s.03-.07.07-.07.07.03.07.07v6.14s-.03.07-.07.07Z"/>
      <path class="cls-4" d="m22.09,22.39s-.07-.03-.07-.07v-3.65s.03-.07.07-.07.07.03.07.07v3.65s-.03.07-.07.07Z"/>
      <path class="cls-4" d="m22.61,22.68s-.07-.03-.07-.07v-4.24s.03-.07.07-.07.07.03.07.07v4.24s-.03.07-.07.07Z"/>
      <path class="cls-4" d="m23.12,21.84s-.07-.03-.07-.07v-2.56s.03-.07.07-.07.07.03.07.07v2.56s-.03.07-.07.07Z"/>
      <path class="cls-4" d="m5.44,39.48v2.61l2.05-1.3-2.05-1.3Z"/>
      <ellipse class="cls-4" cx="13.11" cy="40.78" rx="1.46" ry="1.46" transform="translate(-24.99 21.2) rotate(-44.97)"/>
      <path class="cls-4" d="m19.49,41.95h-.5c-.14,0-.25-.11-.25-.25v-1.84c0-.14.11-.25.25-.25h.5c.14,0,.25.11.25.25v1.84c0,.14-.11.25-.25.25Zm1.59-.25v-1.84c0-.14-.11-.25-.25-.25h-.5c-.14,0-.25.11-.25.25v1.84c0,.14.11.25.25.25h.5c.14,0,.25-.11.25-.25h0Z"/>
      <path class="cls-4" d="m19.66,29.33H6.85s-.09-.04-.09-.09c0-.05.04-.09.09-.09h12.81s.09.04.09.09-.04.09-.09.09Z"/>
      <path class="cls-4" d="m19.66,11.79H6.85s-.09-.04-.09-.09c0-.05.04-.09.09-.09h12.81s.09.04.09.09c0,.05-.04.09-.09.09Z"/>
      <path class="cls-1" d="m40.37,23.19s-.02,0-.03,0l-2.5-.33c-.11-.02-.19-.12-.18-.23,0-.04.02-.08.05-.11l1.74-2.07c.07-.09.2-.1.29-.03.03.03.05.06.07.1l.76,2.4c.03.11-.03.22-.13.26-.02,0-.04,0-.06,0h0Z"/>
      <path class="cls-1" d="m35.69,34.44c-.11,0-.2-.09-.21-.2l-.03-2.71c0-.11.09-.21.2-.21.04,0,.08.01.11.03l2.14,1.33c.1.06.13.19.07.28-.02.03-.04.05-.06.06l-2.11,1.38s-.07.03-.11.03h0Z"/>
      <path class="cls-1" d="m55.56,38.6c-.11,0-.2-.09-.21-.2l-.03-2.71c0-.11.09-.21.2-.21.04,0,.08.01.11.03l2.14,1.33c.1.06.13.19.07.28-.02.03-.04.05-.06.06l-2.11,1.38s-.07.03-.11.03h0Z"/>
      <path class="cls-2" d="m45.16,29.49c-.59-.27-.98-1.05-.96-1.82s.43-1.49.98-1.85c.55-.35,1.24-.41,1.84-.14.6.25,1.4.32,1.76.96.28.49.18,1.57-.02,2.11-.17.47-.58.73-.98.88-.9.33-1.9.25-2.74-.22"/>
      <polygon class="cls-3" points="51.71 50.95 50.87 51.26 49.27 48.17 50.51 47.71 51.71 50.95"/>
      <path class="cls-2" d="m50.18,51.24l1.62-.6h0l.38,1.02h0l-2.64.98h0c-.21-.56.08-1.19.64-1.4h0Z"/>
      <polygon class="cls-3" points="43.66 51.81 42.77 51.81 42.34 48.35 43.66 48.35 43.66 51.81"/>
      <path class="cls-2" d="m42.13,51.55h1.73v1.09h-2.81c0-.6.49-1.09,1.09-1.09Z"/>
      <path class="cls-3" d="m40.94,39.36c.43-.05.74-.43.7-.86,0-.05-.01-.09-.03-.14l2.95-5.08-1.03-.41-2.94,4.97c-.41.15-.62.6-.47,1.01.12.34.47.55.83.51h0Z"/>
      <path class="cls-2" d="m43.89,35.08l-1.57-.97,1.48-2.69c.27-.49.88-.67,1.37-.4.49.27.67.88.4,1.37,0,.02-.02.03-.03.05l-1.65,2.64Z"/>
      <path class="cls-2" d="m49.87,49.47c-.12,0-.24-.07-.29-.18l-3.9-8.02c-.06-.13-.22-.18-.34-.11-.07.04-.12.1-.13.18l-1.39,7.64c-.03.15-.17.26-.32.26h-.88c-.17,0-.31-.13-.33-.3-.54-5.96-.25-10.3.87-12.89.07-.15.23-.23.39-.19l4.49,1.21c.12.03.2.12.23.24l2.81,11.47c.04.17-.05.34-.22.39l-.89.28s-.07.02-.1.02Z"/>
      <circle class="cls-3" cx="46.38" cy="28.42" r="1.79"/>
      <path class="cls-1" d="m48.08,31.04s-1.61-.88-2.85.07c0,0-1.57,1.57-1.06,3.1l-1.28,3.62c1.01,1.92,3.97,1.61,5.41,0l-.11-3.47-.11-3.32Z"/>
      <path class="cls-2" d="m49.1,40.7c-.28,0-.56-.05-.81-.18-.39-.21-.64-.61-.72-1.18-.14-.96-.02-2.27.1-3.67.16-1.81.33-3.69-.12-4.72-.07-.17,0-.36.17-.43.06-.02.12-.03.18-.02l1.26.22c.13.02.24.13.27.26l1.74,8.86c.03.15-.05.3-.18.36-.38.18-1.17.5-1.9.5Z"/>
      <path class="cls-2" d="m42.51,40.59s-.09,0-.13-.03c-.21-.09-.49-.22-.85-.39-.99-.46,1.62-6.83,2.15-8.1.02-.04.05-.08.08-.12l1.43-1.3c.14-.11.35-.09.46.06.07.08.09.19.06.3-.25.84-.69,2.24-1.16,3.73-.74,2.35-1.51,4.78-1.71,5.59-.04.15-.17.25-.32.25h0Z"/>
      <path class="cls-3" d="m52.52,39.05c.22-.37.1-.85-.27-1.08-.04-.02-.08-.04-.12-.06l-2.28-5.41-.95.57,2.19,5.34c-.13.42.11.86.52.99.35.11.73-.04.91-.35h0Z"/>
      <path class="cls-2" d="m49.17,34.78l-1.26-2.8c-.23-.51,0-1.11.51-1.34.51-.23,1.11,0,1.34.51,0,.02.02.04.02.05l1.11,2.91-1.72.66Z"/>
      <path class="cls-2" d="m47.66,26.19c.13.02.26-.05.32-.18.05-.12.04-.26-.03-.38-.07-.11-.16-.2-.28-.27-.13-.09-.28-.14-.44-.15-.16-.01-.31.05-.42.16-.11.12-.14.29-.07.43.07.13.2.2.34.25.27.1.55.13.83.11"/>
      <path class="cls-2" d="m48.3,28.12c-.28.08-.26-.07-.42-.32s-.35-.54-.64-.52c-.24.01-.4.23-.57.4-.3.3-.74.49-1.16.4s-.76-.52-.67-.94c.06-.23.22-.43.43-.55.21-.11.44-.18.68-.2.53-.06,1.06,0,1.56.16.35.12.7.31.87.63s.32.79-.01.93h-.07Z"/>
      <path class="cls-2" d="m47.41,25.26c-.24-.3-.15-.77.13-1.04s.69-.35,1.07-.31c.77.08,1.44.56,1.76,1.26.24.55.24,1.18.46,1.74.47,1.21,1.83,1.81,3.04,1.34.04-.02.09-.04.13-.06.38-.17.74-.52.72-.93.24.92-.19,1.98-1.01,2.47-.48.29-1.05.39-1.6.45-.36.04-.73.08-1.09-.01-.49-.13-.91-.49-1.16-.93s-.35-.96-.35-1.47c0-.4.05-.79.02-1.19s-.15-.81-.43-1.08-.77-.36-1.09-.12c-.13.1-.22.24-.36.31s-.37.02-.38-.14l.15-.28Z"/>
      <path class="cls-2" d="m57,52.75h-22.45s-.09-.04-.09-.09c0-.05.04-.09.09-.09h22.45s.09.04.09.09c0,.05-.04.09-.09.09Z"/>
    </g>
  </g>
</svg>