<?xml version="1.0" encoding="UTF-8"?>
<svg id="Layer_2" data-name="Layer 2" xmlns="http://www.w3.org/2000/svg" viewBox="0 0 50.6 39.04">
  <defs>
    <style>
      .cls-1 {
        fill: #1e2d2e;
      }

      .cls-1, .cls-2 {
        stroke-width: 0px;
      }

      .cls-2 {
        fill: #ffaf42;
      }
    </style>
  </defs>
  <g id="Layer_2-2" data-name="Layer 2">
    <g>
      <g id="uuid-afa4718a-41ef-46ad-9f1b-fdedc1410b9c-827">
        <path class="cls-2" d="m15.72,21.62c.21-.29.36-.62.41-.97l2.38-2.88-1.41-1.09-2.26,3.04c-.32.17-.59.4-.8.7-.53.72-.58,1.58-.12,1.92.46.33,1.26.02,1.79-.71h0Z"/>
      </g>
      <polygon class="cls-1" points="25.37 10.18 22.39 8.19 16.34 17.38 17.92 19.07 25.37 10.18"/>
      <path class="cls-1" d="m0,21.37c0,.06.05.11.11.11h50.37c.06,0,.11-.05.11-.11s-.05-.11-.11-.11H.11c-.06,0-.11.05-.11.11Z"/>
      <polygon class="cls-2" points="20.28 7.6 19.95 5.31 22.89 4.56 23.28 6.59 20.28 7.6"/>
      <polygon class="cls-2" points="11.43 32.14 11.78 35.39 14.18 34.65 13.79 32.06 11.43 32.14"/>
      <path class="cls-1" d="m19.91,18.01s-7.86,1.51-8.78,3.79c-.93,2.28.15,10.84.15,10.84l2.67.27,1.12-9.83s6.81-.12,7.31-.93.43-3.75.43-3.75l-2.9-.39h0Z"/>
      <path class="cls-1" d="m11.46,33.79h0l-1.56,1.55s-2.66,2.18-.95,2.07c1.7-.12,6.11-1.16,6.08-1.97s-.74-2.44-.74-2.44l-2.83.8h0Z"/>
      <polygon class="cls-2" points="20.53 33.07 22.28 35.83 24.1 34.11 22.61 31.96 20.53 33.07"/>
      <path class="cls-1" d="m21.85,16.65s-6.37,4.84-6.19,7.3c.18,2.46,4.95,9.64,4.95,9.64l2.51-.94-3.36-9.31s6.05-3.13,6.14-4.08-1.28-3.55-1.28-3.55l-2.77.94h0Z"/>
      <path class="cls-1" d="m21.34,34.36h0l-.89,2.36s-1.28,3.04.19,2.18,4.96-3.75,4.57-4.46-1.74-1.86-1.74-1.86l-2.13,1.79h0Z"/>
      <circle class="cls-2" cx="21.31" cy="3.64" r="2.39"/>
      <path class="cls-1" d="m23.08,5.47l-2.98,2.21-.46,9.6-1.12,1.08,3.87,3.79s4.26-1.32,3.83-3.33l-.43-2.01.15-2.25c.22-3.28-.8-6.53-2.86-9.09h0Z"/>
      <path class="cls-1" d="m23.03,5.52l-1.45-.05s.38-2.28-.52-2.27l-.81-.39s-2.03-1.37-1.1-1.94c.93-.57,1.58-1.09,2.11-.79.53.3,1.61.41,1.61.41,0,0,1.92.81,1.86,1.48s-.49,3.63-1.7,3.54h0Z"/>
      <g id="uuid-b608ab84-b9cd-47a8-808f-666f8f7d666f-828">
        <path class="cls-2" d="m16.69,21.78c.2-.3.33-.64.37-.99l2.24-3-1.46-1.02-2.11,3.15c-.31.18-.57.43-.76.73-.49.75-.5,1.61-.02,1.92.48.31,1.26-.04,1.75-.79h0Z"/>
      </g>
      <polygon class="cls-1" points="25.76 9.87 22.69 8.03 17.1 17.51 18.76 19.12 25.76 9.87"/>
      <polygon class="cls-2" points="41.38 24.04 42.04 30.32 39.54 30.52 39.39 24.42 41.38 24.04"/>
      <path class="cls-1" d="m42.07,28.94h0l2.02.86s3.27,1.05,1.65,1.57c-1.63.52-6.11,1.18-6.38.41-.26-.77-.22-2.54-.22-2.54l2.93-.3h0Z"/>
      <path class="cls-1" d="m31.3,16.01l1.04.5s7.64-.43,8.16.99c.52,1.42,1.52,9.89,1.52,9.89l-2.7.17-1.18-5.74-6.85-5.81h0Z"/>
      <g id="uuid-2fb5f450-2303-4fbd-97a7-1c64874c1514-829">
        <path class="cls-2" d="m38.53,17.72c-.26-.25-.57-.43-.91-.54l-2.55-2.74-1.27,1.25,2.72,2.65c.12.34.32.64.59.88.65.62,1.49.78,1.89.37s.18-1.25-.47-1.86h0Z"/>
      </g>
      <polygon class="cls-1" points="28.46 6.66 26.09 9.35 34.41 16.55 36.29 15.21 28.46 6.66"/>
      <polygon class="cls-2" points="37.58 23.91 33.55 28.78 31.65 27.13 35.91 22.76 37.58 23.91"/>
      <path class="cls-1" d="m34.49,27.44h0l.79,2.04s1.54,3.07.03,2.27c-1.51-.8-5.12-3.54-4.75-4.27.36-.73,1.66-1.93,1.66-1.93l2.26,1.88h0Z"/>
      <path class="cls-1" d="m26.73,17.98s-1.52,3.6.97,3.6,8.33-.21,8.33-.21l-1.73,3.04,2.04,1.04s4.29-4.05,4.01-5.88-8.02-3.06-8.02-3.06l-1.56.41-4.04,1.06h0Z"/>
      <path class="cls-1" d="m26.53.81s2.68.14,2.92,1.17c.24,1.03-.31,2.08.55,2.07s1.17.37,1.17.37c0,0-.88,2.49-2.26,2.64s-2.38-6.25-2.38-6.25Z"/>
      <polygon class="cls-2" points="28.33 7.69 28.41 5.38 25.41 4.95 25.24 7.01 28.33 7.69"/>
      <path class="cls-2" d="m29.14,3.11c.42,1.25-.26,2.6-1.51,3.02-1.25.42-2.6-.26-3.02-1.51-.42-1.25.26-2.6,1.51-3.02,1.25-.42,2.6.26,3.02,1.51Z"/>
      <path class="cls-1" d="m28.73,6.79l-2.75-.57-.51,4.59c-.13.51.12,2.44.26,2.95l.83,5.56,5.78-2.8-1.32-3.26.29-2.34-2.57-4.12h0Z"/>
      <g id="uuid-2ae02034-8b61-43cb-9dde-8a75b258f379-830">
        <path class="cls-2" d="m30.04,12.94c-.35.07-.68.23-.96.45l-3.69.58.33,1.75,3.71-.78c.35.09.71.09,1.06,0,.87-.19,1.48-.8,1.36-1.36s-.93-.85-1.81-.66h0Z"/>
      </g>
      <path class="cls-1" d="m27.85,9.68l-2.48-2.12-3.66,6.41c-.11,1.49,1.26,2.67,2.72,2.34l3.28-.8-.63-2.64-1.84-.07,2.61-3.13h0Z"/>
      <path class="cls-1" d="m25.04,1.28s-2.94.81-2.27,1.97c.67,1.16,1.45,1.49,1.35,2.15s.68,3.21,1.85,2.81c1.18-.39,2.93-1.15,2.93-1.15,0,0-2.48-2.08-2.04-2.44s-.94-2.85-.94-2.85c0,0,1.4-.68,2.14-.47s1.15.13,1.15.13c0,0-2.02-1.89-2.92-1.14-.9.75-1.26.98-1.26.98h0s0,0,0,0Z"/>
    </g>
  </g>
</svg>