<?xml version="1.0" encoding="UTF-8"?>
<svg id="Layer_2" data-name="Layer 2" xmlns="http://www.w3.org/2000/svg" viewBox="0 0 73.09 66.34">
  <defs>
    <style>
      .cls-1 {
        fill: #fff;
        stroke-width: 0px;
      }
    </style>
  </defs>
  <g id="Layer_2-2" data-name="Layer 2">
    <g>
      <path class="cls-1" d="m15.16,20.7h3.57v-2.97h2.97v-3.57h-2.97v-2.97h-3.57v2.97h-2.97v3.57h2.97v2.97Zm46.96,29.13h-2.97v-2.97h-3.57v2.97h-2.97v3.57h2.97v2.97h3.57v-2.97h2.97v-3.57Zm-40.37-6.23c4.45-3.09,8.6-6.59,12.4-10.45,3.86-3.8,7.36-7.95,10.45-12.4-7.83-4.78-18.06-2.31-22.84,5.52-3.25,5.32-3.25,12,0,17.32Z"/>
      <path class="cls-1" d="m51.07,28.09c4.91-6.73,8.21-13.6,4.98-16.83-2.49-2.49-7.27-1.43-14.19,3.14,1.87.53,3.65,1.32,5.3,2.34,1.64-1.09,3.51-1.8,5.47-2.05.3,2.24-4.24,10.96-15.12,21.83-10.87,10.87-19.66,15.32-21.82,15.11.23-1.97.93-3.85,2.04-5.49-1.01-1.64-1.8-3.42-2.33-5.27-4.54,6.92-5.62,11.71-3.14,14.18.93.91,2.18,1.39,3.48,1.34,3.21-.33,6.28-1.48,8.92-3.33,1.52-.92,2.99-1.91,4.42-2.96,8.3,3.85,18.15.24,21.99-8.06,2.05-4.42,2.05-9.52,0-13.94Z"/>
    </g>
  </g>
</svg>