<?xml version="1.0" encoding="UTF-8"?>
<svg id="Layer_2" data-name="Layer 2" xmlns="http://www.w3.org/2000/svg" viewBox="0 0 60.39 58.51">
  <defs>
    <style>
      .cls-1 {
        fill: #fff;
        stroke-width: 0px;
      }
    </style>
  </defs>
  <g id="Layer_2-2" data-name="Layer 2">
    <g>
      <path class="cls-1" d="m39.75,19.51c.82,2.17,1.27,4.46,1.32,6.78-.17,4.86-2.34,9.43-5.99,12.63,3.78.26,7.51-1.06,10.28-3.65,5.78-5.78,5.98-17.94,5.98-17.94-3.95.15-7.85.88-11.59,2.18Zm-19.1,0c-3.73-1.29-7.64-2.03-11.59-2.18,0,0,.2,12.16,5.98,17.94,2.78,2.59,6.5,3.91,10.28,3.65-3.65-3.2-5.82-7.77-5.99-12.63.05-2.32.49-4.61,1.32-6.78Z"/>
      <path class="cls-1" d="m38.65,25.69c0-8.17-8.47-16.91-8.47-16.91,0,0-8.45,8.74-8.45,16.91.24,4.42,2.47,8.49,6.07,11.06v12.98h4.76v-12.98c3.61-2.57,5.85-6.64,6.09-11.06Z"/>
    </g>
  </g>
</svg>