<?xml version="1.0" encoding="UTF-8"?>
<svg id="Layer_2" data-name="Layer 2" xmlns="http://www.w3.org/2000/svg" viewBox="0 0 81.53 81.53">
  <defs>
    <style>
      .cls-1 {
        fill: #fff;
        stroke-width: 0px;
      }
    </style>
  </defs>
  <g id="Layer_2-2" data-name="Layer 2">
    <g>
      <path class="cls-1" d="m38.39,12.23h4.76v7.13h-4.76v-7.13Zm18.11,10.7l3.56-6.18,4.12,2.38-3.56,6.18-4.12-2.38Zm-39.15-3.81l4.12-2.38,3.56,6.18-4.12,2.38-3.56-6.18Zm21.04,43.04h4.76v7.13h-4.76v-7.13Zm18.11-3.57l4.12-2.37,3.56,6.18-4.12,2.37-3.56-6.18Zm-39.15,3.81l3.56-6.18,4.12,2.37-3.56,6.18-4.12-2.37Z"/>
      <path class="cls-1" d="m68.9,39.44l-.28-.42c-10.26-15.38-31.04-19.54-46.43-9.29-3.68,2.45-6.84,5.61-9.29,9.29l-.28.42c-.53.8-.53,1.84,0,2.64l.28.42c10.26,15.38,31.04,19.54,46.43,9.29,3.68-2.45,6.84-5.61,9.29-9.29l.28-.42c.53-.8.53-1.84,0-2.64Zm-28.14,13.21c-6.57,0-11.89-5.32-11.89-11.89s5.32-11.89,11.89-11.89,11.89,5.32,11.89,11.89c0,6.56-5.33,11.88-11.89,11.89Z"/>
      <path class="cls-1" d="m41.41,34.11c-.17-.01-.33.04-.45.15-.12.11-.19.27-.19.44v5.92c0,.33-.27.59-.59.59h-5.92c-.33,0-.6.27-.59.6,0,.01,0,.03,0,.04.36,3.92,3.83,6.81,7.75,6.45,3.92-.36,6.81-3.83,6.45-7.75-.31-3.43-3.03-6.14-6.45-6.45Z"/>
    </g>
  </g>
</svg>