<?xml version="1.0" encoding="UTF-8"?>
<svg id="Layer_2" data-name="Layer 2" xmlns="http://www.w3.org/2000/svg" viewBox="0 0 81.53 81.53">
  <defs>
    <style>
      .cls-1 {
        fill: #fff;
        stroke-width: 0px;
      }
    </style>
  </defs>
  <g id="Layer_2-2" data-name="Layer 2">
    <g>
      <path class="cls-1" d="m49.09,25.9c-1.64,0-2.97,1.33-2.97,2.97v8.32c0,1.64,1.33,2.97,2.97,2.97s2.97-1.33,2.97-2.97v-8.32c0-1.64-1.33-2.97-2.97-2.97Z"/>
      <path class="cls-1" d="m64.54,12.23v4.18H16.98v-4.18h-4.76v57.07h4.76v-19.64h47.56v19.64h4.76V12.23h-4.76Zm-32.1,27.94c1.64,0,2.97-1.33,2.97-2.97v-1.78h-2.97v-3.57h6.54v5.35c0,3.61-2.93,6.54-6.54,6.54s-6.54-2.93-6.54-6.54v-8.32c0-3.61,2.93-6.54,6.54-6.54s6.54,2.93,6.54,6.54h-3.57c0-1.64-1.33-2.97-2.97-2.97s-2.97,1.33-2.97,2.97v8.32c0,1.64,1.33,2.97,2.97,2.97Zm23.18-2.97c0,3.61-2.93,6.54-6.54,6.54s-6.54-2.93-6.54-6.54v-8.32c0-3.61,2.93-6.54,6.54-6.54s6.54,2.93,6.54,6.54v8.32Z"/>
    </g>
  </g>
</svg>