<?xml version="1.0" encoding="UTF-8"?>
<svg id="Layer_2" data-name="Layer 2" xmlns="http://www.w3.org/2000/svg" viewBox="0 0 81.53 81.53">
  <defs>
    <style>
      .cls-1 {
        fill: #fff;
        stroke-width: 0px;
      }
    </style>
  </defs>
  <g id="Layer_2-2" data-name="Layer 2">
    <g>
      <path class="cls-1" d="m31.25,39.57c0,4.6,3.73,8.32,8.32,8.32s8.32-3.73,8.32-8.32-3.73-8.32-8.32-8.32-8.32,3.73-8.32,8.32"/>
      <path class="cls-1" d="m40.76,12.23c-15.76,0-28.53,12.78-28.53,28.53s12.78,28.53,28.53,28.53,28.53-12.78,28.53-28.53c-.02-15.75-12.78-28.52-28.53-28.53Zm12.59,44.48l-6.37-6.37c-5.96,4.1-14.11,2.6-18.21-3.36-4.1-5.96-2.6-14.11,3.36-18.21,5.96-4.1,14.11-2.6,18.21,3.36,3.08,4.47,3.08,10.38,0,14.85l6.37,6.37-3.36,3.36Z"/>
    </g>
  </g>
</svg>