<?xml version="1.0" encoding="UTF-8"?>
<svg id="Layer_2" data-name="Layer 2" xmlns="http://www.w3.org/2000/svg" viewBox="0 0 67.99 64.97">
  <defs>
    <style>
      .cls-1 {
        fill: #fff;
        stroke-width: 0px;
      }
    </style>
  </defs>
  <g id="Layer_2-2" data-name="Layer 2">
    <g>
      <path class="cls-1" d="m43.75,9.75c5.42,11.94.12,26.02-11.82,31.43-6.23,2.83-13.38,2.83-19.61,0,5.38,11.98,19.45,17.33,31.43,11.95,11.98-5.38,17.33-19.45,11.95-31.43-2.39-5.31-6.64-9.57-11.95-11.95Z"/>
      <path class="cls-1" d="m18.92,33.79h12.68v-4.76h-12.68c-2.19,0-3.97-1.76-3.98-3.95,0-2.19,1.76-3.97,3.95-3.98.77,0,1.52.22,2.17.64,1.1.71,2.58.39,3.29-.71.15-.23.26-.48.32-.75.74-3.23,3.62-5.53,6.94-5.52h4.76v-4.76h-4.76c-4.51-.01-8.64,2.54-10.64,6.58-.67-.16-1.35-.24-2.04-.24-4.82,0-8.72,3.9-8.72,8.72s3.9,8.72,8.72,8.72h0Z"/>
    </g>
  </g>
</svg>