<?xml version="1.0" encoding="UTF-8"?>
<svg id="Layer_2" data-name="Layer 2" xmlns="http://www.w3.org/2000/svg" viewBox="0 0 61.15 81.21">
  <defs>
    <style>
      .cls-1 {
        fill: #fff;
        stroke-width: 0px;
      }
    </style>
  </defs>
  <g id="Layer_2-2" data-name="Layer 2">
    <g>
      <path class="cls-1" d="m21.06,21.69c0,5.25,4.26,9.51,9.51,9.51s9.51-4.26,9.51-9.51-4.26-9.51-9.51-9.51-9.51,4.26-9.51,9.51"/>
      <path class="cls-1" d="m43.39,40.41c-2.69-2.9-6.48-4.51-10.44-4.45h-4.76c-3.95-.06-7.73,1.57-10.4,4.47l12.78,6.62,12.81-6.65Z"/>
      <path class="cls-1" d="m50.83,42.6c-.71-.43-1.59-.46-2.33-.08l-16.84,8.73c-.69.36-1.5.36-2.19,0l-16.84-8.73c-1.17-.6-2.6-.15-3.21,1.02-.18.34-.27.71-.27,1.09v13.57c0,.94.55,1.79,1.41,2.17l19.02,8.45c.61.27,1.32.27,1.93,0l19.02-8.45c.86-.38,1.41-1.23,1.41-2.17v-13.57c0-.83-.43-1.6-1.14-2.03Z"/>
    </g>
  </g>
</svg>