<svg width="16" height="14" viewBox="0 0 16 14" fill="none" xmlns="http://www.w3.org/2000/svg">
<path d="M11.1026 0.768127C10.4424 0.753482 9.78809 0.894075 9.19229 1.17877C8.5965 1.46347 8.07594 1.88446 7.67261 2.40729C7.26927 1.88446 6.74872 1.46347 6.15292 1.17877C5.55713 0.894075 4.90274 0.753482 4.24258 0.768127C3.11512 0.769451 2.03424 1.21786 1.23709 2.0152C0.439944 2.81253 -0.00834079 3.89359 -0.00939941 5.02106C-0.00939941 9.82106 7.1096 13.7092 7.4126 13.8692C7.49244 13.9124 7.58181 13.9351 7.67261 13.9351C7.7634 13.9351 7.85275 13.9124 7.93259 13.8692C8.23259 13.7092 15.3546 9.82206 15.3546 5.02106C15.3535 3.89359 14.9052 2.81253 14.1081 2.0152C13.3109 1.21786 12.2301 0.769451 11.1026 0.768127ZM7.67261 12.7579V5.15826C7.67257 4.36111 7.96188 3.59073 8.48679 2.99078C9.01169 2.39084 9.73651 2.00191 10.5266 1.89606C10.7176 1.87606 10.9096 1.8663 11.1026 1.8653C11.9391 1.86662 12.741 2.19947 13.3324 2.79108C13.9238 3.38268 14.2565 4.18453 14.2576 5.02106C14.2576 8.69806 8.92461 12.0269 7.67261 12.7579Z" fill="#BDB2CD"/>
</svg>
