<svg width="11" height="14" viewBox="0 0 11 14" fill="none" xmlns="http://www.w3.org/2000/svg">
<path d="M4.84659 0.723145C4.68275 0.759406 4.52341 0.81336 4.37156 0.884766C1.71456 2.12677 0.0125471 5.59824 0.0125471 8.57324C0.00232336 9.91394 0.491775 11.21 1.38547 12.2095C2.27917 13.2089 3.51309 13.8398 4.84659 13.979V0.723145Z" fill="#94D1C4"/>
<path d="M5.84662 13.9751C7.18012 13.8359 8.41398 13.205 9.30768 12.2056C10.2014 11.2061 10.6908 9.90955 10.6806 8.56885C10.6804 8.29432 10.6664 8.02019 10.6386 7.74707L5.84662 12.5391V13.9751Z" fill="#94D1C4"/>
<path d="M9.51959 4.12207C9.26402 3.64245 8.96511 3.18736 8.62659 2.76221L5.84662 5.54199V7.79492L9.51959 4.12207Z" fill="#94D1C4"/>
<path d="M7.95258 2.02197C7.47456 1.55655 6.92364 1.17227 6.32159 0.884766C6.16974 0.813368 6.01046 0.759414 5.84662 0.723145V4.12305L7.95258 2.02197Z" fill="#94D1C4"/>
<path d="M9.97162 5.08496L5.84662 9.20898V11.1289L10.3466 6.62891L10.4346 6.54102C10.3173 6.04466 10.1626 5.55787 9.97162 5.08496Z" fill="#94D1C4"/>
</svg>
