<svg width="14" height="15" viewBox="0 0 14 15" fill="none" xmlns="http://www.w3.org/2000/svg">
<path d="M8.6666 2.375C8.6666 2.70272 8.56941 3.02292 8.38734 3.29541C8.20526 3.5679 7.94649 3.78035 7.64372 3.90576C7.34094 4.03118 7.00777 4.06394 6.68635 4C6.36492 3.93606 6.06966 3.77861 5.83793 3.54688C5.60619 3.31514 5.44837 3.01967 5.38444 2.69824C5.3205 2.37682 5.35332 2.0435 5.47874 1.74072C5.60415 1.43795 5.81654 1.17914 6.08903 0.99707C6.36152 0.814997 6.68187 0.717773 7.00959 0.717773C7.44905 0.717773 7.87053 0.892377 8.18128 1.20312C8.49203 1.51387 8.6666 1.93554 8.6666 2.375Z" fill="#FFAF42"/>
<path d="M1.04456 10.665L2.76056 9.79785C2.84246 9.75589 2.91121 9.69229 2.9592 9.61377C3.00719 9.53525 3.03256 9.44505 3.03256 9.35303C3.03256 8.29826 3.45159 7.28685 4.19742 6.54102C4.94325 5.79518 5.95479 5.37598 7.00955 5.37598C8.06432 5.37598 9.07588 5.79518 9.82172 6.54102C10.5675 7.28685 10.9866 8.29826 10.9866 9.35303C10.9866 9.44505 11.0119 9.53525 11.0599 9.61377C11.1079 9.69229 11.1767 9.75589 11.2586 9.79785L12.9746 10.665" stroke="#FFAF42" stroke-width="0.581"/>
<path d="M5.35263 10.002L4.66263 10.9229L4.61963 10.979C4.44505 11.1992 4.20527 11.3585 3.93463 11.4341L3.86761 11.4512L2.88364 11.6968C2.5478 11.7808 2.24966 11.9747 2.03659 12.2476C1.82352 12.5204 1.70776 12.8569 1.70764 13.2031C1.70764 13.4089 1.78938 13.6064 1.93491 13.752C2.08043 13.8975 2.27783 13.979 2.48364 13.979H3.51462C3.77782 13.986 4.04122 13.9787 4.30362 13.957C4.75445 13.9041 5.18954 13.7585 5.58163 13.5298C5.80536 13.3909 6.02072 13.2394 6.22662 13.0752L6.34662 12.9849M6.34662 12.9849L7.67264 11.9912M6.34662 12.9849L8.02963 13.6162C8.29528 13.7251 8.56748 13.8172 8.84464 13.8921C8.95264 13.9181 9.06163 13.9371 9.17163 13.9521C9.45748 13.9786 9.74467 13.9875 10.0316 13.979H11.5316C11.6335 13.979 11.7344 13.9589 11.8286 13.9199C11.9227 13.8809 12.0083 13.824 12.0804 13.752C12.1524 13.6799 12.2096 13.5941 12.2486 13.5C12.2876 13.4059 12.3076 13.305 12.3076 13.2031C12.3073 12.857 12.1915 12.5209 11.9785 12.248C11.7654 11.9752 11.4674 11.781 11.1316 11.6968L10.1476 11.4512L10.0806 11.4341C9.80999 11.3585 9.57021 11.1992 9.39563 10.979L9.35263 10.9229L8.66263 10.002" stroke="#FFAF42" stroke-width="0.581"/>
</svg>
