<?xml version="1.0" encoding="UTF-8"?>
<svg id="Layer_2" data-name="Layer 2" xmlns="http://www.w3.org/2000/svg" viewBox="0 0 74.73 67.94">
  <defs>
    <style>
      .cls-1 {
        fill: #1e2d2e;
        stroke-width: 0px;
      }
    </style>
  </defs>
  <g id="Layer_2-2" data-name="Layer 2">
    <g>
      <path class="cls-1" d="m56.39,31.63h7.13v4.76h-7.13v-4.76Zm-7.25-12.76l5.05-5.05,3.36,3.36-5.04,5.05-3.37-3.36Zm-31.95-1.68l3.37-3.36,5.04,5.04-3.36,3.37-5.05-5.05Zm-5.98,14.44h7.13v4.76h-7.13v-4.76Zm5.98,19.19l5.05-5.04,3.36,3.36-5.04,5.04-3.36-3.36Zm31.95-1.68l3.36-3.36,5.04,5.04-3.36,3.36-5.05-5.04Z"/>
      <path class="cls-1" d="m30.23,17.32c0,3.94,3.19,7.13,7.13,7.13s7.13-3.19,7.13-7.13-3.19-7.13-7.13-7.13-7.13,3.19-7.13,7.13"/>
      <path class="cls-1" d="m49.26,36.35c0-6.57-5.32-11.89-11.89-11.89s-11.89,5.32-11.89,11.89v7.13c0,1.31,1.06,2.38,2.38,2.38h2.38v9.51c0,1.31,1.06,2.38,2.38,2.38h9.51c1.31,0,2.38-1.06,2.38-2.38v-9.51h2.38c1.31,0,2.38-1.06,2.38-2.38v-7.13Z"/>
    </g>
  </g>
</svg>