<?xml version="1.0" encoding="UTF-8"?>
<svg id="Layer_2" data-name="Layer 2" xmlns="http://www.w3.org/2000/svg" viewBox="0 0 81.53 81.53">
  <defs>
    <style>
      .cls-1 {
        fill: #1e2d2e;
        fill-rule: evenodd;
        stroke-width: 0px;
      }
    </style>
  </defs>
  <g id="Layer_2-2" data-name="Layer 2">
    <path class="cls-1" d="m66.92,69.3H14.61c-1.43,0-2.38-.95-2.38-2.38V14.61c0-1.43.95-2.38,2.38-2.38h52.31c1.43,0,2.38.95,2.38,2.38v52.31c0,1.43-.95,2.38-2.38,2.38Zm-23.78-47.56v38.05h-4.76V21.74h4.76Zm4.76,7.61v22.83h4.76v-22.83h-4.76Zm-19.02,22.83v-22.83h4.76v22.83h-4.76Zm-9.51-17.12v11.41h4.76v-11.41h-4.76Zm38.05,11.41v-11.41h4.76v11.41h-4.76Z"/>
  </g>
</svg>