<?xml version="1.0" encoding="UTF-8"?>
<svg id="Layer_2" data-name="Layer 2" xmlns="http://www.w3.org/2000/svg" viewBox="0 0 67.94 33.97">
  <defs>
    <style>
      .cls-1 {
        fill: #1e2d2e;
        stroke-width: 0px;
      }
    </style>
  </defs>
  <g id="Layer_2-2" data-name="Layer 2">
    <path class="cls-1" d="m45.86,28.87c-5.76,0-9.17-3.55-11.89-7.5-2.72,3.95-6.13,7.5-11.89,7.5-6.5-.16-11.73-5.39-11.89-11.89.16-6.5,5.39-11.73,11.89-11.89,5.76,0,9.17,3.55,11.89,7.5,2.72-3.95,6.13-7.5,11.89-7.5,6.5.16,11.73,5.39,11.89,11.89,0,7.56-4.33,11.89-11.89,11.89Zm-9.07-11.89c2.85,4.47,5.12,7.13,9.07,7.13,4.93,0,7.13-2.2,7.13-7.13-.19-3.86-3.28-6.94-7.13-7.13-3.96,0-6.21,2.67-9.07,7.13Zm-14.7-7.13c-3.86.19-6.94,3.28-7.13,7.13.19,3.86,3.28,6.94,7.13,7.13,3.96,0,6.21-2.67,9.07-7.13-2.86-4.47-5.12-7.13-9.07-7.13Z"/>
  </g>
</svg>