<?xml version="1.0" encoding="UTF-8"?>
<svg id="Layer_2" data-name="Layer 2" xmlns="http://www.w3.org/2000/svg" viewBox="0 0 67.94 67.94">
  <defs>
    <style>
      .cls-1 {
        fill: #1e2d2e;
        stroke-width: 0px;
      }
    </style>
  </defs>
  <g id="Layer_2-2" data-name="Layer 2">
    <path class="cls-1" d="m56.62,27.19c-.7-.43-1.58-.47-2.31-.1l-14.27,7.13c-.81.4-1.32,1.23-1.31,2.13v9.63c-3.22-.66-6.36,1.42-7.01,4.64-.66,3.22,1.42,6.36,4.64,7.01s6.36-1.42,7.01-4.64c.08-.39.12-.79.12-1.19v-13.99l9.51-4.76v8.16c-3.22-.66-6.36,1.42-7.01,4.64s1.42,6.36,4.64,7.01,6.36-1.42,7.01-4.64c.08-.39.12-.79.12-1.19v-17.83c0-.82-.43-1.59-1.13-2.03ZM10.19,10.19h40.42v4.76H10.19v-4.76Zm0,9.51h40.42v4.76H10.19v-4.76Zm0,9.51h21.4v4.76H10.19v-4.76Zm0,9.51h21.4v4.76H10.19v-4.76Z"/>
  </g>
</svg>