<?xml version="1.0" encoding="UTF-8"?>
<svg id="Layer_2" data-name="Layer 2" xmlns="http://www.w3.org/2000/svg" viewBox="0 0 67.94 67.94">
  <defs>
    <style>
      .cls-1 {
        fill: #fcf8f2;
        stroke-width: 0px;
      }
    </style>
  </defs>
  <g id="Layer_2-2" data-name="Layer 2">
    <path class="cls-1" d="m33.97,10.19c-13.13,0-23.78,10.65-23.78,23.78s10.65,23.78,23.78,23.78,23.78-10.65,23.78-23.78-10.65-23.78-23.78-23.78Zm0,41.66c-5.59-.01-10.86-2.61-14.27-7.03l3.71-3.71c3.98,5.83,11.94,7.33,17.77,3.35,1.32-.9,2.45-2.04,3.35-3.35l3.7,3.7c-3.41,4.43-8.68,7.03-14.27,7.04h0Zm12.11-22.42l-2.59,6.92-2.59-6.92-6.92-2.59-6.92,2.59-2.59,6.92-2.59-6.92-6.92-2.59,6.92-2.6,2.59-6.91,2.59,6.91,6.92,2.6,6.92-2.59,2.59-6.92,2.59,6.92,6.92,2.59-6.92,2.59Z"/>
  </g>
</svg>