<?xml version="1.0" encoding="UTF-8"?>
<svg id="Layer_2" data-name="Layer 2" xmlns="http://www.w3.org/2000/svg" viewBox="0 0 47.56 47.45">
  <defs>
    <style>
      .cls-1 {
        fill: #fcf8f2;
        stroke-width: 0px;
      }
    </style>
  </defs>
  <g id="Layer_2-2" data-name="Layer 2">
    <path class="cls-1" d="m47.38,15.63c-.37-.89-1.24-1.47-2.2-1.47h-12.8L25.92,1.21c-.7-1.17-2.23-1.56-3.4-.85-.35.21-.64.5-.85.85l-6.49,12.95H2.38C1.06,14.16,0,15.22,0,16.54c0,.63.25,1.23.7,1.68l10.9,10.9-4.37,15.3c-.36,1.26.37,2.58,1.63,2.94.67.19,1.39.08,1.97-.31l12.95-8.64,12.95,8.63c1.09.73,2.57.43,3.3-.67.38-.58.5-1.3.31-1.97l-4.37-15.3,10.9-10.9c.68-.68.88-1.7.52-2.59Z"/>
  </g>
</svg>