<?xml version="1.0" encoding="UTF-8"?>
<svg id="Layer_2" data-name="Layer 2" xmlns="http://www.w3.org/2000/svg" viewBox="0 0 61.15 67.94">
  <defs>
    <style>
      .cls-1 {
        fill: #fcf8f2;
        stroke-width: 0px;
      }
    </style>
  </defs>
  <g id="Layer_2-2" data-name="Layer 2">
    <path class="cls-1" d="m47.22,10.19h-28.53c-2.63,0-4.76,2.13-4.76,4.76v2.38h4.76v2.38h-9.51v4.76h4.76v4.76h4.76v2.38h-9.51v4.76h4.76v4.76h4.76v2.38h-9.51v4.76h4.76v4.76c0,2.63,2.13,4.76,4.76,4.76h28.53c2.63,0,4.76-2.13,4.76-4.76V14.95c0-2.63-2.13-4.76-4.76-4.76Zm-14.27,14.27c2.63,0,4.76,2.13,4.76,4.76s-2.13,4.76-4.76,4.76-4.76-2.13-4.76-4.76,2.13-4.76,4.76-4.76Zm-7.13,19.02c-.28-3.66,2.45-6.85,6.11-7.13.34-.03.68-.03,1.02,0,3.66-.28,6.85,2.45,7.13,6.11.03.34.03.68,0,1.02h-14.27Z"/>
  </g>
</svg>